<svg width="32" height="32" viewBox="0 0 32 32" fill="none" xmlns="http://www.w3.org/2000/svg">
<path d="M7 14C7 14.3956 6.8827 14.7822 6.66294 15.1111C6.44318 15.44 6.13082 15.6964 5.76537 15.8478C5.39992 15.9991 4.99778 16.0387 4.60982 15.9616C4.22186 15.8844 3.86549 15.6939 3.58579 15.4142C3.30608 15.1345 3.1156 14.7781 3.03843 14.3902C2.96126 14.0022 3.00087 13.6001 3.15224 13.2346C3.30362 12.8692 3.55996 12.5568 3.88886 12.3371C4.21776 12.1173 4.60444 12 5 12C5.53043 12 6.03914 12.2107 6.41421 12.5858C6.78929 12.9609 7 13.4696 7 14Z" fill="#C5C5C5"/>
<path d="M17 14C17 14.3956 16.8827 14.7822 16.6629 15.1111C16.4432 15.44 16.1308 15.6964 15.7654 15.8478C15.3999 15.9991 14.9978 16.0387 14.6098 15.9616C14.2219 15.8844 13.8655 15.6939 13.5858 15.4142C13.3061 15.1345 13.1156 14.7781 13.0384 14.3902C12.9613 14.0022 13.0009 13.6001 13.1522 13.2346C13.3036 12.8692 13.56 12.5568 13.8889 12.3371C14.2178 12.1173 14.6044 12 15 12C15.5304 12 16.0391 12.2107 16.4142 12.5858C16.7893 12.9609 17 13.4696 17 14Z" fill="#C5C5C5"/>
<path d="M27 14C27 14.3956 26.8827 14.7822 26.6629 15.1111C26.4432 15.44 26.1308 15.6964 25.7654 15.8478C25.3999 15.9991 24.9978 16.0387 24.6098 15.9616C24.2219 15.8844 23.8655 15.6939 23.5858 15.4142C23.3061 15.1345 23.1156 14.7781 23.0384 14.3902C22.9613 14.0022 23.0009 13.6001 23.1522 13.2346C23.3036 12.8692 23.56 12.5568 23.8889 12.3371C24.2178 12.1173 24.6044 12 25 12C25.5304 12 26.0391 12.2107 26.4142 12.5858C26.7893 12.9609 27 13.4696 27 14Z" fill="#C5C5C5"/>
</svg>
