<svg width="32" height="32" viewBox="0 0 32 32" fill="none" xmlns="http://www.w3.org/2000/svg">
<path d="M8 16C8 16.3956 7.8827 16.7822 7.66294 17.1111C7.44318 17.44 7.13082 17.6964 6.76537 17.8478C6.39992 17.9991 5.99778 18.0387 5.60982 17.9616C5.22186 17.8844 4.86549 17.6939 4.58579 17.4142C4.30608 17.1345 4.1156 16.7781 4.03843 16.3902C3.96126 16.0022 4.00087 15.6001 4.15224 15.2346C4.30362 14.8692 4.55996 14.5568 4.88886 14.3371C5.21776 14.1173 5.60444 14 6 14C6.53043 14 7.03914 14.2107 7.41421 14.5858C7.78929 14.9609 8 15.4696 8 16Z" fill="#C5C5C5"/>
<path d="M18 16C18 16.3956 17.8827 16.7822 17.6629 17.1111C17.4432 17.44 17.1308 17.6964 16.7654 17.8478C16.3999 17.9991 15.9978 18.0387 15.6098 17.9616C15.2219 17.8844 14.8655 17.6939 14.5858 17.4142C14.3061 17.1345 14.1156 16.7781 14.0384 16.3902C13.9613 16.0022 14.0009 15.6001 14.1522 15.2346C14.3036 14.8692 14.56 14.5568 14.8889 14.3371C15.2178 14.1173 15.6044 14 16 14C16.5304 14 17.0391 14.2107 17.4142 14.5858C17.7893 14.9609 18 15.4696 18 16Z" fill="#C5C5C5"/>
<path d="M28 16C28 16.3956 27.8827 16.7822 27.6629 17.1111C27.4432 17.44 27.1308 17.6964 26.7654 17.8478C26.3999 17.9991 25.9978 18.0387 25.6098 17.9616C25.2219 17.8844 24.8655 17.6939 24.5858 17.4142C24.3061 17.1345 24.1156 16.7781 24.0384 16.3902C23.9613 16.0022 24.0009 15.6001 24.1522 15.2346C24.3036 14.8692 24.56 14.5568 24.8889 14.3371C25.2178 14.1173 25.6044 14 26 14C26.5304 14 27.0391 14.2107 27.4142 14.5858C27.7893 14.9609 28 15.4696 28 16Z" fill="#C5C5C5"/>
</svg>
