<svg width="32" height="32" viewBox="0 0 32 32" fill="none" xmlns="http://www.w3.org/2000/svg">
<path d="M7.96893 15.9815C7.96893 16.3746 7.85236 16.7589 7.63396 17.0857C7.41557 17.4126 7.10515 17.6673 6.74197 17.8178C6.37878 17.9682 5.97915 18.0076 5.5936 17.9309C5.20804 17.8542 4.85389 17.6649 4.57592 17.3869C4.29796 17.1089 4.10866 16.7548 4.03197 16.3692C3.95527 15.9837 3.99464 15.584 4.14507 15.2209C4.29551 14.8577 4.55026 14.5473 4.87711 14.3289C5.20397 14.1105 5.58825 13.9939 5.98135 13.9939C6.50849 13.9939 7.01404 14.2033 7.38678 14.576C7.75953 14.9488 7.96893 15.4543 7.96893 15.9815Z" fill="white"/>
<path d="M5.98137 13C5.39171 13 4.81529 13.1749 4.32501 13.5025C3.83473 13.83 3.4526 14.2957 3.22694 14.8404C3.00129 15.3852 2.94225 15.9847 3.05729 16.563C3.17232 17.1413 3.45627 17.6726 3.87322 18.0895C4.29018 18.5065 4.8214 18.7904 5.39973 18.9054C5.97806 19.0205 6.57751 18.9614 7.12229 18.7358C7.66706 18.5101 8.13269 18.128 8.46028 17.6377C8.78788 17.1474 8.96273 16.571 8.96273 15.9814C8.96273 15.1907 8.64863 14.4323 8.08951 13.8732C7.5304 13.3141 6.77208 13 5.98137 13ZM5.98137 16.9752C5.78481 16.9752 5.59268 16.9169 5.42925 16.8077C5.26582 16.6985 5.13844 16.5433 5.06323 16.3617C4.98801 16.1801 4.96833 15.9803 5.00667 15.7875C5.04502 15.5947 5.13967 15.4176 5.27865 15.2787C5.41764 15.1397 5.59471 15.045 5.78749 15.0067C5.98027 14.9683 6.18008 14.988 6.36167 15.0632C6.54327 15.1384 6.69847 15.2658 6.80767 15.4292C6.91687 15.5927 6.97516 15.7848 6.97516 15.9814C6.97516 16.2449 6.87045 16.4977 6.68408 16.6841C6.49771 16.8705 6.24494 16.9752 5.98137 16.9752Z" fill="white"/>
<path d="M17.9068 15.9815C17.9068 16.3746 17.7903 16.7589 17.5719 17.0857C17.3535 17.4126 17.043 17.6673 16.6799 17.8178C16.3167 17.9682 15.917 18.0076 15.5315 17.9309C15.1459 17.8542 14.7918 17.6649 14.5138 17.3869C14.2359 17.1089 14.0466 16.7548 13.9699 16.3692C13.8932 15.9837 13.9325 15.584 14.083 15.2209C14.2334 14.8577 14.4882 14.5473 14.815 14.3289C15.1419 14.1105 15.5261 13.9939 15.9192 13.9939C16.4464 13.9939 16.9519 14.2033 17.3247 14.576C17.6974 14.9488 17.9068 15.4543 17.9068 15.9815Z" fill="white"/>
<path d="M15.9192 13C15.3296 13 14.7532 13.1749 14.2629 13.5025C13.7726 13.83 13.3905 14.2957 13.1648 14.8404C12.9392 15.3852 12.8801 15.9847 12.9952 16.563C13.1102 17.1413 13.3941 17.6726 13.8111 18.0895C14.228 18.5065 14.7593 18.7904 15.3376 18.9054C15.9159 19.0205 16.5154 18.9614 17.0602 18.7358C17.6049 18.5101 18.0706 18.128 18.3982 17.6377C18.7257 17.1474 18.9006 16.571 18.9006 15.9814C18.9006 15.1907 18.5865 14.4323 18.0274 13.8732C17.4683 13.3141 16.7099 13 15.9192 13V13ZM15.9192 16.9752C15.7227 16.9752 15.5305 16.9169 15.3671 16.8077C15.2037 16.6985 15.0763 16.5433 15.0011 16.3617C14.9259 16.1801 14.9062 15.9803 14.9445 15.7875C14.9829 15.5947 15.0775 15.4176 15.2165 15.2787C15.3555 15.1397 15.5326 15.045 15.7254 15.0067C15.9181 14.9683 16.1179 14.988 16.2995 15.0632C16.4811 15.1384 16.6363 15.2658 16.7455 15.4292C16.8547 15.5927 16.913 15.7848 16.913 15.9814C16.913 16.2449 16.8083 16.4977 16.6219 16.6841C16.4356 16.8705 16.1828 16.9752 15.9192 16.9752Z" fill="white"/>
<path d="M27.8447 15.9815C27.8447 16.3746 27.7282 16.7589 27.5098 17.0857C27.2914 17.4126 26.9809 17.6673 26.6178 17.8178C26.2546 17.9682 25.8549 18.0076 25.4694 17.9309C25.0838 17.8542 24.7297 17.6649 24.4517 17.3869C24.1737 17.1089 23.9845 16.7548 23.9078 16.3692C23.8311 15.9837 23.8704 15.584 24.0209 15.2209C24.1713 14.8577 24.4261 14.5473 24.7529 14.3289C25.0798 14.1105 25.464 13.9939 25.8571 13.9939C26.3843 13.9939 26.8898 14.2033 27.2626 14.576C27.6353 14.9488 27.8447 15.4543 27.8447 15.9815Z" fill="white"/>
<path d="M25.8571 13C25.2675 13 24.6911 13.1749 24.2008 13.5025C23.7105 13.83 23.3284 14.2957 23.1027 14.8404C22.8771 15.3852 22.818 15.9847 22.9331 16.563C23.0481 17.1413 23.332 17.6726 23.749 18.0895C24.1659 18.5065 24.6972 18.7904 25.2755 18.9054C25.8538 19.0205 26.4533 18.9614 26.9981 18.7358C27.5428 18.5101 28.0085 18.128 28.336 17.6377C28.6636 17.1474 28.8385 16.571 28.8385 15.9814C28.8385 15.1907 28.5244 14.4323 27.9653 13.8732C27.4062 13.3141 26.6478 13 25.8571 13V13ZM25.8571 16.9752C25.6606 16.9752 25.4684 16.9169 25.305 16.8077C25.1416 16.6985 25.0142 16.5433 24.939 16.3617C24.8638 16.1801 24.8441 15.9803 24.8824 15.7875C24.9208 15.5947 25.0154 15.4176 25.1544 15.2787C25.2934 15.1397 25.4705 15.045 25.6633 15.0067C25.856 14.9683 26.0558 14.988 26.2374 15.0632C26.419 15.1384 26.5742 15.2658 26.6834 15.4292C26.7926 15.5927 26.8509 15.7848 26.8509 15.9814C26.8509 16.2449 26.7462 16.4977 26.5598 16.6841C26.3735 16.8705 26.1207 16.9752 25.8571 16.9752Z" fill="white"/>
</svg>
