<svg width="32" height="32" viewBox="0 0 32 32" fill="none" xmlns="http://www.w3.org/2000/svg">
<g clip-path="url(#clip0)">
<path d="M10 15C10 15.5933 9.82405 16.1734 9.49441 16.6667C9.16477 17.1601 8.69623 17.5446 8.14805 17.7716C7.59987 17.9987 6.99667 18.0581 6.41473 17.9424C5.83279 17.8266 5.29824 17.5409 4.87868 17.1213C4.45912 16.7018 4.1734 16.1672 4.05765 15.5853C3.94189 15.0033 4.0013 14.4001 4.22836 13.8519C4.45543 13.3038 4.83994 12.8352 5.33329 12.5056C5.82664 12.1759 6.40666 12 7 12C7.79565 12 8.55871 12.3161 9.12132 12.8787C9.68393 13.4413 10 14.2044 10 15V15ZM17 12C16.4067 12 15.8266 12.1759 15.3333 12.5056C14.8399 12.8352 14.4554 13.3038 14.2284 13.8519C14.0013 14.4001 13.9419 15.0033 14.0576 15.5853C14.1734 16.1672 14.4591 16.7018 14.8787 17.1213C15.2982 17.5409 15.8328 17.8266 16.4147 17.9424C16.9967 18.0581 17.5999 17.9987 18.1481 17.7716C18.6962 17.5446 19.1648 17.1601 19.4944 16.6667C19.8241 16.1734 20 15.5933 20 15C20 14.2044 19.6839 13.4413 19.1213 12.8787C18.5587 12.3161 17.7957 12 17 12ZM27 12C26.4067 12 25.8266 12.1759 25.3333 12.5056C24.8399 12.8352 24.4554 13.3038 24.2284 13.8519C24.0013 14.4001 23.9419 15.0033 24.0576 15.5853C24.1734 16.1672 24.4591 16.7018 24.8787 17.1213C25.2982 17.5409 25.8328 17.8266 26.4147 17.9424C26.9967 18.0581 27.5999 17.9987 28.1481 17.7716C28.6962 17.5446 29.1648 17.1601 29.4944 16.6667C29.8241 16.1734 30 15.5933 30 15C30 14.2044 29.6839 13.4413 29.1213 12.8787C28.5587 12.3161 27.7957 12 27 12Z" fill="#C5C5C5"/>
</g>
<defs>
<clipPath id="clip0">
<rect width="32" height="32" fill="white"/>
</clipPath>
</defs>
</svg>
