<svg width="28" height="28" viewBox="0 0 28 28" fill="none" xmlns="http://www.w3.org/2000/svg">
<path d="M16.8054 26.8333H11.3139L10.4783 22.655L6.89689 25.0426L2.95735 21.1031L5.34495 17.5217L1.16666 16.686V11.1946L5.34495 10.3589L2.95735 6.77751L6.89689 2.95735L10.4783 5.34495L11.3139 1.16666H16.8054L17.6411 5.34495L21.2225 2.95735L25.162 6.89689L22.7744 10.4783L26.9527 11.3139V16.8054L22.7744 17.6411L25.162 21.2225L21.2225 25.0426L17.6411 22.655L16.8054 26.8333ZM13.224 24.4457H14.8953L15.731 20.2674L17.5217 19.6705L20.9837 21.9387L22.0581 20.8643L19.7899 17.4023L20.3868 15.6116L24.5651 14.776V13.1046L20.3868 12.269L19.7899 10.4783L22.0581 7.01627L20.9837 5.94185L17.5217 8.21007L15.731 7.73255L14.8953 3.55425H13.224L12.3884 7.73255L10.717 8.32945L7.25503 6.06123L6.06123 7.13565L8.32945 10.5977L7.85193 12.3884L3.67363 13.224V14.8953L7.85193 15.731L8.44883 17.5217L6.06123 20.8643L7.13565 21.9387L10.717 19.6705L12.5077 20.2674L13.224 24.4457Z" fill="#F4F4F4"/>
<path d="M16.8054 26.8333H11.3139L10.4783 22.655L6.89689 25.0426L2.95735 21.1031L5.34495 17.5217L1.16666 16.686V11.1946L5.34495 10.3589L2.95735 6.77751L6.89689 2.95735L10.4783 5.34495L11.3139 1.16666H16.8054L17.6411 5.34495L21.2225 2.95735L25.162 6.89689L22.7744 10.4783L26.9527 11.3139V16.8054L22.7744 17.6411L25.162 21.2225L21.2225 25.0426L17.6411 22.655L16.8054 26.8333ZM13.224 24.4457H14.8953L15.731 20.2674L17.5217 19.6705L20.9837 21.9387L22.0581 20.8643L19.7899 17.4023L20.3868 15.6116L24.5651 14.776V13.1046L20.3868 12.269L19.7899 10.4783L22.0581 7.01627L20.9837 5.94185L17.5217 8.21007L15.731 7.73255L14.8953 3.55425H13.224L12.3884 7.73255L10.717 8.32945L7.25503 6.06123L6.06123 7.13565L8.32945 10.5977L7.85193 12.3884L3.67363 13.224V14.8953L7.85193 15.731L8.44883 17.5217L6.06123 20.8643L7.13565 21.9387L10.717 19.6705L12.5077 20.2674L13.224 24.4457Z" stroke="#F4F4F4"/>
<circle cx="14" cy="14" r="2.33333" fill="#F4F4F4"/>
</svg>
