<svg width="28" height="28" viewBox="0 0 28 28" fill="none" xmlns="http://www.w3.org/2000/svg">
<path d="M13.6 18.9583C10.519 18.9583 8.125 16.5643 8.125 13.4833C8.125 10.4058 10.5155 8.125 13.6 8.125C16.681 8.125 19.075 10.519 19.075 13.6C19.075 16.6775 16.6845 18.9583 13.6 18.9583ZM13.6 10.2083C11.7839 10.2083 10.2083 11.6614 10.2083 13.6C10.2083 15.5445 11.7901 16.875 13.6 16.875C15.4161 16.875 16.9917 15.4219 16.9917 13.4833C16.9917 11.5389 15.4099 10.2083 13.6 10.2083Z" fill="#C5C5C5" stroke="#2D2D2D" stroke-width="0.25"/>
<path d="M10.0307 21.896L6.61593 24.1725L2.91085 20.4674L5.18734 17.0527L5.29088 16.8974L5.10785 16.8608L1.125 16.0642V10.9025L5.10785 10.1059L5.29088 10.0693L5.18734 9.91399L2.91175 6.50061L6.6146 2.90996L10.0307 5.18734L10.186 5.29088L10.2226 5.10785L11.0191 1.125H16.1809L16.9774 5.10785L17.014 5.29088L17.1693 5.18734L20.5841 2.91085L24.2891 6.61593L22.0127 10.0307L21.9091 10.186L22.0921 10.2226L26.075 11.0191V16.1809L22.0921 16.9774L21.9091 17.014L22.0127 17.1693L24.2882 20.5827L20.5854 24.1734L17.1693 21.896L17.014 21.7925L16.9774 21.9755L16.1809 25.9583H11.0191L10.2226 21.9755L10.186 21.7925L10.0307 21.896ZM12.6601 23.7711L12.6779 23.875H12.7833H14.4167H14.5191L14.5392 23.7745L15.3417 19.7623L16.9655 19.2211L20.2982 21.4046L20.3832 21.4603L20.4551 21.3884L21.5051 20.3384L21.5769 20.2665L21.5212 20.1815L19.3377 16.8488L19.879 15.225L23.8912 14.4226L23.9917 14.4025V14.3V12.6667V12.5642L23.8912 12.5441L19.879 11.7417L19.3377 10.1179L21.5212 6.78517L21.5769 6.70015L21.5051 6.62828L20.4551 5.57828L20.3832 5.50641L20.2982 5.56211L16.9616 7.74816L15.3407 7.31592L14.5392 3.30882L14.5191 3.20833H14.4167H12.7833H12.6809L12.6608 3.30882L11.858 7.32275L10.3498 7.86137L7.0185 5.67878L6.93796 5.626L6.86638 5.69042L5.69971 6.74042L5.62002 6.81215L5.67878 6.90184L7.86483 10.2384L7.43259 11.8593L3.42549 12.6608L3.325 12.6809V12.7833V14.4167V14.5191L3.42549 14.5392L7.43769 15.3417L7.97795 16.9625L5.68162 20.1773L5.62007 20.2635L5.69495 20.3384L6.74494 21.3884L6.81569 21.4591L6.90021 21.4056L10.3501 19.2207L11.9728 19.7616L12.6601 23.7711Z" fill="#C5C5C5" stroke="#2D2D2D" stroke-width="0.25"/>
</svg>
