<svg width="24" height="24" viewBox="0 0 24 24" fill="none" xmlns="http://www.w3.org/2000/svg">
<path d="M3.84686 18.16L6.00152 14.928L5.84762 14.4663L2 13.5429V10.4648L5.84762 9.69524L6.00152 9.23353L3.84686 6.00152L6.00152 3.84686L9.23353 6.00152L9.69524 5.84762L10.4648 2H13.5429L14.3124 5.84762L14.7741 6.00152L18.0061 3.84686L20.1608 6.00152L18.0061 9.23353L18.16 9.69524L22.0076 10.4648V13.5429L18.16 14.3124L18.0061 14.7741L20.1608 18.0061L18.0061 20.1608L14.7741 18.0061L14.3124 18.3139L13.5429 22.1615H10.4648L9.69524 18.3139L9.23353 18.16L6.00152 20.3147L3.84686 18.16Z" stroke="#F4F4F4" stroke-width="1.33"/>
<circle cx="12" cy="12" r="3.335" stroke="#F4F4F4" stroke-width="1.33"/>
</svg>
