<svg width="28" height="28" viewBox="0 0 28 28" fill="none" xmlns="http://www.w3.org/2000/svg">
<path fill-rule="evenodd" clip-rule="evenodd" d="M3.53589 21.8975L6.29999 17.7513L6.10256 17.159L1.16666 15.9744V12.0257L6.10256 11.0385L6.29999 10.4462L3.53589 6.30001L6.29999 3.5359L10.4462 6.30001L11.0385 6.10257L12.0256 1.16667H15.9744L16.9615 6.10257L17.5539 6.30001L21.7 3.5359L24.4641 6.30001L21.7 10.4462L21.8974 11.0385L26.8333 12.0257V15.9744L21.8974 16.9616L21.7 17.5539L24.4641 21.7L21.7 24.4641L17.5539 21.7L16.9615 22.0949L15.9744 27.0308H12.0256L11.0385 22.0949L10.4462 21.8975L6.29999 24.6616L3.53589 21.8975ZM14 18.6667C16.5773 18.6667 18.6667 16.5773 18.6667 14C18.6667 11.4227 16.5773 9.33333 14 9.33333C11.4227 9.33333 9.33333 11.4227 9.33333 14C9.33333 16.5773 11.4227 18.6667 14 18.6667Z" fill="#F4F4F4"/>
</svg>
