<svg width="28" height="28" viewBox="0 0 28 28" fill="none" xmlns="http://www.w3.org/2000/svg">
<path d="M21.6623 16.3901L25 15.8339V12.1677L21.667 11.6114C21.5224 11.1482 21.3362 10.6991 21.1107 10.2694L23.075 7.51943L20.4821 4.92657L17.729 6.89243C17.5137 6.77929 17.3173 6.64257 17.0879 6.54829C16.8584 6.454 16.6164 6.41157 16.3901 6.33929L15.8339 3H12.1677L11.6114 6.333C11.1482 6.47757 10.6991 6.66375 10.2694 6.88929L7.51943 4.925L4.92657 7.51786L6.89243 10.271C6.77929 10.4863 6.64257 10.6827 6.54829 10.9121C6.454 11.1416 6.41157 11.3836 6.33929 11.6099L3 12.1661V15.8323L6.333 16.3886C6.4776 16.8518 6.66378 17.3009 6.88929 17.7306L4.925 20.4806L7.51786 23.0734L10.271 21.106C10.4863 21.2191 10.6827 21.3559 10.9121 21.4517C11.1416 21.5476 11.3836 21.5884 11.6099 21.6607L12.1661 25H15.8323L16.3886 21.667C16.8518 21.5224 17.3009 21.3362 17.7306 21.1107L20.4806 23.075L23.0734 20.4821L21.106 17.729C21.2191 17.5137 21.3559 17.3157 21.4501 17.0863C21.5444 16.8569 21.59 16.6227 21.6623 16.3901ZM14 17.476C13.3125 17.476 12.6405 17.2721 12.0688 16.8902C11.4972 16.5082 11.0517 15.9654 10.7886 15.3302C10.5255 14.6951 10.4567 13.9961 10.5908 13.3219C10.7249 12.6476 11.056 12.0282 11.5421 11.5421C12.0282 11.056 12.6476 10.7249 13.3219 10.5908C13.9961 10.4567 14.6951 10.5255 15.3302 10.7886C15.9654 11.0517 16.5082 11.4972 16.8902 12.0688C17.2721 12.6405 17.476 13.3125 17.476 14C17.476 14.9219 17.1098 15.806 16.4579 16.4579C15.806 17.1098 14.9219 17.476 14 17.476V17.476Z" fill="white"/>
</svg>
