<svg width="28" height="28" viewBox="0 0 28 28" fill="none" xmlns="http://www.w3.org/2000/svg">
<path d="M14 18.5417C10.919 18.5417 8.52499 16.1476 8.52499 13.0667C8.52499 9.98915 10.9155 7.70834 14 7.70834C17.081 7.70834 19.475 10.1024 19.475 13.1833C19.475 16.2609 17.0845 18.5417 14 18.5417ZM14 9.79168C12.1839 9.79168 10.6083 11.2447 10.6083 13.1833C10.6083 15.1278 12.1901 16.4583 14 16.4583C15.8161 16.4583 17.3917 15.0053 17.3917 13.0667C17.3917 11.1222 15.8099 9.79168 14 9.79168Z" fill="#C5C5C5" stroke="#2D2D2D" stroke-width="0.25"/>
<path d="M10.4307 21.4793L7.01592 23.7558L3.31084 20.0508L5.58733 16.636L5.69087 16.4807L5.50784 16.4441L1.52499 15.6475V10.4858L5.50784 9.68925L5.69087 9.65264L5.58733 9.49734L3.31174 6.08395L7.01459 2.49331L10.4307 4.77068L10.586 4.87422L10.6226 4.69119L11.4191 0.708344H16.5809L17.3774 4.69119L17.414 4.87422L17.5693 4.77068L20.9841 2.49419L24.6891 6.19927L22.4127 9.61401L22.3091 9.76931L22.4921 9.80592L26.475 10.6025V15.7642L22.4921 16.5608L22.3091 16.5974L22.4127 16.7527L24.6882 20.1661L20.9854 23.7567L17.5693 21.4793L17.414 21.3758L17.3774 21.5588L16.5809 25.5417H11.4191L10.6226 21.5588L10.586 21.3758L10.4307 21.4793ZM13.0601 23.3545L13.0779 23.4583H13.1833H14.8167H14.9191L14.9392 23.3579L15.7417 19.3457L17.3654 18.8044L20.6982 20.9879L20.7832 21.0436L20.855 20.9717L21.905 19.9217L21.9769 19.8499L21.9212 19.7648L19.7377 16.4321L20.279 14.8084L24.2912 14.0059L24.3917 13.9858V13.8833V12.25V12.1475L24.2912 12.1274L20.279 11.325L19.7377 9.70123L21.9212 6.36851L21.9769 6.28349L21.905 6.21162L20.855 5.16162L20.7832 5.08975L20.6982 5.14545L17.3616 7.3315L15.7407 6.89926L14.9392 2.89216L14.9191 2.79168H14.8167H13.1833H13.0809L13.0608 2.89216L12.258 6.9061L10.7498 7.44472L7.4185 5.26212L7.33795 5.20935L7.26637 5.27377L6.09971 6.32376L6.02001 6.39549L6.07877 6.48518L8.26482 9.82178L7.83258 11.4427L3.82548 12.2441L3.72499 12.2642V12.3667V14V14.1025L3.82548 14.1226L7.83768 14.925L8.37795 16.5458L6.08161 19.7607L6.02006 19.8469L6.09494 19.9217L7.14494 20.9717L7.21568 21.0425L7.30021 20.9889L10.7501 18.804L12.3728 19.3449L13.0601 23.3545Z" fill="#C5C5C5" stroke="#2D2D2D" stroke-width="0.25"/>
</svg>
