<svg width="28" height="28" viewBox="0 0 28 28" fill="none" xmlns="http://www.w3.org/2000/svg">
<path d="M4.48801 21.1867L7.00179 17.416L6.82223 16.8773L2.33334 15.8V12.2089L6.82223 11.3111L7.00179 10.7725L4.48801 7.00179L7.00179 4.48801L10.7725 7.00179L11.3111 6.82223L12.2089 2.33334H15.8L16.6978 6.82223L17.2365 7.00179L21.0071 4.48801L23.5209 7.00179L21.0071 10.7725L21.1867 11.3111L25.6756 12.2089V15.8L21.1867 16.6978L21.0071 17.2365L23.5209 21.0071L21.0071 23.5209L17.2365 21.0071L16.6978 21.3662L15.8 25.8551H12.2089L11.3111 21.3662L10.7725 21.1867L7.00179 23.7005L4.48801 21.1867Z" stroke="#F4F4F4" stroke-width="2.33333"/>
<circle cx="14" cy="14" r="1.16667" stroke="#F4F4F4" stroke-width="2.33333"/>
</svg>
