<svg width="28" height="28" viewBox="0 0 28 28" fill="none" xmlns="http://www.w3.org/2000/svg">
<path d="M14 18.5C13.11 18.5 12.24 18.2361 11.4999 17.7416C10.7599 17.2471 10.1831 16.5443 9.84254 15.7221C9.50195 14.8998 9.41283 13.995 9.58647 13.1221C9.7601 12.2492 10.1887 11.4474 10.818 10.818C11.4474 10.1887 12.2492 9.7601 13.1221 9.58647C13.995 9.41283 14.8998 9.50195 15.7221 9.84254C16.5443 10.1831 17.2471 10.7599 17.7416 11.4999C18.2361 12.24 18.5 13.11 18.5 14C18.5 15.1935 18.0259 16.3381 17.182 17.182C16.3381 18.0259 15.1935 18.5 14 18.5ZM14 11C13.4067 11 12.8266 11.1759 12.3333 11.5056C11.8399 11.8352 11.4554 12.3038 11.2284 12.852C11.0013 13.4001 10.9419 14.0033 11.0576 14.5853C11.1734 15.1672 11.4591 15.7018 11.8787 16.1213C12.2982 16.5409 12.8328 16.8266 13.4147 16.9424C13.9967 17.0581 14.5999 16.9987 15.1481 16.7716C15.6962 16.5446 16.1648 16.1601 16.4944 15.6667C16.8241 15.1734 17 14.5933 17 14C17 13.2044 16.6839 12.4413 16.1213 11.8787C15.5587 11.3161 14.7957 11 14 11V11Z" fill="white"/>
<path d="M24.5 11.885L20.861 11.1575L22.9205 8.072L19.928 5.0795L16.85 7.139L16.115 3.5H11.885L11.1575 7.139L8.072 5.0795L5.0795 8.0795L7.139 11.1575L3.5 11.885V16.115L7.139 16.85L5.0795 19.928L8.0795 22.9205L11.165 20.861L11.885 24.5H16.115L16.85 20.861L19.9355 22.9205L22.928 19.928L20.861 16.85L24.5 16.115V11.885ZM23 14.885L19.4615 15.593L18.986 16.733L20.99 19.733L19.7375 20.9855L16.7375 18.9815L15.5975 19.457L14.885 23H13.115L12.407 19.4615L11.267 18.986L8.267 20.99L7.0145 19.7375L9.0185 16.7375L8.543 15.5975L5 14.885V13.115L8.5385 12.407L9.014 11.267L7.01 8.267L8.2625 7.0145L11.2625 9.0185L12.4025 8.543L13.115 5H14.885L15.593 8.5385L16.733 9.014L19.733 7.01L20.9855 8.2625L18.9815 11.2625L19.457 12.4025L23 13.115V14.885Z" fill="white"/>
</svg>
