<svg width="28" height="28" viewBox="0 0 28 28" fill="none" xmlns="http://www.w3.org/2000/svg">
<path d="M22.2751 10.2165L24.8431 6.3615L24.856 6.34164L21.6401 3.12918L17.7811 5.70966L16.8648 1.16666H12.3124L11.3996 5.70966L7.54757 3.13969L7.53123 3.12918L4.33056 6.33697L4.31772 6.35333L6.89623 10.2165L2.35669 11.1253H2.33334V15.6812L6.89623 16.6028L4.32822 20.4449L4.31772 20.4648L7.52656 23.6668L7.54407 23.6843L11.4124 21.0991L12.3112 25.6433V25.6667H16.8636L17.7846 21.1003L21.6366 23.6703L21.6565 23.6831L24.8618 20.4648L22.2705 16.6098L26.81 15.6917H26.8333V11.1358L22.2751 10.2165ZM21.3471 15.59L20.9129 16.6309V16.6461L23.3642 20.3129L21.4965 22.182L17.8453 19.7417L17.8325 19.7324L16.7901 20.1669H16.7761L15.9065 24.4997H13.2696L12.407 20.1844V20.1693L11.3657 19.7347H11.3506L7.68648 22.1879L5.81884 20.3188L8.25845 16.6647L8.26662 16.6519L7.83239 15.6087V15.5947L3.50062 14.7221V12.0879L7.80788 11.2246H7.82422L8.25845 10.1826L8.26428 10.1674L5.813 6.50051L7.68064 4.63144L11.3319 7.07292L11.3447 7.08109L12.3859 6.64654H12.4011L13.2696 2.31146H15.9029L16.7644 6.62317V6.63836L17.8056 7.07292L17.8208 7.07876L21.4849 4.6256L23.3443 6.49351L20.9106 10.1475L20.9012 10.1604L21.3355 11.2024V11.2164L25.6649 12.0879V14.7233L21.3565 15.5854L21.3471 15.59Z" fill="#FAFAFA"/>
<path fill-rule="evenodd" clip-rule="evenodd" d="M14.5833 17.5C16.8385 17.5 18.6667 15.6718 18.6667 13.4167C18.6667 11.1615 16.8385 9.33332 14.5833 9.33332C12.3282 9.33332 10.5 11.1615 10.5 13.4167C10.5 15.6718 12.3282 17.5 14.5833 17.5ZM19.8333 13.4167C19.8333 16.3162 17.4828 18.6667 14.5833 18.6667C11.6838 18.6667 9.33334 16.3162 9.33334 13.4167C9.33334 10.5172 11.6838 8.16666 14.5833 8.16666C17.4828 8.16666 19.8333 10.5172 19.8333 13.4167Z" fill="#FAFAFA"/>
</svg>
