<svg width="28" height="28" viewBox="0 0 28 28" fill="none" xmlns="http://www.w3.org/2000/svg">
<path d="M14 19.25C12.9617 19.25 11.9466 18.9421 11.0833 18.3652C10.2199 17.7883 9.54699 16.9684 9.14963 16.0091C8.75227 15.0498 8.64831 13.9942 8.85088 12.9758C9.05345 11.9574 9.55347 11.0219 10.2877 10.2877C11.0219 9.55347 11.9574 9.05345 12.9758 8.85088C13.9942 8.64831 15.0498 8.75227 16.0091 9.14963C16.9684 9.54699 17.7883 10.2199 18.3652 11.0833C18.9421 11.9466 19.25 12.9617 19.25 14C19.25 15.3924 18.6969 16.7277 17.7123 17.7123C16.7277 18.6969 15.3924 19.25 14 19.25ZM14 10.5C13.3078 10.5 12.6311 10.7053 12.0555 11.0899C11.4799 11.4744 11.0313 12.0211 10.7664 12.6606C10.5015 13.3002 10.4322 14.0039 10.5673 14.6828C10.7023 15.3618 11.0356 15.9854 11.5251 16.4749C12.0146 16.9644 12.6383 17.2977 13.3172 17.4328C13.9961 17.5678 14.6999 17.4985 15.3394 17.2336C15.9789 16.9687 16.5256 16.5201 16.9101 15.9445C17.2947 15.3689 17.5 14.6922 17.5 14C17.5 13.0717 17.1313 12.1815 16.4749 11.5251C15.8185 10.8688 14.9283 10.5 14 10.5V10.5Z" fill="#C5C5C5"/>
<path d="M26.25 11.5325L22.0045 10.6838L24.4072 7.084L20.916 3.59275L17.325 5.9955L16.4675 1.75H11.5325L10.6838 5.9955L7.084 3.59275L3.59275 7.09275L5.9955 10.6838L1.75 11.5325V16.4675L5.9955 17.325L3.59275 20.916L7.09275 24.4072L10.6925 22.0045L11.5325 26.25H16.4675L17.325 22.0045L20.9247 24.4072L24.416 20.916L22.0045 17.325L26.25 16.4675V11.5325ZM24.5 15.0325L20.3717 15.8585L19.817 17.1885L22.155 20.6885L20.6937 22.1497L17.1937 19.8118L15.8637 20.3665L15.0325 24.5H12.9675L12.1415 20.3717L10.8115 19.817L7.3115 22.155L5.85025 20.6937L8.18825 17.1937L7.6335 15.8637L3.5 15.0325V12.9675L7.62825 12.1415L8.183 10.8115L5.845 7.3115L7.30625 5.85025L10.8063 8.18825L12.1362 7.6335L12.9675 3.5H15.0325L15.8585 7.62825L17.1885 8.183L20.6885 5.845L22.1497 7.30625L19.8118 10.8063L20.3665 12.1362L24.5 12.9675V15.0325Z" fill="#C5C5C5"/>
</svg>
