<svg width="32" height="32" viewBox="0 0 32 32" fill="none" xmlns="http://www.w3.org/2000/svg">
<path d="M16.0599 2.28571L2.28571 28.6363H29.7143L16.0599 2.28571ZM17.1379 10.67L16.8983 21.4498H14.9819L14.7423 10.67H17.1379ZM16.0599 26.2408C15.7006 26.2408 15.3412 26.121 14.9819 25.8815C14.7424 25.6419 14.5028 25.2826 14.5028 24.9233C14.5028 24.5639 14.6226 24.2046 14.9819 23.8453C15.2215 23.6057 15.5808 23.3662 16.0599 23.3662C16.4192 23.3662 16.7785 23.486 17.0181 23.8453C17.2576 24.0848 17.4972 24.4442 17.4972 24.9233C17.4972 25.2826 17.3774 25.6419 17.0181 25.8815C16.7785 26.121 16.4192 26.2408 16.0599 26.2408Z" fill="white"/>
</svg>
