<svg width="32" height="32" viewBox="0 0 32 32" fill="none" xmlns="http://www.w3.org/2000/svg">
<path fill-rule="evenodd" clip-rule="evenodd" d="M8.38076 4.59698C10.6361 3.09003 13.2876 2.28571 16 2.28571C19.6359 2.29017 23.1216 3.7365 25.6925 6.30746C28.2635 8.87842 29.7098 12.3641 29.7143 16C29.7143 18.7124 28.91 21.3639 27.403 23.6192C25.8961 25.8745 23.7542 27.6323 21.2482 28.6703C18.7423 29.7083 15.9848 29.9799 13.3245 29.4508C10.6642 28.9216 8.22052 27.6154 6.30255 25.6975C4.38457 23.7795 3.07841 21.3358 2.54924 18.6755C2.02007 16.0152 2.29166 13.2577 3.32966 10.7518C4.36767 8.2458 6.12546 6.10392 8.38076 4.59698ZM10.9361 9.10571L15.9999 14.1694L21.0636 9.10571L22.8938 10.9359L17.8449 15.9997L22.9097 21.0645L21.0627 22.8933L15.9999 17.8304L10.9361 22.8941L9.10567 21.0637L14.1694 15.9999L9.10567 10.9362L10.9361 9.10571Z" fill="white"/>
<path d="M16 2.28571L16.0002 2.16071H16V2.28571ZM8.38076 4.59698L8.45021 4.70091L8.45021 4.70091L8.38076 4.59698ZM25.6925 6.30746L25.6041 6.39585L25.6041 6.39585L25.6925 6.30746ZM29.7143 16L29.8393 16L29.8393 15.9998L29.7143 16ZM21.2482 28.6703L21.2961 28.7858L21.2961 28.7858L21.2482 28.6703ZM13.3245 29.4508L13.3489 29.3282L13.3489 29.3282L13.3245 29.4508ZM6.30255 25.6975L6.39094 25.6091L6.39094 25.6091L6.30255 25.6975ZM2.54924 18.6755L2.42664 18.6999L2.42664 18.6999L2.54924 18.6755ZM3.32966 10.7518L3.21418 10.7039L3.21418 10.7039L3.32966 10.7518ZM15.9999 14.1694L15.9115 14.2578L15.9999 14.3462L16.0883 14.2578L15.9999 14.1694ZM10.9361 9.10571L11.0245 9.01732L10.9361 8.92894L10.8478 9.01732L10.9361 9.10571ZM21.0636 9.10571L21.152 9.01732L21.0636 8.92894L20.9752 9.01732L21.0636 9.10571ZM22.8938 10.9359L22.9824 11.0242L23.0705 10.9358L22.9822 10.8475L22.8938 10.9359ZM17.8449 15.9997L17.7563 15.9114L17.6682 15.9998L17.7565 16.0881L17.8449 15.9997ZM22.9097 21.0645L22.9977 21.1534L23.087 21.065L22.9981 20.9762L22.9097 21.0645ZM21.0627 22.8933L20.9743 22.9816L21.0623 23.0696L21.1507 22.9821L21.0627 22.8933ZM15.9999 17.8304L16.0883 17.742L15.9999 17.6536L15.9115 17.742L15.9999 17.8304ZM10.9361 22.8941L10.8478 22.9825L10.9361 23.0709L11.0245 22.9825L10.9361 22.8941ZM9.10567 21.0637L9.01728 20.9753L8.92889 21.0637L9.01728 21.152L9.10567 21.0637ZM14.1694 15.9999L14.2578 16.0883L14.3462 15.9999L14.2578 15.9115L14.1694 15.9999ZM9.10567 10.9362L9.01728 10.8478L8.92889 10.9362L9.01728 11.0246L9.10567 10.9362ZM16 2.16071C13.2629 2.16071 10.5872 2.97237 8.31132 4.49305L8.45021 4.70091C10.685 3.2077 13.3123 2.41071 16 2.41071V2.16071ZM25.7809 6.21907C23.1866 3.62471 19.6691 2.16521 16.0002 2.16071L15.9999 2.41071C19.6026 2.41513 23.0566 3.84829 25.6041 6.39585L25.7809 6.21907ZM29.8393 15.9998C29.8348 12.3309 28.3753 8.81343 25.7809 6.21907L25.6041 6.39585C28.1517 8.9434 29.5849 12.3974 29.5893 16.0001L29.8393 15.9998ZM27.507 23.6887C29.0276 21.4128 29.8393 18.7371 29.8393 16H29.5893C29.5893 18.6877 28.7923 21.315 27.2991 23.5498L27.507 23.6887ZM21.2961 28.7858C23.8249 27.7384 25.9863 25.9645 27.507 23.6887L27.2991 23.5498C25.8059 25.7845 23.6835 27.5263 21.2004 28.5548L21.2961 28.7858ZM13.3001 29.5734C15.9847 30.1073 18.7673 29.8333 21.2961 28.7858L21.2004 28.5548C18.7173 29.5834 15.9849 29.8525 13.3489 29.3282L13.3001 29.5734ZM6.21416 25.7858C8.14962 27.7213 10.6155 29.0394 13.3001 29.5734L13.3489 29.3282C10.7128 28.8038 8.29143 27.5096 6.39094 25.6091L6.21416 25.7858ZM2.42664 18.6999C2.96064 21.3845 4.2787 23.8504 6.21416 25.7858L6.39094 25.6091C4.49044 23.7086 3.19619 21.2872 2.67184 18.6511L2.42664 18.6999ZM3.21418 10.7039C2.16672 13.2327 1.89265 16.0153 2.42664 18.6999L2.67184 18.6511C2.1475 16.0151 2.41661 13.2827 3.44515 10.7996L3.21418 10.7039ZM8.31132 4.49305C6.03546 6.01373 4.26164 8.17513 3.21418 10.7039L3.44515 10.7996C4.47369 8.31648 6.21546 6.19412 8.45021 4.70091L8.31132 4.49305ZM16.0883 14.0811L11.0245 9.01732L10.8478 9.1941L15.9115 14.2578L16.0883 14.0811ZM20.9752 9.01732L15.9115 14.0811L16.0883 14.2578L21.152 9.1941L20.9752 9.01732ZM22.9822 10.8475L21.152 9.01732L20.9752 9.1941L22.8054 11.0243L22.9822 10.8475ZM17.9334 16.0879L22.9824 11.0242L22.8053 10.8477L17.7563 15.9114L17.9334 16.0879ZM22.9981 20.9762L17.9333 15.9113L17.7565 16.0881L22.8214 21.1529L22.9981 20.9762ZM21.1507 22.9821L22.9977 21.1534L22.8218 20.9757L20.9748 22.8044L21.1507 22.9821ZM15.9115 17.9188L20.9743 22.9816L21.1511 22.8049L16.0883 17.742L15.9115 17.9188ZM11.0245 22.9825L16.0883 17.9188L15.9115 17.742L10.8478 22.8057L11.0245 22.9825ZM9.01728 21.152L10.8478 22.9825L11.0245 22.8057L9.19406 20.9753L9.01728 21.152ZM14.081 15.9115L9.01728 20.9753L9.19406 21.152L14.2578 16.0883L14.081 15.9115ZM9.01728 11.0246L14.081 16.0883L14.2578 15.9115L9.19406 10.8478L9.01728 11.0246ZM10.8478 9.01732L9.01728 10.8478L9.19406 11.0246L11.0245 9.1941L10.8478 9.01732Z" fill="white"/>
</svg>
