<svg width="32" height="32" viewBox="0 0 32 32" fill="none" xmlns="http://www.w3.org/2000/svg">
<path d="M26.0374 5.94557C23.8272 3.73926 20.9204 2.36749 17.8122 2.06394C14.704 1.7604 11.5867 2.54385 8.99135 4.28084C6.396 6.01782 4.48314 8.6009 3.57863 11.59C2.67412 14.5791 2.83392 17.7894 4.03081 20.6739C5.22769 23.5584 7.38762 25.9388 10.1426 27.4094C12.8977 28.8801 16.0774 29.3501 19.14 28.7394C22.2027 28.1286 24.9589 26.475 26.9391 24.0601C28.9193 21.6452 30.0011 18.6184 30 15.4955C29.9954 11.9131 28.5704 8.47882 26.0374 5.94557ZM21.4751 22.3052L16.4854 17.3156L11.4958 22.3052L9.67464 20.4851L14.6642 15.4955L9.67464 10.5059L11.4969 8.68777L16.4865 13.6774L21.4761 8.68777L23.2994 10.51L18.3243 15.4996L23.3139 20.4892L21.4751 22.3052Z" fill="white" stroke="white" stroke-width="0.25"/>
</svg>
