<svg width="32" height="32" viewBox="0 0 32 32" fill="none" xmlns="http://www.w3.org/2000/svg">
<path d="M16 2.28571C13.2876 2.28571 10.6361 3.09003 8.38076 4.59698C6.12546 6.10392 4.36767 8.2458 3.32966 10.7518C2.29166 13.2577 2.02007 16.0152 2.54924 18.6755C3.07841 21.3358 4.38457 23.7795 6.30255 25.6975C8.22052 27.6154 10.6642 28.9216 13.3245 29.4508C15.9848 29.9799 18.7423 29.7083 21.2482 28.6703C23.7542 27.6323 25.8961 25.8745 27.403 23.6192C28.91 21.3639 29.7143 18.7124 29.7143 16C29.7098 12.3641 28.2635 8.87842 25.6925 6.30746C23.1216 3.7365 19.6359 2.29017 16 2.28571Z" fill="white" stroke="white" stroke-width="0.25"/>
<path d="M17.4916 15.9999L22.5553 21.0637L21.0636 22.5406L15.9999 17.4768L10.9361 22.5406L9.45921 21.0637L14.5229 15.9999L9.45921 10.9362L10.9361 9.45926L15.9999 14.523L21.0636 9.45926L22.5405 10.9362L17.4916 15.9999Z" fill="#2D2D2D" stroke="#2D2D2D" stroke-width="0.5"/>
</svg>
