<svg width="28" height="28" viewBox="0 0 28 28" fill="none" xmlns="http://www.w3.org/2000/svg">
<path d="M9.29477 9.28619V21.0301V19.2994V19.2994C9.29477 17.6609 10.6231 16.3326 12.2616 16.3326H19.1622C20.2668 16.3326 21.1622 15.4371 21.1622 14.3325C21.1622 13.7762 21.1622 13.2274 21.1622 12.8712" stroke="#F4F4F4" stroke-width="2.33333" stroke-miterlimit="10"/>
<path d="M9.29471 26.7167C11.2064 26.7167 12.7561 25.1669 12.7561 23.2553C12.7561 21.3436 11.2064 19.7939 9.29471 19.7939C7.38305 19.7939 5.83334 21.3436 5.83334 23.2553C5.83334 25.1669 7.38305 26.7167 9.29471 26.7167Z" stroke="#F4F4F4" stroke-width="2.33333" stroke-miterlimit="10"/>
<path d="M9.29471 9.03895C11.2064 9.03895 12.7561 7.48924 12.7561 5.57758C12.7561 3.66592 11.2064 2.11621 9.29471 2.11621C7.38305 2.11621 5.83334 3.66592 5.83334 5.57758C5.83334 7.48924 7.38305 9.03895 9.29471 9.03895Z" stroke="#F4F4F4" stroke-width="2.33333" stroke-miterlimit="10"/>
<path d="M21.0386 12.6239C22.9503 12.6239 24.5 11.0742 24.5 9.16257C24.5 7.25091 22.9503 5.7012 21.0386 5.7012C19.127 5.7012 17.5773 7.25091 17.5773 9.16257C17.5773 11.0742 19.127 12.6239 21.0386 12.6239Z" stroke="#F4F4F4" stroke-width="2.33333" stroke-miterlimit="10"/>
</svg>
