<svg width="28" height="28" viewBox="0 0 28 28" fill="none" xmlns="http://www.w3.org/2000/svg">
<g clip-path="url(#clip0)">
<g clip-path="url(#clip1)">
<path d="M22.75 12.375C22.75 13.5353 22.2891 14.6481 21.4686 15.4686C20.6481 16.2891 19.5353 16.75 18.375 16.75H14C13.0717 16.75 12.1815 17.1187 11.5251 17.7751C10.8687 18.4315 10.5 19.3217 10.5 20.25H8.75V8H10.5V16.365C11.4567 15.4911 12.7043 15.0046 14 15H18.375C19.0712 15 19.7389 14.7234 20.2312 14.2312C20.7234 13.7389 21 13.0712 21 12.375H22.75Z" fill="#C5C5C5"/>
<path d="M9.625 1C8.75971 1 7.91385 1.25659 7.19438 1.73732C6.47492 2.21805 5.91416 2.90133 5.58303 3.70076C5.2519 4.50019 5.16526 5.37985 5.33407 6.22852C5.50288 7.07719 5.91956 7.85674 6.53141 8.46859C7.14326 9.08045 7.92281 9.49713 8.77148 9.66594C9.62015 9.83475 10.4998 9.74811 11.2992 9.41697C12.0987 9.08584 12.7819 8.52508 13.2627 7.80562C13.7434 7.08615 14 6.24029 14 5.375C14 4.21468 13.5391 3.10188 12.7186 2.28141C11.8981 1.46094 10.7853 1 9.625 1V1ZM9.625 8C9.10583 8 8.59831 7.84605 8.16663 7.55761C7.73495 7.26917 7.3985 6.8592 7.19982 6.37954C7.00114 5.89989 6.94915 5.37209 7.05044 4.86289C7.15173 4.35369 7.40173 3.88596 7.76885 3.51884C8.13596 3.15173 8.60369 2.90172 9.11289 2.80044C9.62209 2.69915 10.1499 2.75114 10.6295 2.94982C11.1092 3.1485 11.5192 3.48495 11.8076 3.91663C12.096 4.34831 12.25 4.85582 12.25 5.375C12.25 6.07119 11.9734 6.73887 11.4812 7.23115C10.9889 7.72344 10.3212 8 9.625 8Z" fill="#C5C5C5"/>
<path d="M9.625 18.5C8.75971 18.5 7.91385 18.7566 7.19438 19.2373C6.47492 19.7181 5.91416 20.4013 5.58303 21.2008C5.2519 22.0002 5.16526 22.8799 5.33407 23.7285C5.50288 24.5772 5.91956 25.3567 6.53141 25.9686C7.14326 26.5804 7.92281 26.9971 8.77148 27.1659C9.62015 27.3347 10.4998 27.2481 11.2992 26.917C12.0987 26.5858 12.7819 26.0251 13.2627 25.3056C13.7434 24.5862 14 23.7403 14 22.875C14 21.7147 13.5391 20.6019 12.7186 19.7814C11.8981 18.9609 10.7853 18.5 9.625 18.5ZM9.625 25.5C9.10583 25.5 8.59831 25.346 8.16663 25.0576C7.73495 24.7692 7.3985 24.3592 7.19982 23.8795C7.00114 23.3999 6.94915 22.8721 7.05044 22.3629C7.15173 21.8537 7.40173 21.386 7.76885 21.0188C8.13596 20.6517 8.60369 20.4017 9.11289 20.3004C9.62209 20.1992 10.1499 20.2511 10.6295 20.4498C11.1092 20.6485 11.5192 20.9849 11.8076 21.4166C12.096 21.8483 12.25 22.3558 12.25 22.875C12.25 23.5712 11.9734 24.2389 11.4812 24.7312C10.9889 25.2234 10.3212 25.5 9.625 25.5V25.5Z" fill="#C5C5C5"/>
<path d="M21.875 4.5C21.0097 4.5 20.1638 4.75659 19.4444 5.23732C18.7249 5.71805 18.1642 6.40133 17.833 7.20076C17.5019 8.00019 17.4153 8.87985 17.5841 9.72852C17.7529 10.5772 18.1696 11.3567 18.7814 11.9686C19.3933 12.5804 20.1728 12.9971 21.0215 13.1659C21.8701 13.3347 22.7498 13.2481 23.5492 12.917C24.3487 12.5858 25.0319 12.0251 25.5127 11.3056C25.9934 10.5862 26.25 9.74029 26.25 8.875C26.25 7.71468 25.7891 6.60188 24.9686 5.78141C24.1481 4.96094 23.0353 4.5 21.875 4.5V4.5ZM21.875 11.5C21.3558 11.5 20.8483 11.346 20.4166 11.0576C19.985 10.7692 19.6485 10.3592 19.4498 9.87954C19.2511 9.39989 19.1992 8.87209 19.3004 8.36289C19.4017 7.85369 19.6517 7.38596 20.0188 7.01884C20.386 6.65173 20.8537 6.40172 21.3629 6.30044C21.8721 6.19915 22.3999 6.25114 22.8795 6.44982C23.3592 6.6485 23.7692 6.98495 24.0576 7.41663C24.346 7.84831 24.5 8.35582 24.5 8.875C24.5 9.57119 24.2234 10.2389 23.7312 10.7312C23.2389 11.2234 22.5712 11.5 21.875 11.5V11.5Z" fill="#C5C5C5"/>
</g>
</g>
<defs>
<clipPath id="clip0">
<rect width="28" height="28" fill="white"/>
</clipPath>
<clipPath id="clip1">
<rect width="28" height="28" fill="white" transform="translate(0 1)"/>
</clipPath>
</defs>
</svg>
