<svg width="28" height="28" viewBox="0 0 28 28" fill="none" xmlns="http://www.w3.org/2000/svg">
<g clip-path="url(#clip0)">
<path d="M21.5 11.75C21.5 12.7446 21.1049 13.6984 20.4016 14.4016C19.6984 15.1049 18.7446 15.5 17.75 15.5H14C13.2043 15.5 12.4413 15.8161 11.8787 16.3787C11.3161 16.9413 11 17.7043 11 18.5H9.5V8H11V15.17C11.82 14.421 12.8894 14.0039 14 14H17.75C18.3467 14 18.919 13.7629 19.341 13.341C19.7629 12.919 20 12.3467 20 11.75H21.5Z" fill="white"/>
<path d="M10.25 2C9.50832 2 8.7833 2.21993 8.16661 2.63199C7.54993 3.04404 7.06928 3.62971 6.78545 4.31494C6.50162 5.00016 6.42736 5.75416 6.57206 6.48159C6.71675 7.20902 7.0739 7.8772 7.59835 8.40165C8.1228 8.9261 8.79098 9.28325 9.51841 9.42794C10.2458 9.57264 10.9998 9.49838 11.6851 9.21455C12.3703 8.93072 12.956 8.45007 13.368 7.83339C13.7801 7.2167 14 6.49168 14 5.75C14 4.75544 13.6049 3.80161 12.9017 3.09835C12.1984 2.39509 11.2446 2 10.25 2V2ZM10.25 8C9.80499 8 9.36998 7.86804 8.99997 7.62081C8.62996 7.37357 8.34157 7.02217 8.17127 6.61104C8.00098 6.1999 7.95642 5.7475 8.04323 5.31105C8.13005 4.87459 8.34434 4.47368 8.65901 4.15901C8.97368 3.84434 9.37459 3.63005 9.81105 3.54323C10.2475 3.45642 10.6999 3.50097 11.111 3.67127C11.5222 3.84157 11.8736 4.12996 12.1208 4.49997C12.368 4.86998 12.5 5.30499 12.5 5.75C12.5 6.34674 12.2629 6.91903 11.841 7.34099C11.419 7.76295 10.8467 8 10.25 8Z" fill="white"/>
<path d="M10.25 17C9.50832 17 8.7833 17.2199 8.16661 17.632C7.54993 18.044 7.06928 18.6297 6.78545 19.3149C6.50162 20.0002 6.42736 20.7542 6.57206 21.4816C6.71675 22.209 7.0739 22.8772 7.59835 23.4017C8.1228 23.9261 8.79098 24.2833 9.51841 24.4279C10.2458 24.5726 10.9998 24.4984 11.6851 24.2145C12.3703 23.9307 12.956 23.4501 13.368 22.8334C13.7801 22.2167 14 21.4917 14 20.75C14 19.7554 13.6049 18.8016 12.9017 18.0983C12.1984 17.3951 11.2446 17 10.25 17ZM10.25 23C9.80499 23 9.36998 22.868 8.99997 22.6208C8.62996 22.3736 8.34157 22.0222 8.17127 21.611C8.00098 21.1999 7.95642 20.7475 8.04323 20.311C8.13005 19.8746 8.34434 19.4737 8.65901 19.159C8.97368 18.8443 9.37459 18.63 9.81105 18.5432C10.2475 18.4564 10.6999 18.501 11.111 18.6713C11.5222 18.8416 11.8736 19.13 12.1208 19.5C12.368 19.87 12.5 20.305 12.5 20.75C12.5 21.3467 12.2629 21.919 11.841 22.341C11.419 22.7629 10.8467 23 10.25 23V23Z" fill="white"/>
<path d="M20.75 5C20.0083 5 19.2833 5.21993 18.6666 5.63199C18.0499 6.04404 17.5693 6.62971 17.2855 7.31494C17.0016 8.00016 16.9274 8.75416 17.0721 9.48159C17.2168 10.209 17.5739 10.8772 18.0984 11.4016C18.6228 11.9261 19.291 12.2832 20.0184 12.4279C20.7458 12.5726 21.4998 12.4984 22.1851 12.2145C22.8703 11.9307 23.456 11.4501 23.868 10.8334C24.2801 10.2167 24.5 9.49168 24.5 8.75C24.5 7.75544 24.1049 6.80161 23.4017 6.09835C22.6984 5.39509 21.7446 5 20.75 5V5ZM20.75 11C20.305 11 19.87 10.868 19.5 10.6208C19.13 10.3736 18.8416 10.0222 18.6713 9.61104C18.501 9.1999 18.4564 8.7475 18.5432 8.31105C18.6301 7.87459 18.8443 7.47368 19.159 7.15901C19.4737 6.84434 19.8746 6.63005 20.311 6.54323C20.7475 6.45642 21.1999 6.50097 21.611 6.67127C22.0222 6.84157 22.3736 7.12996 22.6208 7.49997C22.868 7.86998 23 8.30499 23 8.75C23 9.34674 22.7629 9.91903 22.341 10.341C21.919 10.7629 21.3467 11 20.75 11V11Z" fill="white"/>
</g>
<defs>
<clipPath id="clip0">
<rect width="24" height="24" fill="white" transform="translate(2 2)"/>
</clipPath>
</defs>
</svg>
