<svg width="28" height="28" viewBox="0 0 28 28" fill="none" xmlns="http://www.w3.org/2000/svg">
<g clip-path="url(#clip0)">
<path fill-rule="evenodd" clip-rule="evenodd" d="M20 0C17.78 0 16 1.78 16 4C16 5.46 16.82 6.76 18 7.44V10L14 14L10 10V7.44C11.18 6.76 12 5.48 12 4C12 1.78 10.22 0 8 0C5.78 0 4 1.78 4 4C4 5.46 4.82 6.76 6 7.44V11L12 17V20.56C10.82 21.24 10 22.52 10 24C10 26.22 11.78 28 14 28C16.22 28 18 26.22 18 24C18 22.54 17.18 21.24 16 20.56V17L22 11V7.44C23.18 6.76 24 5.48 24 4C24 1.78 22.22 0 20 0V0ZM8 6.4C6.68 6.4 5.6 5.3 5.6 4C5.6 2.7 6.7 1.6 8 1.6C9.3 1.6 10.4 2.7 10.4 4C10.4 5.3 9.3 6.4 8 6.4ZM14 26.4C12.68 26.4 11.6 25.3 11.6 24C11.6 22.7 12.7 21.6 14 21.6C15.3 21.6 16.4 22.7 16.4 24C16.4 25.3 15.3 26.4 14 26.4V26.4ZM20 6.4C18.68 6.4 17.6 5.3 17.6 4C17.6 2.7 18.7 1.6 20 1.6C21.3 1.6 22.4 2.7 22.4 4C22.4 5.3 21.3 6.4 20 6.4Z" fill="white"/>
</g>
<defs>
<clipPath id="clip0">
<rect width="28" height="28" fill="white"/>
</clipPath>
</defs>
</svg>
