<svg width="28" height="28" viewBox="0 0 28 28" fill="none" xmlns="http://www.w3.org/2000/svg">
<path d="M7.93332 9.09998V20.1833V18.55V18.55C7.93332 17.0036 9.18691 15.75 10.7333 15.75H17.1332C18.2378 15.75 19.1332 14.8545 19.1332 13.7499C19.1332 13.2642 19.1332 12.7955 19.1332 12.4833" stroke="#F4F4F4" stroke-width="2.33333" stroke-miterlimit="10"/>
<path d="M7.93332 25.55C9.73745 25.55 11.2 24.0875 11.2 22.2833C11.2 20.4792 9.73745 19.0167 7.93332 19.0167C6.12919 19.0167 4.66666 20.4792 4.66666 22.2833C4.66666 24.0875 6.12919 25.55 7.93332 25.55Z" stroke="#F4F4F4" stroke-width="2.33333" stroke-miterlimit="10"/>
<path d="M7.93332 8.86668C9.73745 8.86668 11.2 7.40414 11.2 5.60001C11.2 3.79588 9.73745 2.33334 7.93332 2.33334C6.12919 2.33334 4.66666 3.79588 4.66666 5.60001C4.66666 7.40414 6.12919 8.86668 7.93332 8.86668Z" stroke="#F4F4F4" stroke-width="2.33333" stroke-miterlimit="10"/>
<path d="M19.0167 12.25C20.8208 12.25 22.2833 10.7875 22.2833 8.98334C22.2833 7.17921 20.8208 5.71667 19.0167 5.71667C17.2125 5.71667 15.75 7.17921 15.75 8.98334C15.75 10.7875 17.2125 12.25 19.0167 12.25Z" stroke="#F4F4F4" stroke-width="2.33333" stroke-miterlimit="10"/>
</svg>
