<svg width="28" height="28" viewBox="0 0 28 28" fill="none" xmlns="http://www.w3.org/2000/svg">
<g clip-path="url(#clip0)">
<path d="M7.616 8.83167V19.5872" stroke="#F4F4F5" stroke-miterlimit="10"/>
<path d="M11.109 5.25C11.1078 5.94088 10.9019 6.61591 10.5172 7.18978C10.1325 7.76365 9.58633 8.2106 8.94768 8.47414C8.30904 8.73767 7.6066 8.80597 6.92915 8.67039C6.2517 8.53482 5.62965 8.20146 5.14161 7.71244C4.65358 7.22342 4.32146 6.60071 4.18724 5.92299C4.05302 5.24527 4.12272 4.54297 4.38754 3.90485C4.65235 3.26674 5.10039 2.72145 5.67503 2.3379C6.24967 1.95436 6.92511 1.74977 7.616 1.75C8.07525 1.75015 8.52997 1.84084 8.95415 2.01687C9.37832 2.1929 9.76364 2.45083 10.0881 2.77589C10.4125 3.10096 10.6696 3.48679 10.8448 3.91132C11.02 4.33585 11.1098 4.79075 11.109 5.25V5.25Z" stroke="#F4F4F5" stroke-miterlimit="10"/>
<path d="M11.1183 22.75C11.1183 23.4422 10.9131 24.1189 10.5285 24.6945C10.1439 25.2701 9.59728 25.7187 8.95774 25.9836C8.3182 26.2485 7.61447 26.3178 6.93553 26.1827C6.2566 26.0477 5.63296 25.7144 5.14347 25.2249C4.65399 24.7354 4.32065 24.1118 4.1856 23.4328C4.05055 22.7539 4.11986 22.0501 4.38477 21.4106C4.64968 20.7711 5.09828 20.2244 5.67385 19.8399C6.24943 19.4553 6.92611 19.25 7.61835 19.25C8.54661 19.25 9.43684 19.6187 10.0932 20.2751C10.7496 20.9315 11.1183 21.8217 11.1183 22.75Z" stroke="#F4F4F5" stroke-miterlimit="10"/>
<path d="M23.8875 8.7395C23.8875 9.43174 23.6822 10.1084 23.2977 10.684C22.9131 11.2596 22.3664 11.7082 21.7269 11.9731C21.0874 12.238 20.3836 12.3073 19.7047 12.1723C19.0258 12.0372 18.4021 11.7039 17.9126 11.2144C17.4232 10.7249 17.0898 10.1013 16.9548 9.42232C16.8197 8.74338 16.889 8.03965 17.1539 7.40011C17.4188 6.76057 17.8674 6.21394 18.443 5.82936C19.0186 5.44477 19.6953 5.2395 20.3875 5.2395C21.3158 5.2395 22.206 5.60825 22.8624 6.26463C23.5188 6.92101 23.8875 7.81124 23.8875 8.7395Z" stroke="#F4F4F5" stroke-miterlimit="10"/>
<path d="M7.57516 19.3002L7.798 19.2628L7.91466 18.3528C8.14637 17.4284 8.67965 16.6075 9.43017 16.0201C10.1807 15.4327 11.1056 15.1123 12.0587 15.1095H15.897C16.6998 15.1074 17.4782 14.8331 18.1049 14.3312C18.7315 13.8294 19.1694 13.1298 19.3468 12.3468L19.4343 11.9968" stroke="#F4F4F4"/>
</g>
<defs>
<clipPath id="clip0">
<rect width="28" height="28" fill="white"/>
</clipPath>
</defs>
</svg>
