<svg width="28" height="28" viewBox="0 0 28 28" fill="none" xmlns="http://www.w3.org/2000/svg">
<path d="M8.26666 8.76666V19.85V18.2167V18.2167C8.26666 16.6703 9.52026 15.4167 11.0666 15.4167H17.4666C18.5711 15.4167 19.4666 14.5211 19.4666 13.4166C19.4666 12.9309 19.4666 12.4622 19.4666 12.15" stroke="white" stroke-width="2" stroke-miterlimit="10"/>
<path d="M8.2667 25.2167C10.0708 25.2167 11.5334 23.7541 11.5334 21.95C11.5334 20.1459 10.0708 18.6833 8.2667 18.6833C6.46257 18.6833 5.00003 20.1459 5.00003 21.95C5.00003 23.7541 6.46257 25.2167 8.2667 25.2167Z" stroke="white" stroke-width="2" stroke-miterlimit="10"/>
<path d="M8.26667 8.53333C10.0708 8.53333 11.5333 7.0708 11.5333 5.26667C11.5333 3.46254 10.0708 2 8.26667 2C6.46254 2 5 3.46254 5 5.26667C5 7.0708 6.46254 8.53333 8.26667 8.53333Z" stroke="white" stroke-width="2" stroke-miterlimit="10"/>
<path d="M19.35 11.9167C21.1541 11.9167 22.6167 10.4541 22.6167 8.65C22.6167 6.84587 21.1541 5.38333 19.35 5.38333C17.5459 5.38333 16.0833 6.84587 16.0833 8.65C16.0833 10.4541 17.5459 11.9167 19.35 11.9167Z" stroke="white" stroke-width="2" stroke-miterlimit="10"/>
</svg>
