<svg width="24" height="24" viewBox="0 0 24 24" fill="none" xmlns="http://www.w3.org/2000/svg">
<path d="M7.96695 7.95959V18.0258V16.5424V16.5424C7.96695 15.1379 9.1055 13.9993 10.51 13.9993H16.1391C17.2436 13.9993 18.1391 13.1038 18.1391 11.9992C18.1391 11.6255 18.1391 11.2764 18.1391 11.0325" stroke="#F4F4F4" stroke-width="2" stroke-miterlimit="10"/>
<path d="M7.96689 22.9C9.60545 22.9 10.9338 21.5717 10.9338 19.9331C10.9338 18.2945 9.60545 16.9662 7.96689 16.9662C6.32832 16.9662 5 18.2945 5 19.9331C5 21.5717 6.32832 22.9 7.96689 22.9Z" stroke="#F4F4F4" stroke-width="2" stroke-miterlimit="10"/>
<path d="M7.96689 7.74768C9.60545 7.74768 10.9338 6.41936 10.9338 4.78079C10.9338 3.14222 9.60545 1.8139 7.96689 1.8139C6.32832 1.8139 5 3.14222 5 4.78079C5 6.41936 6.32832 7.74768 7.96689 7.74768Z" stroke="#F4F4F4" stroke-width="2" stroke-miterlimit="10"/>
<path d="M18.0331 10.8205C19.6717 10.8205 21 9.4922 21 7.85364C21 6.21507 19.6717 4.88675 18.0331 4.88675C16.3945 4.88675 15.0662 6.21507 15.0662 7.85364C15.0662 9.4922 16.3945 10.8205 18.0331 10.8205Z" stroke="#F4F4F4" stroke-width="2" stroke-miterlimit="10"/>
</svg>
