<svg width="28" height="28" viewBox="0 0 28 28" fill="none" xmlns="http://www.w3.org/2000/svg">
<g clip-path="url(#clip0)">
<path d="M22.75 11.375C22.75 12.5353 22.2891 13.6481 21.4686 14.4686C20.6481 15.2891 19.5353 15.75 18.375 15.75H14C13.0717 15.75 12.1815 16.1187 11.5251 16.7751C10.8687 17.4315 10.5 18.3217 10.5 19.25H8.75V7H10.5V15.365C11.4567 14.4911 12.7043 14.0046 14 14H18.375C19.0712 14 19.7389 13.7234 20.2312 13.2312C20.7234 12.7389 21 12.0712 21 11.375H22.75Z" fill="#C5C5C5"/>
<path d="M9.625 0C8.75971 0 7.91385 0.256589 7.19438 0.73732C6.47492 1.21805 5.91416 1.90133 5.58303 2.70076C5.2519 3.50019 5.16526 4.37985 5.33407 5.22852C5.50288 6.07719 5.91956 6.85674 6.53141 7.46859C7.14326 8.08045 7.92281 8.49713 8.77148 8.66594C9.62015 8.83475 10.4998 8.74811 11.2992 8.41697C12.0987 8.08584 12.7819 7.52508 13.2627 6.80562C13.7434 6.08615 14 5.24029 14 4.375C14 3.21468 13.5391 2.10188 12.7186 1.28141C11.8981 0.460936 10.7853 0 9.625 0V0ZM9.625 7C9.10583 7 8.59831 6.84605 8.16663 6.55761C7.73495 6.26917 7.3985 5.8592 7.19982 5.37954C7.00114 4.89989 6.94915 4.37209 7.05044 3.86289C7.15173 3.35369 7.40173 2.88596 7.76885 2.51884C8.13596 2.15173 8.60369 1.90172 9.11289 1.80044C9.62209 1.69915 10.1499 1.75114 10.6295 1.94982C11.1092 2.1485 11.5192 2.48495 11.8076 2.91663C12.096 3.34831 12.25 3.85582 12.25 4.375C12.25 5.07119 11.9734 5.73887 11.4812 6.23115C10.9889 6.72344 10.3212 7 9.625 7Z" fill="#C5C5C5"/>
<path d="M9.625 17.5C8.75971 17.5 7.91385 17.7566 7.19438 18.2373C6.47492 18.7181 5.91416 19.4013 5.58303 20.2008C5.2519 21.0002 5.16526 21.8799 5.33407 22.7285C5.50288 23.5772 5.91956 24.3567 6.53141 24.9686C7.14326 25.5804 7.92281 25.9971 8.77148 26.1659C9.62015 26.3347 10.4998 26.2481 11.2992 25.917C12.0987 25.5858 12.7819 25.0251 13.2627 24.3056C13.7434 23.5862 14 22.7403 14 21.875C14 20.7147 13.5391 19.6019 12.7186 18.7814C11.8981 17.9609 10.7853 17.5 9.625 17.5ZM9.625 24.5C9.10583 24.5 8.59831 24.346 8.16663 24.0576C7.73495 23.7692 7.3985 23.3592 7.19982 22.8795C7.00114 22.3999 6.94915 21.8721 7.05044 21.3629C7.15173 20.8537 7.40173 20.386 7.76885 20.0188C8.13596 19.6517 8.60369 19.4017 9.11289 19.3004C9.62209 19.1992 10.1499 19.2511 10.6295 19.4498C11.1092 19.6485 11.5192 19.9849 11.8076 20.4166C12.096 20.8483 12.25 21.3558 12.25 21.875C12.25 22.5712 11.9734 23.2389 11.4812 23.7312C10.9889 24.2234 10.3212 24.5 9.625 24.5V24.5Z" fill="#C5C5C5"/>
<path d="M21.875 3.5C21.0097 3.5 20.1638 3.75659 19.4444 4.23732C18.7249 4.71805 18.1642 5.40133 17.833 6.20076C17.5019 7.00019 17.4153 7.87985 17.5841 8.72852C17.7529 9.57719 18.1696 10.3567 18.7814 10.9686C19.3933 11.5804 20.1728 11.9971 21.0215 12.1659C21.8701 12.3347 22.7498 12.2481 23.5492 11.917C24.3487 11.5858 25.0319 11.0251 25.5127 10.3056C25.9934 9.58615 26.25 8.74029 26.25 7.875C26.25 6.71468 25.7891 5.60188 24.9686 4.78141C24.1481 3.96094 23.0353 3.5 21.875 3.5V3.5ZM21.875 10.5C21.3558 10.5 20.8483 10.346 20.4166 10.0576C19.985 9.76917 19.6485 9.3592 19.4498 8.87954C19.2511 8.39989 19.1992 7.87209 19.3004 7.36289C19.4017 6.85369 19.6517 6.38596 20.0188 6.01884C20.386 5.65173 20.8537 5.40172 21.3629 5.30044C21.8721 5.19915 22.3999 5.25114 22.8795 5.44982C23.3592 5.6485 23.7692 5.98495 24.0576 6.41663C24.346 6.84831 24.5 7.35582 24.5 7.875C24.5 8.57119 24.2234 9.23887 23.7312 9.73116C23.2389 10.2234 22.5712 10.5 21.875 10.5V10.5Z" fill="#C5C5C5"/>
</g>
<defs>
<clipPath id="clip0">
<rect width="28" height="28" fill="white"/>
</clipPath>
</defs>
</svg>
