<svg width="24" height="24" viewBox="0 0 24 24" fill="none" xmlns="http://www.w3.org/2000/svg">
<path d="M6.52802 7.57001V16.789" stroke="#F4F4F5" stroke-width="1.33" stroke-miterlimit="10"/>
<path d="M9.52201 4.5C9.52102 5.09218 9.3445 5.67078 9.01476 6.16267C8.68502 6.65456 8.21686 7.03766 7.66946 7.26355C7.12205 7.48944 6.51996 7.54797 5.93929 7.43177C5.35862 7.31556 4.82543 7.02982 4.40711 6.61066C3.98879 6.19151 3.70412 5.65775 3.58908 5.07685C3.47403 4.49594 3.53378 3.89397 3.76076 3.34702C3.98774 2.80006 4.37178 2.33267 4.86433 2.00392C5.35687 1.67516 5.93583 1.4998 6.52801 1.5C6.92166 1.50013 7.31141 1.57786 7.675 1.72875C8.03858 1.87963 8.36885 2.10071 8.64692 2.37934C8.92499 2.65796 9.14541 2.98868 9.29556 3.35256C9.44572 3.71644 9.52267 4.10635 9.52201 4.5V4.5Z" stroke="#F4F4F5" stroke-width="1.33" stroke-miterlimit="10"/>
<path d="M9.53 19.5C9.53 20.0933 9.35405 20.6734 9.02441 21.1667C8.69477 21.6601 8.22623 22.0446 7.67805 22.2716C7.12987 22.4987 6.52667 22.5581 5.94473 22.4424C5.36279 22.3266 4.82824 22.0409 4.40868 21.6213C3.98912 21.2018 3.7034 20.6672 3.58764 20.0853C3.47189 19.5033 3.5313 18.9001 3.75836 18.3519C3.98542 17.8038 4.36994 17.3352 4.86329 17.0056C5.35664 16.6759 5.93666 16.5 6.53 16.5C7.32565 16.5 8.08871 16.8161 8.65132 17.3787C9.21393 17.9413 9.53 18.7044 9.53 19.5Z" stroke="#F4F4F5" stroke-width="1.33" stroke-miterlimit="10"/>
<path d="M20.475 7.491C20.475 8.08434 20.2991 8.66436 19.9694 9.15771C19.6398 9.65106 19.1712 10.0356 18.6231 10.2626C18.0749 10.4897 17.4717 10.5491 16.8897 10.4334C16.3078 10.3176 15.7732 10.0319 15.3537 9.61232C14.9341 9.19276 14.6484 8.65821 14.5327 8.07627C14.4169 7.49433 14.4763 6.89113 14.7034 6.34295C14.9304 5.79477 15.3149 5.32623 15.8083 4.99659C16.3016 4.66694 16.8817 4.491 17.475 4.491C18.2707 4.491 19.0337 4.80707 19.5963 5.36968C20.1589 5.93229 20.475 6.69535 20.475 7.491Z" stroke="#F4F4F5" stroke-width="1.33" stroke-miterlimit="10"/>
<path d="M6.49301 16.543L6.68401 16.511L6.78401 15.731C6.98262 14.9386 7.43972 14.235 8.08302 13.7315C8.72632 13.2281 9.51911 12.9534 10.336 12.951H13.626C14.3141 12.9492 14.9813 12.714 15.5185 12.2839C16.0556 11.8538 16.4309 11.2541 16.583 10.583L16.658 10.283" stroke="#F4F4F4" stroke-width="1.33"/>
</svg>
