<svg width="28" height="28" viewBox="0 0 28 28" fill="none" xmlns="http://www.w3.org/2000/svg">
<path fill-rule="evenodd" clip-rule="evenodd" d="M8.36813 9.00793H10.4303V15.3C10.9827 15.0024 11.6147 14.8335 12.2862 14.8335H18.8849C19.4543 14.8335 19.916 14.3718 19.916 13.8023V12.4964H21.9781V13.8023C21.9781 15.5105 20.5933 16.8956 18.8849 16.8956H12.2862C11.2612 16.8956 10.4303 17.7265 10.4303 18.7515V20.4356H8.36813V9.00793Z" fill="#C5C5C5"/>
<path fill-rule="evenodd" clip-rule="evenodd" d="M9.39924 20.2637C8.10851 20.2637 7.06216 21.3101 7.06216 22.6008C7.06216 23.8915 8.1085 24.9379 9.39924 24.9379C10.69 24.9379 11.7363 23.8915 11.7363 22.6008C11.7363 21.3101 10.69 20.2637 9.39924 20.2637ZM5.00003 22.6008C5.00003 20.1712 6.96962 18.2016 9.39924 18.2016C11.8289 18.2016 13.7984 20.1712 13.7984 22.6008C13.7984 25.0304 11.8289 27 9.39924 27C6.96962 27 5.00003 25.0304 5.00003 22.6008Z" fill="#C5C5C5"/>
<path fill-rule="evenodd" clip-rule="evenodd" d="M9.39921 3.06213C8.10847 3.06213 7.06213 4.10847 7.06213 5.39921C7.06213 6.68994 8.10847 7.73629 9.39921 7.73629C10.6899 7.73629 11.7363 6.68994 11.7363 5.39921C11.7363 4.10847 10.6899 3.06213 9.39921 3.06213ZM5 5.39921C5 2.96959 6.96959 1 9.39921 1C11.8288 1 13.7984 2.96959 13.7984 5.39921C13.7984 7.82882 11.8288 9.79841 9.39921 9.79841C6.96959 9.79841 5 7.82882 5 5.39921Z" fill="#C5C5C5"/>
<path fill-rule="evenodd" clip-rule="evenodd" d="M20.8268 6.55056C19.5361 6.55056 18.4897 7.59691 18.4897 8.88764C18.4897 10.1784 19.5361 11.2247 20.8268 11.2247C22.1176 11.2247 23.1639 10.1784 23.1639 8.88764C23.1639 7.59691 22.1176 6.55056 20.8268 6.55056ZM16.4276 8.88764C16.4276 6.45803 18.3972 4.48843 20.8268 4.48843C23.2564 4.48843 25.226 6.45803 25.226 8.88764C25.226 11.3173 23.2564 13.2868 20.8268 13.2868C18.3972 13.2868 16.4276 11.3173 16.4276 8.88764Z" fill="#C5C5C5"/>
</svg>
