<svg width="16" height="16" viewBox="0 0 16 16" fill="none" xmlns="http://www.w3.org/2000/svg">
<path d="M2.56455 12.1067L4.001 9.952L3.89839 9.64419L1.33331 9.02857V6.9765L3.89839 6.46349L4.001 6.15568L2.56455 4.00101L4.001 2.56457L6.15566 4.00101L6.46347 3.89841L6.97649 1.33333H9.02855L9.54157 3.89841L9.84938 4.00101L12.004 2.56457L13.4405 4.00101L12.004 6.15568L12.1066 6.46349L14.6717 6.9765V9.02857L12.1066 9.54158L12.004 9.84939L13.4405 12.0041L12.004 13.4405L9.84938 12.0041L9.54157 12.2093L9.02855 14.7743H6.97649L6.46347 12.2093L6.15566 12.1067L4.001 13.5431L2.56455 12.1067Z" stroke="#C5C5C5"/>
<circle cx="7.99998" cy="8" r="2.16667" stroke="#C5C5C5"/>
</svg>
