<svg width="32" height="32" viewBox="0 0 32 32" fill="none" xmlns="http://www.w3.org/2000/svg">
<g clip-path="url(#clip0)">
<path d="M12.5714 16H4.57143V13.7143H12.1143L13.9429 11.6571L14.8571 11.4286H29.7143V13.7143H15.3143L13.4857 15.7714L12.5714 16Z" fill="#C5C5C5"/>
<path d="M11.4286 4.57143H6.85714V0H4.57143V4.57143H0V6.85714H4.57143V11.4286H6.85714V6.85714H11.4286V4.57143Z" fill="#C5C5C5"/>
<path d="M30.8571 6.85716H16.4571L14.6286 4.80001L13.9429 4.57144H13.7143V7.08573L15.0857 8.9143L16 9.14287H29.7143V27.4286H4.57143V13.7143H2.28572V28.5714L3.42858 29.7143H30.8571L32 28.5714V8.00001L30.8571 6.85716Z" fill="#C5C5C5"/>
</g>
<defs>
<clipPath id="clip0">
<rect width="32" height="32" fill="white"/>
</clipPath>
</defs>
</svg>
