<svg width="16" height="16" viewBox="0 0 16 16" fill="none" xmlns="http://www.w3.org/2000/svg">
<mask id="path-1-inside-1" fill="white">
<path fill-rule="evenodd" clip-rule="evenodd" d="M2 6L2 8.74228e-08L4 0L4 6L2 6Z"/>
</mask>
<path fill-rule="evenodd" clip-rule="evenodd" d="M2 6L2 8.74228e-08L4 0L4 6L2 6Z" fill="#C5C5C5"/>
<path d="M2 8.74228e-08L2 -2L-8.74228e-08 -2L0 1.74846e-07L2 8.74228e-08ZM2 6L2.62268e-07 6L3.49691e-07 8L2 8L2 6ZM4 0L6 -8.74228e-08L6 -2L4 -2L4 0ZM4 6L4 8L6 8L6 6L4 6ZM0 1.74846e-07L2.62268e-07 6L4 6L4 0L0 1.74846e-07ZM4 -2L2 -2L2 2L4 2L4 -2ZM6 6L6 -8.74228e-08L2 8.74228e-08L2 6L6 6ZM2 8L4 8L4 4L2 4L2 8Z" fill="#C5C5C5" mask="url(#path-1-inside-1)"/>
<mask id="path-3-inside-2" fill="white">
<path fill-rule="evenodd" clip-rule="evenodd" d="M0 2H6V4H0V2Z"/>
</mask>
<path fill-rule="evenodd" clip-rule="evenodd" d="M0 2H6V4H0V2Z" fill="#C5C5C5"/>
<path d="M6 2H8V0H6V2ZM0 2V0H-2V2H0ZM6 4V6H8V4H6ZM0 4H-2V6H0V4ZM6 0H0V4H6V0ZM8 4V2H4V4H8ZM0 6H6V2H0V6ZM-2 2V4H2V2H-2Z" fill="#C5C5C5" mask="url(#path-3-inside-2)"/>
<mask id="path-5-inside-3" fill="white">
<path fill-rule="evenodd" clip-rule="evenodd" d="M1 7V12V14H3H14H16V12V5.625C16 4.52043 15.1046 3.625 14 3.625H8.42472L7.96351 2.91283C7.72977 2.5519 7.39014 2.28167 7 2.13223V5.10435L7.33718 5.625H8.42472H12H14V7.625V10V12H12H5H3V10V7H1Z"/>
</mask>
<path fill-rule="evenodd" clip-rule="evenodd" d="M1 7V12V14H3H14H16V12V5.625C16 4.52043 15.1046 3.625 14 3.625H8.42472L7.96351 2.91283C7.72977 2.5519 7.39014 2.28167 7 2.13223V5.10435L7.33718 5.625H8.42472H12H14V7.625V10V12H12H5H3V10V7H1Z" fill="#C5C5C5"/>
<path d="M1 7V5H-1V7H1ZM1 14H-1V16H1V14ZM16 14V16H18V14H16ZM8.42472 3.625L6.74601 4.71216L7.33718 5.625H8.42472V3.625ZM7.96351 2.91283L6.2848 4L6.2848 4L7.96351 2.91283ZM7 2.13223L7.71537 0.264548L5 -0.775507V2.13223H7ZM7 5.10435H5V5.69541L5.32129 6.19152L7 5.10435ZM7.33718 5.625L5.65847 6.71216L6.24964 7.625H7.33718V5.625ZM14 5.625H16V3.625H14V5.625ZM14 12V14H16V12H14ZM3 12H1V14H3V12ZM3 7H5V5H3V7ZM3 12V7H-1V12H3ZM3 14V12H-1V14H3ZM3 12H1V16H3V12ZM14 12H3V16H14V12ZM16 12H14V16H16V12ZM14 12V14H18V12H14ZM14 5.625V12H18V5.625H14ZM14 5.625V5.625H18C18 3.41586 16.2091 1.625 14 1.625V5.625ZM8.42472 5.625H14V1.625H8.42472V5.625ZM6.2848 4L6.74601 4.71216L10.1034 2.53783L9.64222 1.82567L6.2848 4ZM6.28463 3.99992L6.2848 4L9.64222 1.82567C9.17463 1.10365 8.49511 0.563207 7.71537 0.264548L6.28463 3.99992ZM5 2.13223V5.10435H9V2.13223H5ZM9.01589 4.53783L8.67871 4.01718L5.32129 6.19152L5.65847 6.71216L9.01589 4.53783ZM8.42472 3.625H7.33718V7.625H8.42472V3.625ZM12 3.625H8.42472V7.625H12V3.625ZM14 3.625H12V7.625H14V3.625ZM16 7.625V5.625H12V7.625H16ZM16 10V7.625H12V10H16ZM16 12V10H12V12H16ZM12 14H14V10H12V14ZM5 14H12V10H5V14ZM3 14H5V10H3V14ZM1 10V12H5V10H1ZM1 7V10H5V7H1ZM3 5H1V9H3V5Z" fill="#C5C5C5" mask="url(#path-5-inside-3)"/>
</svg>
