<svg width="16" height="16" viewBox="0 0 16 16" fill="none" xmlns="http://www.w3.org/2000/svg">
<g clip-path="url(#clip0)">
<path fill-rule="evenodd" clip-rule="evenodd" d="M2 7L2 5L0 5V3L2 3L2 1H4V3L6 3V5H4V7L2 7ZM8 6L8 4.53859V4H7V2L8 2L8.32827 2H9H9.10029L9.67208 2.51872L13.3438 5.8497L14 6.445L14 7.33098L14 8L14 14L14 16H12L4 16H2V14V10V8H4V10L4 12L4 14H6L10 14L12 14V12L12 8H11.9409H10L8 8V6Z" fill="#424242"/>
</g>
<defs>
<clipPath id="clip0">
<rect width="16" height="16" fill="white"/>
</clipPath>
</defs>
</svg>
