<svg width="16" height="16" viewBox="0 0 16 16" fill="none" xmlns="http://www.w3.org/2000/svg">
<path d="M8.4375 1.02734C8.875 1.02734 9.29655 1.08431 9.70215 1.19824C10.1077 1.31217 10.4883 1.47396 10.8438 1.68359C11.1992 1.89323 11.5228 2.14388 11.8145 2.43555C12.1061 2.72721 12.3568 3.05078 12.5664 3.40625C12.776 3.76172 12.9378 4.14225 13.0518 4.54785C13.1657 4.95345 13.2227 5.375 13.2227 5.8125C13.2227 6.43685 13.1019 7.04069 12.8604 7.62402C12.6234 8.2028 12.2839 8.71322 11.8418 9.15527L6.12012 14.8701L5.50488 14.2549L11.2197 8.5332C11.5798 8.17318 11.8577 7.75846 12.0537 7.28906C12.2497 6.8151 12.3477 6.32292 12.3477 5.8125C12.3477 5.2793 12.2428 4.77572 12.0332 4.30176C11.8281 3.8278 11.5479 3.41309 11.1924 3.05762C10.8369 2.70215 10.4222 2.42188 9.94824 2.2168C9.47428 2.00716 8.9707 1.90234 8.4375 1.90234C7.94531 1.90234 7.51009 1.97754 7.13184 2.12793C6.75814 2.27376 6.41178 2.46973 6.09277 2.71582C5.77376 2.95736 5.46615 3.23307 5.16992 3.54297C4.87826 3.85286 4.57064 4.17188 4.24707 4.5H7.125V5.375H2.75V1H3.625V3.87793C3.87565 3.62272 4.11491 3.37663 4.34277 3.13965C4.5752 2.89811 4.80534 2.67253 5.0332 2.46289C5.26562 2.2487 5.50033 2.05501 5.7373 1.88184C5.97884 1.7041 6.23405 1.55371 6.50293 1.43066C6.77637 1.30306 7.07031 1.20508 7.38477 1.13672C7.70378 1.0638 8.05469 1.02734 8.4375 1.02734Z" fill="#C5C5C5"/>
<path d="M12.8604 7.62402L12.7449 7.5762L12.7447 7.57666L12.8604 7.62402ZM11.8418 9.15527L11.9301 9.24371L11.9302 9.24366L11.8418 9.15527ZM6.12012 14.8701L6.03173 14.9585L6.12006 15.0468L6.20845 14.9586L6.12012 14.8701ZM5.50488 14.2549L5.41644 14.1665L5.32816 14.2549L5.41649 14.3433L5.50488 14.2549ZM11.2197 8.5332L11.1313 8.44481L11.1313 8.44487L11.2197 8.5332ZM12.0537 7.28906L12.1691 7.33722L12.1692 7.33682L12.0537 7.28906ZM12.0332 4.30176L11.9185 4.3514L11.9189 4.35232L12.0332 4.30176ZM9.94824 2.2168L9.89768 2.33112L9.8986 2.33152L9.94824 2.2168ZM7.13184 2.12793L7.17728 2.24438L7.17802 2.24409L7.13184 2.12793ZM6.09277 2.71582L6.16823 2.81548L6.16912 2.81479L6.09277 2.71582ZM5.16992 3.54297L5.07956 3.45659L5.0789 3.4573L5.16992 3.54297ZM4.24707 4.5L4.15807 4.41223L3.94825 4.625H4.24707V4.5ZM7.125 4.5H7.25V4.375H7.125V4.5ZM7.125 5.375V5.5H7.25V5.375H7.125ZM2.75 5.375H2.625V5.5H2.75V5.375ZM2.75 1V0.875H2.625V1H2.75ZM3.625 1H3.75V0.875H3.625V1ZM3.625 3.87793H3.5V4.18359L3.71418 3.96552L3.625 3.87793ZM4.34277 3.13965L4.2527 3.05298L4.25267 3.05301L4.34277 3.13965ZM5.0332 2.46289L5.11784 2.55488L5.11791 2.55481L5.0332 2.46289ZM5.7373 1.88184L5.81106 1.98276L5.81139 1.98252L5.7373 1.88184ZM6.50293 1.43066L6.55495 1.54433L6.55579 1.54394L6.50293 1.43066ZM7.38477 1.13672L7.41132 1.25887L7.41262 1.25858L7.38477 1.13672ZM8.4375 1.15234C8.86401 1.15234 9.27416 1.20786 9.66834 1.31858L9.73595 1.0779C9.31893 0.96076 8.88599 0.902344 8.4375 0.902344V1.15234ZM9.66834 1.31858C10.0638 1.42966 10.4343 1.58723 10.7803 1.79126L10.9072 1.57592C10.5423 1.36068 10.1517 1.19469 9.73595 1.0779L9.66834 1.31858ZM10.7803 1.79126C11.1266 1.99555 11.4419 2.23972 11.7261 2.52394L11.9028 2.34716C11.6037 2.04804 11.2718 1.79091 10.9072 1.57592L10.7803 1.79126ZM11.7261 2.52394C12.0103 2.80815 12.2545 3.12335 12.4587 3.46975L12.6741 3.34275C12.4591 2.97821 12.202 2.64628 11.9028 2.34716L11.7261 2.52394ZM12.4587 3.46975C12.6628 3.81571 12.8203 4.18624 12.9314 4.58166L13.1721 4.51405C13.0553 4.09826 12.8893 3.70772 12.6741 3.34275L12.4587 3.46975ZM12.9314 4.58166C13.0421 4.97584 13.0977 5.38599 13.0977 5.8125H13.3477C13.3477 5.36401 13.2892 4.93107 13.1721 4.51405L12.9314 4.58166ZM13.0977 5.8125C13.0977 6.42025 12.9802 7.00786 12.7449 7.5762L12.9758 7.67184C13.2236 7.07352 13.3477 6.45345 13.3477 5.8125H13.0977ZM12.7447 7.57666C12.514 8.14009 12.1837 8.63656 11.7534 9.06689L11.9302 9.24366C12.384 8.78987 12.7328 8.26551 12.976 7.67139L12.7447 7.57666ZM11.7535 9.06683L6.03178 14.7817L6.20845 14.9586L11.9301 9.24371L11.7535 9.06683ZM6.20851 14.7817L5.59327 14.1665L5.41649 14.3433L6.03173 14.9585L6.20851 14.7817ZM5.59332 14.3432L11.3082 8.62154L11.1313 8.44487L5.41644 14.1665L5.59332 14.3432ZM11.3081 8.62159C11.6797 8.25005 11.9668 7.82168 12.1691 7.33722L11.9384 7.24091C11.7487 7.69525 11.4799 8.0963 11.1313 8.44481L11.3081 8.62159ZM12.1692 7.33682C12.3714 6.8478 12.4727 6.33939 12.4727 5.8125H12.2227C12.2227 6.30645 12.1279 6.78241 11.9382 7.2413L12.1692 7.33682ZM12.4727 5.8125C12.4727 5.2624 12.3644 4.74154 12.1475 4.25119L11.9189 4.35232C12.1213 4.80989 12.2227 5.2962 12.2227 5.8125H12.4727ZM12.1479 4.25212C11.9368 3.7641 11.6477 3.33614 11.2808 2.96923L11.104 3.14601C11.448 3.49003 11.7195 3.8915 11.9185 4.3514L12.1479 4.25212ZM11.2808 2.96923C10.9139 2.60231 10.4859 2.31324 9.99788 2.10208L9.8986 2.33152C10.3585 2.53051 10.76 2.80198 11.104 3.14601L11.2808 2.96923ZM9.99881 2.10248C9.50846 1.88559 8.9876 1.77734 8.4375 1.77734V2.02734C8.9538 2.02734 9.44011 2.12873 9.89768 2.33111L9.99881 2.10248ZM8.4375 1.77734C7.93272 1.77734 7.48133 1.85446 7.08565 2.01177L7.17802 2.24409C7.53885 2.10062 7.95791 2.02734 8.4375 2.02734V1.77734ZM7.08639 2.01148C6.70156 2.16166 6.34481 2.36352 6.01642 2.61685L6.16912 2.81479C6.47876 2.57593 6.81471 2.38587 7.17728 2.24438L7.08639 2.01148ZM6.01732 2.61616C5.69263 2.862 5.38007 3.14222 5.07956 3.4566L5.26028 3.62934C5.55222 3.32392 5.85489 3.05272 6.16823 2.81548L6.01732 2.61616ZM5.0789 3.4573C4.78795 3.76643 4.48101 4.08474 4.15807 4.41223L4.33607 4.58777C4.66027 4.25901 4.96856 3.9393 5.26095 3.62864L5.0789 3.4573ZM4.24707 4.625H7.125V4.375H4.24707V4.625ZM7 4.5V5.375H7.25V4.5H7ZM7.125 5.25H2.75V5.5H7.125V5.25ZM2.875 5.375V1H2.625V5.375H2.875ZM2.75 1.125H3.625V0.875H2.75V1.125ZM3.5 1V3.87793H3.75V1H3.5ZM3.71418 3.96552C3.96511 3.71002 4.20468 3.46361 4.43288 3.22629L4.25267 3.05301C4.02514 3.28964 3.78619 3.53542 3.53582 3.79034L3.71418 3.96552ZM4.43284 3.22632C4.66365 2.98646 4.89198 2.76267 5.11784 2.55488L4.94857 2.3709C4.71869 2.58239 4.48674 2.80976 4.2527 3.05298L4.43284 3.22632ZM5.11791 2.55481C5.34712 2.34358 5.57818 2.15294 5.81106 1.98276L5.66355 1.78091C5.42248 1.95708 5.18413 2.15381 4.94849 2.37097L5.11791 2.55481ZM5.81139 1.98252C6.04613 1.80978 6.29396 1.66376 6.55495 1.54433L6.45091 1.317C6.17414 1.44366 5.91155 1.59842 5.66322 1.78116L5.81139 1.98252ZM6.55579 1.54394C6.82028 1.42051 7.10534 1.32538 7.41132 1.25887L7.35821 1.01457C7.03529 1.08477 6.73246 1.18561 6.45007 1.31739L6.55579 1.54394ZM7.41262 1.25858C7.7211 1.18807 8.06252 1.15234 8.4375 1.15234V0.902344C8.04685 0.902344 7.68645 0.939539 7.35691 1.01486L7.41262 1.25858Z" fill="#C5C5C5"/>
</svg>
