<svg width="16" height="16" viewBox="0 0 16 16" fill="none" xmlns="http://www.w3.org/2000/svg">
<path fill-rule="evenodd" clip-rule="evenodd" d="M2.5 5V12.5H14.5V5L2.5 5ZM1 3C1 2.44772 1.44772 2 2 2H15C15.5523 2 16 2.44772 16 3V13C16 13.5523 15.5523 14 15 14H2C1.44772 14 1 13.5523 1 13V3Z" fill="#424242"/>
<path fill-rule="evenodd" clip-rule="evenodd" d="M9.67332 8.54374L11.074 7.13249L10.0093 6.07584L8.61664 7.47906L7.22397 6.07584L6.15932 7.13249L7.55996 8.54374L6.15932 9.955L7.22397 11.0117L8.61664 9.60843L10.0093 11.0117L11.074 9.955L9.67332 8.54374Z" fill="#424242"/>
</svg>
