<svg width="16" height="16" viewBox="0 0 16 16" fill="none" xmlns="http://www.w3.org/2000/svg">
<path d="M14.4099 4.96893H1.49068L0.99379 5.46583V13.4161L1.49068 13.913H14.4099L14.9068 13.4161V5.46583L14.4099 4.96893ZM13.913 12.9192H1.98758V5.96272H13.913V12.9192Z" fill="#424242"/>
<path fill-rule="evenodd" clip-rule="evenodd" d="M1.43891 4.84393H14.4617L15.0318 5.41405V13.4679L14.4617 14.038H1.43891L0.86879 13.4679V5.41405L1.43891 4.84393ZM1.54246 5.09393L1.11879 5.5176V13.3644L1.54246 13.788H14.3582L14.7818 13.3644V5.5176L14.3582 5.09393H1.54246ZM1.86258 5.83772H14.038V13.0442H1.86258V5.83772ZM2.11258 6.08772V12.7942H13.788V6.08772H2.11258Z" fill="#424242"/>
<path d="M14.4099 1.98755H1.49068L0.99379 2.48444V5.46581L1.49068 5.9627H14.4099L14.9068 5.46581V2.48444L14.4099 1.98755ZM13.913 4.96892H1.98758V2.98134H13.913V4.96892Z" fill="#424242"/>
<path fill-rule="evenodd" clip-rule="evenodd" d="M1.43891 1.86255H14.4617L15.0318 2.43267V5.51759L14.4617 6.0877H1.43891L0.86879 5.51759V2.43267L1.43891 1.86255ZM1.54246 2.11255L1.11879 2.53622V5.41403L1.54246 5.8377H14.3582L14.7818 5.41403V2.53622L14.3582 2.11255H1.54246ZM1.86258 2.85634H14.038V5.09392H1.86258V2.85634ZM2.11258 3.10634V4.84392H13.788V3.10634H2.11258Z" fill="#424242"/>
<path d="M8.561 9.35L10.708 11.5L10 12.208L7.854 10.057L5.708 12.2L5 11.5L7.147 9.35L5 7.2L5.708 6.5L7.854 8.643L10 6.5L10.708 7.208L8.561 9.35Z" fill="#424242"/>
</svg>
