<svg width="32" height="32" viewBox="0 0 32 32" fill="none" xmlns="http://www.w3.org/2000/svg">
<path d="M28.8199 9.93787H2.98137L1.98758 10.9317V26.8323L2.98137 27.8261H28.8199L29.8137 26.8323V10.9317L28.8199 9.93787ZM27.8261 25.8385H3.97516V11.9254H27.8261V25.8385Z" fill="#C5C5C5" stroke="#C5C5C5" stroke-width="0.25"/>
<path d="M28.8199 3.97513H2.98137L1.98758 4.96892V10.9317L2.98137 11.9254H28.8199L29.8137 10.9317V4.96892L28.8199 3.97513ZM27.8261 9.93786H3.97516V5.96271H27.8261V9.93786Z" fill="#C5C5C5" stroke="#C5C5C5" stroke-width="0.25"/>
<path d="M17.122 18.7L21.416 23L20 24.416L15.708 20.114L11.416 24.4L10 23L14.294 18.7L10 14.4L11.416 13L15.708 17.286L20 13L21.416 14.416L17.122 18.7Z" fill="#C5C5C5"/>
</svg>
