<svg width="16" height="16" viewBox="0 0 16 16" fill="none" xmlns="http://www.w3.org/2000/svg">
<path d="M14.959 12.8125L12.792 14.9795L12.1768 14.3643L13.291 13.25H8.875V12.375H13.291L12.1768 11.2607L12.792 10.6455L14.959 12.8125ZM10.3926 14.125L11.2676 15H1.875V1H9.49707L13.25 4.75293V9.75H12.375V5.375H8.875V1.875H2.75V14.125H10.3926ZM9.75 4.5H11.7529L9.75 2.49707V4.5Z" fill="#C5C5C5"/>
<path d="M14.959 12.8125L15.0474 12.9009L15.1358 12.8125L15.0474 12.7241L14.959 12.8125ZM12.792 14.9795L12.7036 15.0679L12.792 15.1563L12.8804 15.0679L12.792 14.9795ZM12.1768 14.3643L12.0884 14.2759L12 14.3643L12.0884 14.4526L12.1768 14.3643ZM13.291 13.25L13.3794 13.3384L13.5928 13.125H13.291V13.25ZM8.875 13.25H8.75V13.375H8.875V13.25ZM8.875 12.375V12.25H8.75V12.375H8.875ZM13.291 12.375V12.5H13.5928L13.3794 12.2866L13.291 12.375ZM12.1768 11.2607L12.0884 11.1724L12 11.2607L12.0884 11.3491L12.1768 11.2607ZM12.792 10.6455L12.8804 10.5571L12.792 10.4687L12.7036 10.5571L12.792 10.6455ZM10.3926 14.125L10.481 14.0366L10.4444 14H10.3926V14.125ZM11.2676 15V15.125H11.5694L11.356 14.9116L11.2676 15ZM1.875 15H1.75V15.125H1.875V15ZM1.875 1V0.875H1.75V1H1.875ZM9.49707 1L9.58546 0.911612L9.54885 0.875H9.49707V1ZM13.25 4.75293H13.375V4.70115L13.3384 4.66454L13.25 4.75293ZM13.25 9.75V9.875H13.375V9.75H13.25ZM12.375 9.75H12.25V9.875H12.375V9.75ZM12.375 5.375H12.5V5.25H12.375V5.375ZM8.875 5.375H8.75V5.5H8.875V5.375ZM8.875 1.875H9V1.75H8.875V1.875ZM2.75 1.875V1.75H2.625V1.875H2.75ZM2.75 14.125H2.625V14.25H2.75V14.125ZM9.75 4.5H9.625V4.625H9.75V4.5ZM11.7529 4.5V4.625H12.0547L11.8413 4.41161L11.7529 4.5ZM9.75 2.49707L9.83839 2.40868L9.625 2.19529V2.49707H9.75ZM14.8706 12.7241L12.7036 14.8911L12.8804 15.0679L15.0474 12.9009L14.8706 12.7241ZM12.8804 14.8911L12.2651 14.2759L12.0884 14.4526L12.7036 15.0679L12.8804 14.8911ZM12.2651 14.4526L13.3794 13.3384L13.2026 13.1616L12.0884 14.2759L12.2651 14.4526ZM13.291 13.125H8.875V13.375H13.291V13.125ZM9 13.25V12.375H8.75V13.25H9ZM8.875 12.5H13.291V12.25H8.875V12.5ZM13.3794 12.2866L12.2651 11.1724L12.0884 11.3491L13.2026 12.4634L13.3794 12.2866ZM12.2651 11.3491L12.8804 10.7339L12.7036 10.5571L12.0884 11.1724L12.2651 11.3491ZM12.7036 10.7339L14.8706 12.9009L15.0474 12.7241L12.8804 10.5571L12.7036 10.7339ZM10.3042 14.2134L11.1792 15.0884L11.356 14.9116L10.481 14.0366L10.3042 14.2134ZM11.2676 14.875H1.875V15.125H11.2676V14.875ZM2 15V1H1.75V15H2ZM1.875 1.125H9.49707V0.875H1.875V1.125ZM9.40868 1.08839L13.1616 4.84132L13.3384 4.66454L9.58546 0.911612L9.40868 1.08839ZM13.125 4.75293V9.75H13.375V4.75293H13.125ZM13.25 9.625H12.375V9.875H13.25V9.625ZM12.5 9.75V5.375H12.25V9.75H12.5ZM12.375 5.25H8.875V5.5H12.375V5.25ZM9 5.375V1.875H8.75V5.375H9ZM8.875 1.75H2.75V2H8.875V1.75ZM2.625 1.875V14.125H2.875V1.875H2.625ZM2.75 14.25H10.3926V14H2.75V14.25ZM9.75 4.625H11.7529V4.375H9.75V4.625ZM11.8413 4.41161L9.83839 2.40868L9.66161 2.58546L11.6645 4.58839L11.8413 4.41161ZM9.625 2.49707V4.5H9.875V2.49707H9.625Z" fill="#C5C5C5"/>
</svg>
