<svg width="17" height="16" viewBox="0 0 17 16" fill="none" xmlns="http://www.w3.org/2000/svg">
<path d="M9.49936 6.69033H14.6539V1.49679" fill="#C5C5C5"/>
<path d="M7.9889 3.07742C5.24671 3.07742 3.03711 5.29176 3.03711 8C3.03711 10.7023 5.24068 12.9226 8.04268 12.9226C10.5249 12.9226 12.5564 11.0925 12.9427 8.76775H15C14.5992 12.2577 11.6376 15 8.04268 15C4.17512 15 1 11.9093 1 8C1 4.09663 4.16909 1 7.9889 1C9.65841 1 11.1926 1.47593 12.4134 2.44527C13.4117 3.23798 14.1559 4.32562 14.5958 5.65162H12.3974C12.0813 4.99853 11.6588 4.479 11.1618 4.08441C10.3522 3.44149 9.27766 3.07742 7.9889 3.07742Z" fill="#C5C5C5"/>
</svg>
