<svg width="16" height="16" viewBox="0 0 16 16" fill="none" xmlns="http://www.w3.org/2000/svg">
<g clip-path="url(#clip0)">
<path d="M12.994 4.549C12.1655 3.36935 10.939 2.52847 9.54 2.181C8.135 1.82918 6.65056 1.99031 5.35377 2.6354C4.05698 3.2805 3.03298 4.3672 2.466 5.7C1.90682 7.02321 1.84961 8.50497 2.30509 9.86735C2.76057 11.2297 3.69745 12.3791 4.94 13.1C6.19286 13.8275 7.66412 14.0844 9.08941 13.8245C10.5147 13.5646 11.8006 12.8049 12.716 11.682C13.3436 10.9128 13.7695 9.99925 13.955 9.024" stroke="#424242" stroke-width="2" stroke-miterlimit="10"/>
<path d="M13.991 3.914V5.514H12.391L13.991 3.914Z" stroke="#424242" stroke-width="2"/>
</g>
<defs>
<clipPath id="clip0">
<rect width="13.991" height="13.929" fill="white" transform="translate(1 1)"/>
</clipPath>
</defs>
</svg>
