<svg width="17" height="16" viewBox="0 0 17 16" fill="none" xmlns="http://www.w3.org/2000/svg">
<path d="M10.4919 5.69033L10.9369 5.24194C11.0578 5.37695 11.1714 5.52608 11.2762 5.69033H10.4919ZM13.7265 9.76775H13.7701C13.0029 12.2136 10.7237 14 8.04268 14C4.71556 14 2 11.3453 2 8C2 4.65462 4.71566 2 7.9889 2C9.46711 2 10.7728 2.41955 11.7915 3.22841C12.2795 3.6159 12.7004 4.09158 13.0426 4.65162H12.9856C12.652 4.11967 12.2466 3.66888 11.7837 3.30127C10.7722 2.49814 9.46947 2.07742 7.9889 2.07742C4.69765 2.07742 2.03711 4.73625 2.03711 8C2.03711 11.2632 4.69712 13.9226 8.04268 13.9226C10.7244 13.9226 12.9614 12.1498 13.7265 9.76775Z" fill="#424242" stroke="#424242" stroke-width="2" stroke-miterlimit="10"/>
</svg>
