<svg width="32" height="32" viewBox="0 0 32 32" fill="none" xmlns="http://www.w3.org/2000/svg">
<g clip-path="url(#clip0)">
<path d="M26.902 11.218L25.744 9.34L23.608 10.964L23.456 11.152C22.786 11.982 21.602 13.834 21.208 16.904L21.166 17.234L21.232 17.56L21.374 18.25C21.374 21.558 18.682 24.25 15.374 24.25C13.784 24.25 12.284 23.628 11.16 22.514C10.034 21.38 9.41401 19.88 9.41401 18.292C9.41401 15.43 11.428 13.028 14.116 12.434V18.286C14.116 18.286 19.172 14.112 20.084 13.364H20.108L26.23 8.2L16.392 0H14.118V4.808C7.26001 5.444 1.87601 11.23 1.87601 18.25C1.87601 21.868 3.29001 25.266 5.84801 27.814C8.40201 30.378 11.8 31.79 15.416 31.79C22.86 31.79 28.916 25.734 28.916 18.29C28.916 15.8 28.218 13.354 26.902 11.218V11.218Z" fill="#2D2D30"/>
<path d="M25.2 12.268L25.012 12.41C24.474 13.076 23.52 14.602 23.192 17.16C23.306 17.714 23.376 18.15 23.376 18.25C23.376 22.662 19.788 26.25 15.376 26.25C13.18 26.25 11.19 25.36 9.74201 23.922C8.30601 22.474 7.41601 20.486 7.41601 18.292C7.41601 13.88 11.004 10.292 15.416 10.292L16.118 10.342V14.042C16.118 14.042 19.37 11.358 19.38 11.364L23.118 8.20998L16.118 2.37598V6.81198L15.376 6.75198C9.02401 6.75198 3.87601 11.9 3.87601 18.252C3.87601 21.438 5.17201 24.32 7.26601 26.404C9.35001 28.496 12.23 29.792 15.418 29.792C21.77 29.792 26.918 24.644 26.918 18.292C26.916 16.08 26.282 14.022 25.2 12.268Z" fill="#C5C5C5"/>
</g>
<defs>
<clipPath id="clip0">
<rect width="32" height="32" fill="white"/>
</clipPath>
</defs>
</svg>
