<svg width="32" height="32" viewBox="0 0 32 32" fill="none" xmlns="http://www.w3.org/2000/svg">
<path d="M29 15.9078C29 18.1206 28.4429 20.3333 27.3286 22.3617C26.2143 24.3901 24.5429 25.8652 22.6857 27.156C20.6429 28.2624 18.4143 28.8156 16.1857 29C13.9571 29 11.7286 28.4468 9.68571 27.3404C7.64285 26.234 5.97143 24.5745 4.85714 22.7305C3.74286 20.7021 3 18.4894 3 16.2766C3 14.0638 3.55715 11.8511 4.67143 9.82269C5.78572 7.79433 7.45715 6.13475 9.31429 5.02837H3.92857V3H11.3571L12.2857 3.92199V11.2979H10.4286V6.31915C8.2 7.60993 6.52857 9.4539 5.78571 11.8511C4.85714 14.0638 4.67143 16.6454 5.41428 19.0426C6.15714 21.4397 7.64285 23.4681 9.68571 24.9433C11.7286 26.4184 14.1429 27.156 16.5571 26.9716C18.9714 26.7872 21.3857 25.8652 23.2429 24.3901C25.1 22.7305 26.4 20.5177 26.9571 18.1206C27.5143 15.7234 27.1429 13.1418 26.0286 10.9291C24.9143 8.71631 23.0571 6.87234 20.8286 5.95035L21.5714 4.29078C23.8 5.39716 25.6571 7.05674 26.9571 9.08511C28.2571 11.1135 29 13.5106 29 15.9078Z" fill="#424242"/>
</svg>
