<svg width="17" height="16" viewBox="0 0 17 16" fill="none" xmlns="http://www.w3.org/2000/svg">
<path d="M9.5 7H14.5V2" fill="#424242"/>
<path fill-rule="evenodd" clip-rule="evenodd" d="M3.40002 8C3.40002 5.37302 5.55537 3.25 8.20002 3.25C9.43273 3.25 10.4747 3.59591 11.267 4.22031C12.0455 4.83378 12.6309 5.75369 12.9044 7H13.175L14.3839 6.74549C14.0522 5.16953 13.2933 3.90731 12.1955 3.04219C11.1003 2.17909 9.71732 1.75 8.20002 1.75C4.74468 1.75 1.90002 4.52698 1.90002 8C1.90002 11.4774 4.74909 14.25 8.25002 14.25C11.3889 14.25 13.9792 11.9567 14.4771 9H12.9489C12.4712 11.1264 10.5547 12.75 8.25002 12.75C5.55096 12.75 3.40002 10.6226 3.40002 8Z" fill="#424242"/>
</svg>
