<svg width="32" height="32" viewBox="0 0 32 32" fill="none" xmlns="http://www.w3.org/2000/svg">
<path d="M29.8261 15.913C29.8261 18.2981 29.2298 20.6832 28.0373 22.8696C26.8447 25.0559 25.0559 26.646 23.0683 28.0373C20.882 29.2298 18.4969 29.8261 16.1118 30.0248C13.7267 30.0248 11.3416 29.4286 9.15528 28.236C6.96894 27.0435 5.18012 25.2547 3.98758 23.2671C2.79503 21.0807 2 18.6957 2 16.3106C2 13.9255 2.59628 11.5404 3.78882 9.35404C4.98137 7.1677 6.77019 5.37888 8.75777 4.18634H2.99379V2H10.9441L11.9379 2.99379V10.9441H9.95031V5.57764C7.56522 6.96894 5.7764 8.95652 4.98137 11.5404C3.98758 13.9255 3.78882 16.7081 4.58385 19.2919C5.37888 21.8758 6.96894 24.0621 9.15528 25.6522C11.3416 27.2422 13.9255 28.0373 16.5093 27.8385C19.0932 27.6398 21.677 26.646 23.6646 25.0559C25.6522 23.2671 27.0435 20.882 27.6398 18.2981C28.236 15.7143 27.8385 12.9317 26.646 10.5466C25.4534 8.16149 23.4658 6.17391 21.0807 5.18012L21.8758 3.3913C24.2609 4.58385 26.2484 6.37267 27.6398 8.55901C29.0311 10.7453 29.8261 13.3292 29.8261 15.913Z" fill="#C5C5C5" stroke="#C5C5C5" stroke-width="0.25"/>
</svg>
