<svg width="16" height="16" viewBox="0 0 16 16" fill="none" xmlns="http://www.w3.org/2000/svg">
<path d="M15 8C15 9.2 14.7 10.4 14.1 11.5C13.5 12.6 12.6 13.4 11.6 14.1C10.5 14.7 9.3 15 8.1 15.1C6.9 15.1 5.7 14.8 4.6 14.2C3.5 13.6 2.6 12.7 2 11.7C1.4 10.6 1 9.4 1 8.2C1 7 1.3 5.8 1.9 4.7C2.5 3.6 3.4 2.7 4.4 2.1H1.5V1H5.5L6 1.5V5.5H5V2.8C3.8 3.5 2.9 4.5 2.5 5.8C2 7 1.9 8.4 2.3 9.7C2.7 11 3.5 12.1 4.6 12.9C5.7 13.7 7 14.1 8.3 14C9.6 13.9 10.9 13.4 11.9 12.6C12.9 11.7 13.6 10.5 13.9 9.2C14.2 7.9 14 6.5 13.4 5.3C12.8 4.1 11.8 3.1 10.6 2.6L11 1.7C12.2 2.3 13.2 3.2 13.9 4.3C14.6 5.4 15 6.7 15 8Z" fill="#C5C5C5"/>
</svg>
