<svg width="16" height="16" viewBox="0 0 16 16" fill="none" xmlns="http://www.w3.org/2000/svg">
<path d="M15.015 3V11.5L14.515 12H12.015V11H14.015V3.206L12.808 2H5.01501V4H4.01501V1.5L4.51501 1H13.015L13.368 1.147L14.868 2.647L15.015 3Z" fill="#424242"/>
<path d="M11.868 5.646L10.368 4.146L10.015 4H1.51501L1.01501 4.5V14.5L1.51501 15H11.515L12.015 14.5V6L11.868 5.646ZM11.015 14H2.01501V5H9.80801L11.015 6.208V14Z" fill="#424242"/>
<path d="M10.015 9.5V14H9.01501V10H4.01501V14H3.01501V9.5L3.51501 9H9.51501L10.015 9.5Z" fill="#424242"/>
<path d="M9.01501 4.5V8H4.01501V4.5H7.01501V7H8.01501V4.5H9.01501Z" fill="#424242"/>
</svg>
