<svg width="32" height="32" viewBox="0 0 32 32" fill="none" xmlns="http://www.w3.org/2000/svg">
<path d="M30.03 6V23L29.03 24H24.03V22H28.03V6.412L25.616 4H10.03V8H8.03001V3L9.03001 2H26.03L26.736 2.294L29.736 5.294L30.03 6Z" fill="#C5C5C5"/>
<path d="M23.736 11.292L20.736 8.292L20.03 8H3.03001L2.03001 9V29L3.03001 30H23.03L24.03 29V12L23.736 11.292ZM22.03 28H4.03001V10H19.616L22.03 12.416V28Z" fill="#C5C5C5"/>
<path d="M20.03 19V28H18.03V20H8.03001V28H6.03001V19L7.03001 18H19.03L20.03 19Z" fill="#C5C5C5"/>
<path d="M18.03 9V16H8.03001V9H14.03V14H16.03V9H18.03Z" fill="#C5C5C5"/>
</svg>
