<svg width="16" height="16" viewBox="0 0 16 16" fill="none" xmlns="http://www.w3.org/2000/svg">
<path d="M14 7.625V8.375H8.375V14H7.625V8.375H2V7.625H7.625V2H8.375V7.625H14Z" fill="#C5C5C5"/>
<path d="M14 7.625H14.25V7.375H14V7.625ZM14 8.375V8.625H14.25V8.375H14ZM8.375 8.375V8.125H8.125V8.375H8.375ZM8.375 14V14.25H8.625V14H8.375ZM7.625 14H7.375V14.25H7.625V14ZM7.625 8.375H7.875V8.125H7.625V8.375ZM2 8.375H1.75V8.625H2V8.375ZM2 7.625V7.375H1.75V7.625H2ZM7.625 7.625V7.875H7.875V7.625H7.625ZM7.625 2V1.75H7.375V2H7.625ZM8.375 2H8.625V1.75H8.375V2ZM8.375 7.625H8.125V7.875H8.375V7.625ZM13.75 7.625V8.375H14.25V7.625H13.75ZM14 8.125H8.375V8.625H14V8.125ZM8.125 8.375V14H8.625V8.375H8.125ZM8.375 13.75H7.625V14.25H8.375V13.75ZM7.875 14V8.375H7.375V14H7.875ZM7.625 8.125H2V8.625H7.625V8.125ZM2.25 8.375V7.625H1.75V8.375H2.25ZM2 7.875H7.625V7.375H2V7.875ZM7.875 7.625V2H7.375V7.625H7.875ZM7.625 2.25H8.375V1.75H7.625V2.25ZM8.125 2V7.625H8.625V2H8.125ZM8.375 7.875H14V7.375H8.375V7.875Z" fill="#C5C5C5"/>
</svg>
