<svg width="14" height="14" viewBox="0 0 14 14" fill="none" xmlns="http://www.w3.org/2000/svg">
<path d="M7.386 10.402L6.495 8.052H2.933L2.095 10.402H1L4.217 2H5.237L8.477 10.402H7.386ZM4.855 3.588L4.811 3.453L4.773 3.297L4.744 3.145L4.72 3.019H4.697L4.676 3.145L4.644 3.297L4.606 3.453L4.562 3.588L3.255 7.162H6.173L4.855 3.588V3.588Z" fill="#C5C5C5"/>
<path d="M12.795 10.402V9.464H12.772C12.573 9.816 12.316 10.084 12.001 10.27C11.686 10.456 11.328 10.548 10.926 10.548C10.613 10.548 10.338 10.503 10.1 10.413C9.86201 10.323 9.66202 10.201 9.50202 10.047C9.34202 9.893 9.22102 9.709 9.13902 9.496C9.05702 9.283 9.01501 9.054 9.01501 8.808C9.01501 8.546 9.05402 8.306 9.13202 8.087C9.21002 7.868 9.33001 7.675 9.49201 7.507C9.65401 7.339 9.85901 7.199 10.107 7.088C10.355 6.977 10.651 6.898 10.995 6.851L12.806 6.599C12.806 6.326 12.777 6.092 12.718 5.899C12.659 5.706 12.575 5.548 12.466 5.427C12.357 5.306 12.225 5.217 12.07 5.16C11.915 5.103 11.745 5.075 11.557 5.075C11.194 5.075 10.843 5.139 10.505 5.268C10.167 5.397 9.86702 5.578 9.60102 5.808V4.824C9.68302 4.765 9.79701 4.703 9.94401 4.636C10.091 4.569 10.256 4.508 10.439 4.451C10.622 4.394 10.817 4.347 11.022 4.31C11.227 4.273 11.429 4.254 11.628 4.254C12.327 4.254 12.857 4.448 13.216 4.837C13.575 5.226 13.755 5.779 13.755 6.498V10.4H12.795V10.402ZM11.341 7.572C11.068 7.607 10.843 7.657 10.667 7.721C10.491 7.785 10.354 7.865 10.257 7.958C10.16 8.051 10.092 8.163 10.055 8.292C10.018 8.421 10 8.568 10 8.732C10 8.873 10.025 9.003 10.076 9.125C10.127 9.247 10.2 9.352 10.296 9.441C10.392 9.53 10.511 9.601 10.653 9.652C10.795 9.703 10.961 9.728 11.148 9.728C11.39 9.728 11.613 9.683 11.816 9.593C12.019 9.503 12.194 9.379 12.34 9.221C12.486 9.063 12.601 8.877 12.683 8.664C12.765 8.451 12.806 8.222 12.806 7.976V7.367L11.341 7.572V7.572Z" fill="#C5C5C5"/>
</svg>
