<svg width="16" height="16" viewBox="0 0 16 16" fill="none" xmlns="http://www.w3.org/2000/svg">
<path d="M8.67969 12H7.58984L6.69922 9.64453H3.13672L2.29883 12H1.20312L4.42578 3.59766H5.44531L8.67969 12ZM6.37695 8.75977L5.05859 5.17969C5.01562 5.0625 4.97266 4.875 4.92969 4.61719H4.90625C4.86719 4.85547 4.82227 5.04297 4.77148 5.17969L3.46484 8.75977H6.37695ZM14.0879 12H13.127V11.0625H13.1035C12.6855 11.7812 12.0703 12.1406 11.2578 12.1406C10.6602 12.1406 10.1914 11.9824 9.85156 11.666C9.51562 11.3496 9.34766 10.9297 9.34766 10.4062C9.34766 9.28516 10.0078 8.63281 11.3281 8.44922L13.127 8.19727C13.127 7.17773 12.7148 6.66797 11.8906 6.66797C11.168 6.66797 10.5156 6.91406 9.93359 7.40625V6.42188C10.5234 6.04688 11.2031 5.85938 11.9727 5.85938C13.3828 5.85938 14.0879 6.60547 14.0879 8.09766V12ZM13.127 8.96484L11.6797 9.16406C11.2344 9.22656 10.8984 9.33789 10.6719 9.49805C10.4453 9.6543 10.332 9.93359 10.332 10.3359C10.332 10.6289 10.4355 10.8691 10.6426 11.0566C10.8535 11.2402 11.1328 11.332 11.4805 11.332C11.957 11.332 12.3496 11.166 12.6582 10.834C12.9707 10.498 13.127 10.0742 13.127 9.5625V8.96484Z" fill="#C5C5C5"/>
</svg>
