<svg width="16" height="16" viewBox="0 0 16 16" fill="none" xmlns="http://www.w3.org/2000/svg">
<path d="M5.28711 13.1709C4.93164 13.1709 4.63542 13.0615 4.39844 12.8428C4.16146 12.624 4.04297 12.3551 4.04297 12.0361C4.04297 11.708 4.16374 11.4391 4.40527 11.2295C4.65137 11.0199 4.95671 10.915 5.32129 10.915C5.69043 10.915 5.99121 11.0221 6.22363 11.2363C6.46061 11.446 6.5791 11.7126 6.5791 12.0361C6.5791 12.3688 6.45833 12.6423 6.2168 12.8564C5.97982 13.0661 5.66992 13.1709 5.28711 13.1709ZM13.1211 5.80176L11.248 6.05469L12.5879 7.49707L11.3438 8.35156L10.4072 6.61523L9.4707 8.35156L8.21973 7.49707L9.56641 6.05469L7.69336 5.80176L8.17871 4.4209L9.90137 5.15918L9.60742 3.19727H11.207L10.9131 5.15918L12.6221 4.4209L13.1211 5.80176Z" fill="#C5C5C5"/>
</svg>
