<svg width="16" height="16" viewBox="0 0 16 16" fill="none" xmlns="http://www.w3.org/2000/svg">
<path d="M3.17005 4.00368C2.92672 4.00368 2.72985 4.07016 2.57943 4.20312C2.42901 4.33609 2.31177 4.50123 2.22771 4.69853C2.14365 4.89154 2.08613 5.10172 2.05516 5.32904C2.02862 5.55208 2.01535 5.75368 2.01535 5.93382H3.18333V8.14062H1V5.93382C1 5.71078 1.01548 5.48346 1.04645 5.25184C1.07742 5.02022 1.12609 4.79504 1.19245 4.57629C1.25881 4.35754 1.3473 4.1538 1.4579 3.96507C1.56851 3.77206 1.70344 3.60478 1.86271 3.46324C2.02641 3.32169 2.21443 3.21017 2.42679 3.12868C2.64358 3.04289 2.89133 3 3.17005 3V4.00368ZM6.80672 5.93382V8.14062H4.60348V5.93382C4.60348 5.71078 4.61897 5.48346 4.64994 5.25184C4.68091 5.02022 4.73178 4.79718 4.80257 4.58272C4.87336 4.36397 4.96405 4.16023 5.07466 3.97151C5.18969 3.77849 5.32684 3.61121 5.48611 3.46967C5.6498 3.32384 5.83783 3.21017 6.05019 3.12868C6.26255 3.04289 6.50588 3 6.78017 3V4.00368C6.53242 4.00368 6.33333 4.07016 6.18291 4.20312C6.03249 4.33609 5.91746 4.50123 5.83783 4.69853C5.75819 4.89154 5.7051 5.10172 5.67856 5.32904C5.65201 5.55208 5.63874 5.75368 5.63874 5.93382H6.80672Z" fill="#C5C5C5"/>
<path d="M9.19328 7.85938H11.3965V10.0662C11.3965 10.2849 11.381 10.5101 11.3501 10.7417C11.3191 10.9733 11.2682 11.1985 11.1974 11.4173C11.1266 11.6317 11.0337 11.8355 10.9187 12.0285C10.8081 12.2215 10.6732 12.3909 10.5139 12.5368C10.3546 12.6783 10.1666 12.792 9.94981 12.8778C9.73745 12.9593 9.49634 13 9.22646 13V11.9899C9.39016 11.9899 9.53173 11.9599 9.65118 11.8998C9.77506 11.8355 9.87903 11.754 9.96309 11.6553C10.0471 11.5524 10.1135 11.4344 10.1622 11.3015C10.2153 11.1685 10.2551 11.0313 10.2816 10.8897C10.3126 10.7482 10.3325 10.6066 10.3414 10.4651C10.3546 10.3192 10.3613 10.1863 10.3613 10.0662H9.19328V7.85938ZM15 7.85938V10.0662C15 10.4007 14.9646 10.7417 14.8938 11.0892C14.823 11.4366 14.7036 11.7518 14.5355 12.0349C14.3673 12.318 14.1439 12.5496 13.8652 12.7298C13.5909 12.9099 13.2458 13 12.8299 13V11.9899C13.0733 11.9899 13.2702 11.9256 13.4206 11.7969C13.5754 11.6639 13.6927 11.5009 13.7723 11.3079C13.8564 11.1106 13.9117 10.9004 13.9382 10.6774C13.9692 10.4544 13.9847 10.2506 13.9847 10.0662H12.8167V7.85938H15Z" fill="#C5C5C5"/>
</svg>
