<svg width="16" height="16" viewBox="0 0 16 16" fill="none" xmlns="http://www.w3.org/2000/svg">
<path d="M15 4.5V10.625H14.125V4.5H9.3125C9.05729 4.5 8.84993 4.52279 8.69043 4.56836C8.53548 4.60938 8.40332 4.66178 8.29395 4.72559C8.18913 4.78939 8.09798 4.86003 8.02051 4.9375C7.94303 5.01497 7.85645 5.08561 7.76074 5.14941C7.6696 5.21322 7.55794 5.2679 7.42578 5.31348C7.29362 5.35449 7.12044 5.375 6.90625 5.375H1.875V11.5H8V12.375H1.875C1.75195 12.375 1.63802 12.3522 1.5332 12.3066C1.42839 12.2611 1.33496 12.1995 1.25293 12.1221C1.17546 12.04 1.11393 11.9466 1.06836 11.8418C1.02279 11.737 1 11.623 1 11.5V2.75C1 2.62695 1.02279 2.51302 1.06836 2.4082C1.11393 2.30339 1.17546 2.21224 1.25293 2.13477C1.33496 2.05273 1.42839 1.98893 1.5332 1.94336C1.63802 1.89779 1.75195 1.875 1.875 1.875H6.90625C7.07487 1.875 7.2321 1.9069 7.37793 1.9707C7.52376 2.02995 7.65592 2.11198 7.77441 2.2168C7.89746 2.31706 8.00911 2.43327 8.10938 2.56543C8.20964 2.69303 8.2985 2.8252 8.37598 2.96191C8.43522 3.06673 8.49219 3.16016 8.54688 3.24219C8.60612 3.32422 8.66992 3.39486 8.73828 3.4541C8.8112 3.50879 8.89095 3.55208 8.97754 3.58398C9.06868 3.61133 9.18034 3.625 9.3125 3.625H14.125C14.248 3.625 14.362 3.64779 14.4668 3.69336C14.5716 3.73893 14.6628 3.80273 14.7402 3.88477C14.8223 3.96224 14.8861 4.05339 14.9316 4.1582C14.9772 4.26302 15 4.37695 15 4.5ZM6.90625 4.5C7.0293 4.5 7.13184 4.47949 7.21387 4.43848C7.30046 4.39746 7.38021 4.34733 7.45312 4.28809C7.5306 4.22884 7.60807 4.16504 7.68555 4.09668C7.76302 4.02376 7.85189 3.95996 7.95215 3.90527C7.88379 3.8278 7.81087 3.72526 7.7334 3.59766C7.66048 3.46549 7.58073 3.33789 7.49414 3.21484C7.40755 3.08724 7.31413 2.97786 7.21387 2.88672C7.11816 2.79557 7.01562 2.75 6.90625 2.75H1.875V4.5H6.90625ZM12.375 8.875V11.5H15V12.375H12.375V15H11.5V12.375H8.875V11.5H11.5V8.875H12.375Z" fill="#C5C5C5"/>
</svg>
