<svg width="16" height="16" viewBox="0 0 16 16" fill="none" xmlns="http://www.w3.org/2000/svg">
<path d="M9.86621 1.25977C10.6227 1.46484 11.3154 1.78613 11.9443 2.22363C12.5732 2.65658 13.1133 3.17155 13.5645 3.76855C14.0202 4.361 14.3734 5.01953 14.624 5.74414C14.8747 6.46419 15 7.21615 15 8C15 8.64258 14.9157 9.26237 14.7471 9.85938C14.583 10.4564 14.3483 11.0146 14.043 11.5342C13.7422 12.0537 13.3776 12.5277 12.9492 12.9561C12.5254 13.3799 12.0537 13.7445 11.5342 14.0498C11.0146 14.3506 10.4564 14.5853 9.85938 14.7539C9.26237 14.918 8.64258 15 8 15C7.35742 15 6.73763 14.918 6.14062 14.7539C5.54362 14.5853 4.98535 14.3506 4.46582 14.0498C3.94629 13.7445 3.47233 13.3799 3.04395 12.9561C2.62012 12.5277 2.25553 12.0537 1.9502 11.5342C1.64941 11.0146 1.41471 10.4587 1.24609 9.86621C1.08203 9.26921 1 8.64714 1 8C1 7.36198 1.08431 6.74219 1.25293 6.14062C1.42155 5.53906 1.66081 4.97396 1.9707 4.44531C2.28516 3.91211 2.66569 3.42904 3.1123 2.99609C3.55892 2.55859 4.0625 2.1849 4.62305 1.875H2.75V1H6.25V4.5H5.375V2.46973C4.8418 2.72493 4.35872 3.04622 3.92578 3.43359C3.4974 3.81641 3.13053 4.24935 2.8252 4.73242C2.51986 5.21094 2.28516 5.72819 2.12109 6.28418C1.95703 6.84017 1.875 7.41211 1.875 8C1.875 8.56055 1.94792 9.10286 2.09375 9.62695C2.23958 10.1465 2.44466 10.6341 2.70898 11.0898C2.97786 11.541 3.29915 11.9535 3.67285 12.3271C4.04655 12.7008 4.45898 13.0221 4.91016 13.291C5.36589 13.5553 5.85352 13.7604 6.37305 13.9062C6.89258 14.0521 7.4349 14.125 8 14.125C8.56055 14.125 9.10059 14.0521 9.62012 13.9062C10.1442 13.7604 10.6318 13.5553 11.083 13.291C11.5387 13.0221 11.9535 12.7008 12.3271 12.3271C12.7008 11.9535 13.0199 11.541 13.2842 11.0898C13.5531 10.6341 13.7604 10.1465 13.9062 9.62695C14.0521 9.10742 14.125 8.5651 14.125 8C14.125 7.31641 14.0133 6.65788 13.79 6.02441C13.5713 5.39095 13.2637 4.81445 12.8672 4.29492C12.4707 3.77539 11.9967 3.3265 11.4453 2.94824C10.8984 2.56543 10.2946 2.28288 9.63379 2.10059L9.86621 1.25977Z" fill="#C5C5C5"/>
</svg>
