<svg width="16" height="16" viewBox="0 0 16 16" fill="none" xmlns="http://www.w3.org/2000/svg">
<path d="M13.25 3.625C13.373 3.625 13.487 3.64779 13.5918 3.69336C13.6966 3.73893 13.7878 3.80273 13.8652 3.88477C13.9473 3.96224 14.0111 4.05339 14.0566 4.1582C14.1022 4.26302 14.125 4.37695 14.125 4.5V14.125H4.75293L3.625 12.9902V11.5H3.00293L1.875 10.3652V2.75C1.875 2.62695 1.89779 2.51302 1.94336 2.4082C1.98893 2.30339 2.05046 2.21224 2.12793 2.13477C2.20996 2.05273 2.30339 1.98893 2.4082 1.94336C2.51302 1.89779 2.62695 1.875 2.75 1.875H10.625C10.748 1.875 10.862 1.89779 10.9668 1.94336C11.0716 1.98893 11.1628 2.05273 11.2402 2.13477C11.3223 2.21224 11.3861 2.30339 11.4316 2.4082C11.4772 2.51302 11.5 2.62695 11.5 2.75V3.625H13.25ZM6.25 8H11.5V4.5H6.25V8ZM3.625 10.625V4.5C3.625 4.37695 3.64779 4.26302 3.69336 4.1582C3.73893 4.05339 3.80046 3.96224 3.87793 3.88477C3.95996 3.80273 4.05339 3.73893 4.1582 3.69336C4.26302 3.64779 4.37695 3.625 4.5 3.625H10.625V2.75H2.75V10.0029L3.37207 10.625H3.625ZM10.625 10.625H6.25V13.25H7.125V11.5H8V13.25H10.625V10.625ZM13.25 4.5H12.375V8.875H5.375V4.5H4.5V12.6279L5.12207 13.25H5.375V9.75H11.5V13.25H13.25V4.5Z" fill="#C5C5C5"/>
</svg>
