<svg width="16" height="16" viewBox="0 0 16 16" fill="none" xmlns="http://www.w3.org/2000/svg">
<path d="M13 11.0469C13.2917 11.1094 13.5599 11.2161 13.8047 11.3672C14.0495 11.5182 14.2604 11.7031 14.4375 11.9219C14.6146 12.1354 14.7526 12.3776 14.8516 12.6484C14.9505 12.9193 15 13.2031 15 13.5C15 13.8438 14.9323 14.1693 14.7969 14.4766C14.6667 14.7786 14.487 15.0443 14.2578 15.2734C14.0339 15.4974 13.7708 15.6745 13.4688 15.8047C13.1667 15.9349 12.8438 16 12.5 16C12.1562 16 11.8307 15.9349 11.5234 15.8047C11.2214 15.6745 10.9557 15.4974 10.7266 15.2734C10.5026 15.0443 10.3255 14.7786 10.1953 14.4766C10.0651 14.1693 10 13.8438 10 13.5C10 13.2031 10.0495 12.9193 10.1484 12.6484C10.2474 12.3776 10.3854 12.1354 10.5625 11.9219C10.7396 11.7031 10.9505 11.5182 11.1953 11.3672C11.4401 11.2161 11.7083 11.1094 12 11.0469V4.5C12 4.29167 11.9609 4.09635 11.8828 3.91406C11.8047 3.73177 11.6979 3.57292 11.5625 3.4375C11.4271 3.30208 11.2682 3.19531 11.0859 3.11719C10.9036 3.03906 10.7083 3 10.5 3H9.20312L10.4766 4.27344L9.77344 4.97656L7.28906 2.5L9.77344 0.0234375L10.4766 0.726562L9.20312 2H10.5C10.8438 2 11.1667 2.06771 11.4688 2.20312C11.7708 2.33333 12.0339 2.51302 12.2578 2.74219C12.487 2.96615 12.6667 3.22917 12.7969 3.53125C12.9323 3.83333 13 4.15625 13 4.5V11.0469ZM12.5 15C12.7083 15 12.9036 14.9609 13.0859 14.8828C13.2682 14.8047 13.4271 14.6979 13.5625 14.5625C13.6979 14.4271 13.8047 14.2682 13.8828 14.0859C13.9609 13.9036 14 13.7083 14 13.5C14 13.2917 13.9609 13.0964 13.8828 12.9141C13.8047 12.7318 13.6979 12.5729 13.5625 12.4375C13.4271 12.3021 13.2682 12.1953 13.0859 12.1172C12.9036 12.0391 12.7083 12 12.5 12C12.2917 12 12.0964 12.0391 11.9141 12.1172C11.7318 12.1953 11.5729 12.3021 11.4375 12.4375C11.3021 12.5729 11.1953 12.7318 11.1172 12.9141C11.0391 13.0964 11 13.2917 11 13.5C11 13.7083 11.0391 13.9036 11.1172 14.0859C11.1953 14.2682 11.3021 14.4271 11.4375 14.5625C11.5729 14.6979 11.7318 14.8047 11.9141 14.8828C12.0964 14.9609 12.2917 15 12.5 15ZM6.22656 11.0234L8.71094 13.5L6.22656 15.9766L5.52344 15.2734L6.79688 14H5.5C5.15625 14 4.83073 13.9349 4.52344 13.8047C4.22135 13.6745 3.95573 13.4974 3.72656 13.2734C3.5026 13.0443 3.32552 12.7786 3.19531 12.4766C3.0651 12.1693 3 11.8438 3 11.5V4.95312C2.70833 4.89062 2.4401 4.78385 2.19531 4.63281C1.95052 4.48177 1.73958 4.29948 1.5625 4.08594C1.38542 3.86719 1.2474 3.6224 1.14844 3.35156C1.04948 3.08073 1 2.79688 1 2.5C1 2.15625 1.0651 1.83333 1.19531 1.53125C1.32552 1.22917 1.5026 0.966146 1.72656 0.742188C1.95573 0.513021 2.22135 0.333333 2.52344 0.203125C2.83073 0.0677083 3.15625 0 3.5 0C3.84375 0 4.16667 0.0677083 4.46875 0.203125C4.77083 0.333333 5.03385 0.513021 5.25781 0.742188C5.48698 0.966146 5.66667 1.22917 5.79688 1.53125C5.93229 1.83333 6 2.15625 6 2.5C6 2.79688 5.95052 3.08073 5.85156 3.35156C5.7526 3.6224 5.61458 3.86719 5.4375 4.08594C5.26042 4.29948 5.04948 4.48177 4.80469 4.63281C4.5599 4.78385 4.29167 4.89062 4 4.95312V11.5C4 11.7083 4.03906 11.9036 4.11719 12.0859C4.19531 12.2682 4.30208 12.4271 4.4375 12.5625C4.57292 12.6979 4.73177 12.8047 4.91406 12.8828C5.09635 12.9609 5.29167 13 5.5 13H6.79688L5.52344 11.7266L6.22656 11.0234ZM2 2.5C2 2.70833 2.03906 2.90365 2.11719 3.08594C2.19531 3.26823 2.30208 3.42708 2.4375 3.5625C2.57292 3.69792 2.73177 3.80469 2.91406 3.88281C3.09635 3.96094 3.29167 4 3.5 4C3.70833 4 3.90365 3.96094 4.08594 3.88281C4.26823 3.80469 4.42708 3.69792 4.5625 3.5625C4.69792 3.42708 4.80469 3.26823 4.88281 3.08594C4.96094 2.90365 5 2.70833 5 2.5C5 2.29167 4.96094 2.09635 4.88281 1.91406C4.80469 1.73177 4.69792 1.57292 4.5625 1.4375C4.42708 1.30208 4.26823 1.19531 4.08594 1.11719C3.90365 1.03906 3.70833 1 3.5 1C3.29167 1 3.09635 1.03906 2.91406 1.11719C2.73177 1.19531 2.57292 1.30208 2.4375 1.4375C2.30208 1.57292 2.19531 1.73177 2.11719 1.91406C2.03906 2.09635 2 2.29167 2 2.5Z" fill="#C5C5C5"/>
</svg>
