<svg width="32" height="32" viewBox="0 0 32 32" fill="none" xmlns="http://www.w3.org/2000/svg">
<g clip-path="url(#clip0)">
<path d="M6.96895 0C5.98618 0 5.02549 0.291424 4.20835 0.837418C3.39121 1.38341 2.75433 2.15946 2.37824 3.06741C2.00215 3.97537 1.90375 4.97446 2.09548 5.93834C2.28721 6.90222 2.76045 7.7876 3.45537 8.48252C4.15029 9.17744 5.03567 9.65068 5.99955 9.84241C6.96343 10.0341 7.96252 9.93574 8.87048 9.55965C9.77843 9.18356 10.5545 8.54668 11.1005 7.72954C11.6465 6.9124 11.9379 5.95171 11.9379 4.96894C11.9379 4.31641 11.8094 3.67027 11.5597 3.06741C11.3099 2.46455 10.9439 1.91678 10.4825 1.45537C10.0211 0.993961 9.47334 0.627951 8.87048 0.378238C8.26762 0.128526 7.62148 0 6.96895 0V0ZM6.96895 7.95031C6.37929 7.95031 5.80287 7.77546 5.31259 7.44786C4.8223 7.12026 4.44018 6.65464 4.21452 6.10986C3.98887 5.56509 3.92983 4.96564 4.04487 4.38731C4.1599 3.80898 4.44385 3.27775 4.8608 2.8608C5.27775 2.44385 5.80898 2.1599 6.38731 2.04486C6.96564 1.92983 7.56509 1.98887 8.10987 2.21452C8.65464 2.44017 9.12027 2.8223 9.44786 3.31259C9.77546 3.80287 9.95031 4.37929 9.95031 4.96894C9.95031 5.75965 9.63621 6.51797 9.07709 7.07709C8.51798 7.6362 7.75965 7.95031 6.96895 7.95031Z" fill="white" stroke="white" stroke-width="0.25"/>
<path d="M24.8571 19.8757C23.8744 19.8757 22.9137 20.1672 22.0965 20.7131C21.2794 21.2591 20.6425 22.0352 20.2664 22.9431C19.8903 23.8511 19.7919 24.8502 19.9837 25.8141C20.1754 26.778 20.6486 27.6633 21.3436 28.3583C22.0385 29.0532 22.9239 29.5264 23.8877 29.7181C24.8516 29.9099 25.8507 29.8115 26.7587 29.4354C27.6666 29.0593 28.4427 28.4224 28.9887 27.6053C29.5347 26.7881 29.8261 25.8274 29.8261 24.8447C29.8261 23.5268 29.3026 22.263 28.3707 21.3311C27.4388 20.3992 26.175 19.8757 24.8571 19.8757ZM24.8571 27.826C24.2675 27.826 23.6911 27.6512 23.2008 27.3236C22.7105 26.996 22.3284 26.5304 22.1027 25.9856C21.8771 25.4408 21.818 24.8414 21.933 24.263C22.0481 23.6847 22.332 23.1535 22.749 22.7365C23.1659 22.3196 23.6972 22.0356 24.2755 21.9206C24.8538 21.8056 25.4533 21.8646 25.9981 22.0903C26.5428 22.3159 27.0085 22.698 27.336 23.1883C27.6636 23.6786 27.8385 24.255 27.8385 24.8447C27.8385 25.6354 27.5244 26.3937 26.9653 26.9528C26.4062 27.5119 25.6478 27.826 24.8571 27.826V27.826Z" fill="white" stroke="white" stroke-width="0.25"/>
<path d="M25.8509 8.90236V20.8278H23.8634V8.90236C23.8634 8.11165 23.5492 7.35333 22.9901 6.79422C22.431 6.2351 21.6727 5.92099 20.882 5.92099H17.195L19.7212 8.4472L18.316 9.85441L14.0924 5.63081V4.2236L18.316 0L19.7212 1.4072L17.195 3.93342H20.882C22.1998 3.93342 23.4637 4.45693 24.3956 5.38879C25.3274 6.32064 25.8509 7.58451 25.8509 8.90236Z" fill="white" stroke="white" stroke-width="0.25"/>
<path d="M17.7337 24.0994V25.5066L13.5101 29.7302L12.1048 28.323L14.6311 25.7968H10.9441C9.62626 25.7968 8.36239 25.2732 7.43053 24.3414C6.49867 23.4095 5.97516 22.1457 5.97516 20.8278V8.90234H7.96274V20.8278C7.96274 21.6185 8.27684 22.3768 8.83596 22.936C9.39507 23.4951 10.1534 23.8092 10.9441 23.8092H14.6311L12.1048 21.283L13.5101 19.8758L17.7337 24.0994Z" fill="white" stroke="white" stroke-width="0.25"/>
</g>
<defs>
<clipPath id="clip0">
<rect width="32" height="32" fill="white"/>
</clipPath>
</defs>
</svg>
