<svg width="32" height="32" viewBox="0 0 32 32" fill="none" xmlns="http://www.w3.org/2000/svg">
<path fill-rule="evenodd" clip-rule="evenodd" d="M12 24H10C9.46 23.96 9.04 23.78 8.62 23.38C8.2 22.98 8.02 22.54 8 22V9.44C9.18 8.76 10 7.48 10 6C10 3.78 8.22 2 6 2C3.78 2 2 3.78 2 6C2 7.46 2.82 8.76 4 9.44V22C4.06 23.56 4.68 24.94 5.88 26.12C7.08 27.3 8.44 27.94 10 28C10 28 12.04 28 12 28V32L18 26L12 20V24ZM6 3.6C7.32 3.6 8.4 4.7 8.4 6C8.4 7.3 7.3 8.4 6 8.4C4.7 8.4 3.6 7.3 3.6 6C3.6 4.7 4.7 3.6 6 3.6V3.6ZM28 22.56C28 19.1 28 10 28 10C27.94 8.44 27.32 7.06 26.12 5.88C24.92 4.7 23.56 4.06 22 4H20V0L14 6L20 12V8H22C22.54 8.04 22.96 8.22 23.38 8.62C23.8 9.02 23.98 9.46 24 10V22.56C22.82 23.24 22 24.52 22 26C22 28.22 23.78 30 26 30C28.22 30 30 28.22 30 26C30 24.54 29.18 23.24 28 22.56ZM26 28.4C24.68 28.4 23.6 27.3 23.6 26C23.6 24.7 24.7 23.6 26 23.6C27.3 23.6 28.4 24.7 28.4 26C28.4 27.3 27.3 28.4 26 28.4Z" fill="#C5C5C5"/>
</svg>
