<svg width="32" height="32" viewBox="0 0 32 32" fill="none" xmlns="http://www.w3.org/2000/svg">
<path d="M6.96895 1C5.98618 1 5.02549 1.29142 4.20835 1.83742C3.39121 2.38341 2.75433 3.15946 2.37824 4.06741C2.00215 4.97537 1.90375 5.97446 2.09548 6.93834C2.28721 7.90222 2.76045 8.7876 3.45537 9.48252C4.15029 10.1774 5.03567 10.6507 5.99955 10.8424C6.96343 11.0341 7.96252 10.9357 8.87048 10.5597C9.77843 10.1836 10.5545 9.54668 11.1005 8.72954C11.6465 7.9124 11.9379 6.95171 11.9379 5.96894C11.9379 5.31641 11.8094 4.67027 11.5597 4.06741C11.3099 3.46455 10.9439 2.91678 10.4825 2.45537C10.0211 1.99396 9.47334 1.62795 8.87048 1.37824C8.26762 1.12853 7.62148 1 6.96895 1V1ZM6.96895 8.95031C6.37929 8.95031 5.80287 8.77546 5.31259 8.44786C4.8223 8.12026 4.44018 7.65464 4.21452 7.10986C3.98887 6.56509 3.92983 5.96564 4.04487 5.38731C4.1599 4.80898 4.44385 4.27775 4.8608 3.8608C5.27775 3.44385 5.80898 3.1599 6.38731 3.04486C6.96564 2.92983 7.56509 2.98887 8.10987 3.21452C8.65464 3.44017 9.12027 3.8223 9.44786 4.31259C9.77546 4.80287 9.95031 5.37929 9.95031 5.96894C9.95031 6.75965 9.63621 7.51797 9.07709 8.07709C8.51798 8.6362 7.75965 8.95031 6.96895 8.95031Z" fill="#C5C5C5" stroke="#C5C5C5" stroke-width="0.25"/>
<path d="M24.8571 20.8757C23.8744 20.8757 22.9137 21.1672 22.0965 21.7131C21.2794 22.2591 20.6425 23.0352 20.2664 23.9431C19.8903 24.8511 19.7919 25.8502 19.9837 26.8141C20.1754 27.778 20.6486 28.6633 21.3436 29.3583C22.0385 30.0532 22.9239 30.5264 23.8877 30.7181C24.8516 30.9099 25.8507 30.8115 26.7587 30.4354C27.6666 30.0593 28.4427 29.4224 28.9887 28.6053C29.5347 27.7881 29.8261 26.8274 29.8261 25.8447C29.8261 24.5268 29.3026 23.263 28.3707 22.3311C27.4388 21.3992 26.175 20.8757 24.8571 20.8757ZM24.8571 28.826C24.2675 28.826 23.6911 28.6512 23.2008 28.3236C22.7105 27.996 22.3284 27.5304 22.1027 26.9856C21.8771 26.4408 21.818 25.8414 21.933 25.263C22.0481 24.6847 22.332 24.1535 22.749 23.7365C23.1659 23.3196 23.6972 23.0356 24.2755 22.9206C24.8538 22.8056 25.4533 22.8646 25.9981 23.0903C26.5428 23.3159 27.0085 23.698 27.336 24.1883C27.6636 24.6786 27.8385 25.255 27.8385 25.8447C27.8385 26.6354 27.5244 27.3937 26.9653 27.9528C26.4062 28.5119 25.6478 28.826 24.8571 28.826V28.826Z" fill="#C5C5C5" stroke="#C5C5C5" stroke-width="0.25"/>
<path d="M25.8509 9.90236V21.8278H23.8634V9.90236C23.8634 9.11165 23.5492 8.35333 22.9901 7.79422C22.431 7.2351 21.6727 6.92099 20.882 6.92099H17.195L19.7212 9.4472L18.316 10.8544L14.0924 6.63081V5.2236L18.316 1L19.7212 2.4072L17.195 4.93342H20.882C22.1998 4.93342 23.4637 5.45693 24.3956 6.38879C25.3274 7.32064 25.8509 8.58451 25.8509 9.90236Z" fill="#C5C5C5" stroke="#C5C5C5" stroke-width="0.25"/>
<path d="M17.7337 25.0994V26.5066L13.5101 30.7302L12.1048 29.323L14.6311 26.7968H10.9441C9.62626 26.7968 8.36239 26.2732 7.43053 25.3414C6.49867 24.4095 5.97516 23.1457 5.97516 21.8278V9.90234H7.96274V21.8278C7.96274 22.6185 8.27684 23.3768 8.83596 23.936C9.39507 24.4951 10.1534 24.8092 10.9441 24.8092H14.6311L12.1048 22.283L13.5101 20.8758L17.7337 25.0994Z" fill="#C5C5C5" stroke="#C5C5C5" stroke-width="0.25"/>
</svg>
