<svg width="28" height="28" viewBox="0 0 28 28" fill="none" xmlns="http://www.w3.org/2000/svg">
<path d="M15.7128 9.33334H22.1667V23.6667C22.1667 24.7712 21.2712 25.6667 20.1667 25.6667H4.66666V19.6173H7.89361C8.51417 20.7284 9.50708 21.4691 10.6241 21.4691C12.3617 21.4691 13.7269 19.7407 13.7269 17.642C13.7269 15.5432 12.3617 13.8148 10.6241 13.8148C9.38297 13.8148 8.39006 14.5556 7.89361 15.6667H4.66666V12.5V9.33334H11.8652V8.13581C10.7482 7.51853 10.0035 6.53087 10.0035 5.41976C10.0035 3.81482 11.617 2.33334 13.7269 2.33334C15.8369 2.33334 17.5745 3.69137 17.5745 5.41976C17.5745 6.65433 16.8298 7.64199 15.7128 8.13581V9.33334Z" stroke="#C5C5C5" stroke-width="2" stroke-miterlimit="10"/>
</svg>
