<svg width="24" height="24" viewBox="0 0 24 24" fill="none" xmlns="http://www.w3.org/2000/svg">
<g clip-path="url(#clip0)">
<path d="M14.1842 7.2H21V21.6667C21 22.9553 19.9554 24 18.6667 24H3.00003V17.7778H6.26732C6.89564 18.9206 7.90096 19.6825 9.03194 19.6825C10.7913 19.6825 12.1736 17.9048 12.1736 15.746C12.1736 13.5873 10.7913 11.8095 9.03194 11.8095C7.7753 11.8095 6.76998 12.5714 6.26732 13.7143H3.00003V10.4571V7.2H10.2886V5.96825C9.15761 5.33333 8.40362 4.31746 8.40362 3.1746C8.40362 1.52381 10.0373 0 12.1736 0C14.3099 0 16.0692 1.39683 16.0692 3.1746C16.0692 4.44445 15.3152 5.46032 14.1842 5.96825V7.2Z" fill="#F4F4F4"/>
</g>
<defs>
<clipPath id="clip0">
<rect width="24" height="24" fill="white"/>
</clipPath>
</defs>
</svg>
