<svg width="24" height="24" viewBox="0 0 24 24" fill="none" xmlns="http://www.w3.org/2000/svg">
<g clip-path="url(#clip0)">
<path d="M13.9415 7.3H20V20C20 21.1046 19.1046 22 18 22H4V16.5555H6.90425C7.46276 17.5555 8.35638 18.2222 9.3617 18.2222C10.9255 18.2222 12.1543 16.6667 12.1543 14.7778C12.1543 12.8889 10.9255 11.3333 9.3617 11.3333C8.24468 11.3333 7.35106 12 6.90425 13H4V10.15V7.3H10.4787V6.22222C9.4734 5.66666 8.80319 4.77778 8.80319 3.77778C8.80319 2.33333 10.2553 1 12.1543 1C14.0532 1 15.617 2.22222 15.617 3.77778C15.617 4.88889 14.9468 5.77778 13.9415 6.22222V7.3Z" stroke="#F4F4F4" stroke-width="2" stroke-miterlimit="10"/>
</g>
<defs>
<clipPath id="clip0">
<rect width="24" height="24" fill="white"/>
</clipPath>
</defs>
</svg>
