<svg width="28" height="28" viewBox="0 0 28 28" fill="none" xmlns="http://www.w3.org/2000/svg">
<path d="M16.2651 8.51665H23.3333V23.6666C23.3333 24.7712 22.4379 25.6666 21.3333 25.6666H4.66666V19.3148H8.05495C8.70655 20.4815 9.7491 21.2592 10.922 21.2592C12.7464 21.2592 14.18 19.4444 14.18 17.2407C14.18 15.037 12.7464 13.2222 10.922 13.2222C9.61878 13.2222 8.57623 14 8.05495 15.1667H4.66666V11.8417V8.51665H12.2252V7.25925C11.0523 6.6111 10.2704 5.57406 10.2704 4.4074C10.2704 2.72221 11.9645 1.16666 14.18 1.16666C16.3954 1.16666 18.2198 2.59258 18.2198 4.4074C18.2198 5.70369 17.4379 6.74073 16.2651 7.25925V8.51665Z" stroke="#F4F4F4" stroke-width="2.33333" stroke-miterlimit="10"/>
</svg>
