<svg width="28" height="28" viewBox="0 0 28 28" fill="none" xmlns="http://www.w3.org/2000/svg">
<path d="M16.5482 8.4H24.5V25.6667C24.5 26.9553 23.4553 28 22.1667 28H3.5V20.7407H7.31183C8.04488 22.0741 9.21775 22.963 10.5372 22.963C12.5898 22.963 14.2025 20.8889 14.2025 18.3704C14.2025 15.8519 12.5898 13.7778 10.5372 13.7778C9.07114 13.7778 7.89827 14.6667 7.31183 16H3.5V12.2V8.4H12.0033V6.96296C10.6838 6.22222 9.80419 5.03704 9.80419 3.7037C9.80419 1.77778 11.7101 0 14.2025 0C16.6948 0 18.7473 1.62963 18.7473 3.7037C18.7473 5.18519 17.8677 6.37037 16.5482 6.96296V8.4Z" fill="#F4F4F4"/>
</svg>
