<svg width="16" height="16" viewBox="0 0 16 16" fill="none" xmlns="http://www.w3.org/2000/svg">
<path d="M13.1885 7.75391C13.1885 7.79492 13.1885 7.83594 13.1885 7.87695C13.193 7.91797 13.1953 7.95898 13.1953 8C13.1953 8.04102 13.193 8.08203 13.1885 8.12305C13.1885 8.16406 13.1885 8.20508 13.1885 8.24609L14.959 9.34668L13.8721 11.9648L11.8418 11.5C11.7324 11.6185 11.6185 11.7324 11.5 11.8418L11.9648 13.8721L9.34668 14.959L8.24609 13.1885C8.20508 13.1885 8.16406 13.1908 8.12305 13.1953C8.08203 13.1953 8.04102 13.1953 8 13.1953C7.95898 13.1953 7.91797 13.1953 7.87695 13.1953C7.83594 13.1908 7.79492 13.1885 7.75391 13.1885L6.65332 14.959L4.03516 13.8721L4.5 11.8418C4.38151 11.7324 4.26758 11.6185 4.1582 11.5L2.12793 11.9648L1.04102 9.34668L2.81152 8.24609C2.81152 8.20508 2.80924 8.16406 2.80469 8.12305C2.80469 8.08203 2.80469 8.04102 2.80469 8C2.80469 7.95898 2.80469 7.91797 2.80469 7.87695C2.80924 7.83594 2.81152 7.79492 2.81152 7.75391L1.04102 6.65332L2.12793 4.03516L4.1582 4.5C4.26758 4.38151 4.38151 4.26758 4.5 4.1582L4.03516 2.12793L6.65332 1.04102L7.75391 2.81152C7.79492 2.81152 7.83594 2.81152 7.87695 2.81152C7.91797 2.80697 7.95898 2.80469 8 2.80469C8.04102 2.80469 8.08203 2.80697 8.12305 2.81152C8.16406 2.81152 8.20508 2.81152 8.24609 2.81152L9.34668 1.04102L11.9648 2.12793L11.5 4.1582C11.6185 4.26758 11.7324 4.38151 11.8418 4.5L13.8721 4.03516L14.959 6.65332L13.1885 7.75391ZM12.3887 8.64258C12.3978 8.5332 12.4069 8.42611 12.416 8.32129C12.4251 8.21191 12.4297 8.10254 12.4297 7.99316C12.4297 7.88835 12.4251 7.78125 12.416 7.67188C12.4069 7.5625 12.3978 7.4554 12.3887 7.35059L14.002 6.3457L13.4141 4.92383L11.5615 5.35449C11.4202 5.18132 11.2744 5.02181 11.124 4.87598C10.9782 4.73014 10.8187 4.58431 10.6455 4.43848L11.0762 2.58594L9.6543 1.99805L8.64258 3.61133C8.53776 3.60221 8.43066 3.5931 8.32129 3.58398C8.21191 3.57487 8.10482 3.57031 8 3.57031C7.89062 3.57031 7.78125 3.57487 7.67188 3.58398C7.56706 3.5931 7.45996 3.60221 7.35059 3.61133L6.3457 1.99805L4.92383 2.58594L5.35449 4.43848C5.18132 4.57975 5.02181 4.72559 4.87598 4.87598C4.73014 5.02181 4.58431 5.18132 4.43848 5.35449L2.58594 4.92383L1.99805 6.3457L3.61133 7.35742C3.60221 7.4668 3.5931 7.57617 3.58398 7.68555C3.57487 7.79036 3.57031 7.89746 3.57031 8.00684C3.57031 8.11165 3.57487 8.21875 3.58398 8.32812C3.5931 8.4375 3.60221 8.5446 3.61133 8.64941L1.99805 9.6543L2.58594 11.0762L4.43848 10.6455C4.57975 10.8187 4.72331 10.9782 4.86914 11.124C5.01953 11.2699 5.18132 11.4157 5.35449 11.5615L4.92383 13.4141L6.3457 14.002L7.35742 12.3887C7.46224 12.3978 7.56934 12.4069 7.67871 12.416C7.78809 12.4251 7.89518 12.4297 8 12.4297C8.10938 12.4297 8.21647 12.4251 8.32129 12.416C8.43066 12.4069 8.54004 12.3978 8.64941 12.3887L9.6543 14.002L11.0762 13.4141L10.6455 11.5615C10.8187 11.4202 10.9782 11.2767 11.124 11.1309C11.2699 10.9805 11.4157 10.8187 11.5615 10.6455L13.4141 11.0762L14.002 9.6543L12.3887 8.64258ZM8 5.42969C8.35547 5.42969 8.68815 5.49805 8.99805 5.63477C9.3125 5.76693 9.58594 5.94922 9.81836 6.18164C10.0508 6.41406 10.2331 6.6875 10.3652 7.00195C10.502 7.31185 10.5703 7.64453 10.5703 8C10.5703 8.35547 10.502 8.69043 10.3652 9.00488C10.2331 9.31478 10.0508 9.58594 9.81836 9.81836C9.58594 10.0508 9.3125 10.2354 8.99805 10.3721C8.68815 10.5042 8.35547 10.5703 8 10.5703C7.64453 10.5703 7.30957 10.5042 6.99512 10.3721C6.68522 10.2354 6.41406 10.0508 6.18164 9.81836C5.94922 9.58594 5.76465 9.31478 5.62793 9.00488C5.49577 8.69043 5.42969 8.35547 5.42969 8C5.42969 7.64453 5.49577 7.31185 5.62793 7.00195C5.76465 6.6875 5.94922 6.41406 6.18164 6.18164C6.41406 5.94922 6.68522 5.76693 6.99512 5.63477C7.30957 5.49805 7.64453 5.42969 8 5.42969ZM8 9.80469C8.25065 9.80469 8.48535 9.75911 8.7041 9.66797C8.92285 9.57227 9.11426 9.44238 9.27832 9.27832C9.44238 9.11426 9.56999 8.92285 9.66113 8.7041C9.75684 8.48535 9.80469 8.25065 9.80469 8C9.80469 7.74935 9.75684 7.51465 9.66113 7.2959C9.56999 7.07715 9.44238 6.88574 9.27832 6.72168C9.11426 6.55762 8.92285 6.43001 8.7041 6.33887C8.48535 6.24316 8.25065 6.19531 8 6.19531C7.74935 6.19531 7.51465 6.24316 7.2959 6.33887C7.07715 6.43001 6.88574 6.55762 6.72168 6.72168C6.55762 6.88574 6.42773 7.07715 6.33203 7.2959C6.24089 7.51465 6.19531 7.74935 6.19531 8C6.19531 8.25065 6.24089 8.48535 6.33203 8.7041C6.42773 8.92285 6.55762 9.11426 6.72168 9.27832C6.88574 9.44238 7.07715 9.57227 7.2959 9.66797C7.51465 9.75911 7.74935 9.80469 8 9.80469Z" fill="#C5C5C5"/>
</svg>
