<svg width="16" height="16" viewBox="0 0 16 16" fill="none" xmlns="http://www.w3.org/2000/svg">
<path fill-rule="evenodd" clip-rule="evenodd" d="M2.0205 12.5128L3.59999 10.1436L3.48717 9.80513L0.666656 9.1282V6.87179L3.48717 6.30769L3.59999 5.96922L2.0205 3.59999L3.59999 2.0205L5.96922 3.59999L6.30769 3.48717L6.87179 0.666656H9.1282L9.6923 3.48717L10.0308 3.59999L12.4 2.0205L13.9795 3.59999L12.4 5.96922L12.5128 6.30769L15.3333 6.87179V9.1282L12.5128 9.6923L12.4 10.0308L13.9795 12.4L12.4 13.9795L10.0308 12.4L9.6923 12.6256L9.1282 15.4462H6.87179L6.30769 12.6256L5.96922 12.5128L3.59999 14.0923L2.0205 12.5128ZM7.99999 10.6667C9.47275 10.6667 10.6667 9.47275 10.6667 7.99999C10.6667 6.52723 9.47275 5.33332 7.99999 5.33332C6.52723 5.33332 5.33332 6.52723 5.33332 7.99999C5.33332 9.47275 6.52723 10.6667 7.99999 10.6667Z" fill="#C5C5C5"/>
</svg>
