<svg width="16" height="16" viewBox="0 0 16 16" fill="none" xmlns="http://www.w3.org/2000/svg">
<g clip-path="url(#clip0)">
<path d="M14.6542 3.82885C14.3089 2.99182 13.7229 2.27619 12.9703 1.77271C12.2178 1.26923 11.3326 1.00058 10.4272 1.00085H10.4082C9.32176 1.01636 8.27476 1.41038 7.44766 2.115C6.62056 2.81961 6.06516 3.79069 5.8772 4.86085C6.36426 4.88597 6.84581 4.97576 7.3092 5.12785C7.42836 4.34736 7.83735 3.64047 8.45461 3.14817C9.07187 2.65587 9.85202 2.41435 10.6395 2.47176C11.4269 2.52918 12.1638 2.88133 12.7031 3.45796C13.2424 4.03459 13.5445 4.79333 13.5492 5.58285C13.5409 6.3328 13.2673 7.05556 12.7769 7.62302C12.2865 8.19047 11.611 8.56594 10.8702 8.68285C11.0245 9.14936 11.1163 9.63424 11.1432 10.1249C12.2333 9.97784 13.2304 9.43257 13.9424 8.59411C14.6543 7.75566 15.0308 6.68336 14.9992 5.58385C15.0014 4.98179 14.8842 4.38528 14.6542 3.82885Z" fill="white"/>
<path d="M9.8221 8.65785C9.35643 7.53449 8.46365 6.64207 7.3401 6.17685C6.64292 5.89277 5.88701 5.78282 5.13778 5.85652C4.38856 5.93022 3.66857 6.18536 3.0401 6.59985C2.28596 7.10355 1.69808 7.81953 1.3508 8.65729C1.00352 9.49505 0.912415 10.417 1.08901 11.3065C1.26561 12.196 1.70198 13.0132 2.34296 13.6548C2.98394 14.2963 3.80074 14.7334 4.6901 14.9109C4.98651 14.9695 5.28795 14.999 5.5901 14.9989C6.34368 14.9976 7.08534 14.8107 7.74954 14.4547C8.41374 14.0987 8.98003 13.5846 9.39836 12.9578C9.81669 12.331 10.0742 11.6108 10.1481 10.8608C10.222 10.1109 10.11 9.35426 9.8221 8.65785V8.65785Z" fill="white"/>
</g>
<defs>
<clipPath id="clip0">
<rect width="14" height="13.998" fill="white" transform="translate(0.999023 1.00085)"/>
</clipPath>
</defs>
</svg>
