<svg width="16" height="16" viewBox="0 0 16 16" fill="none" xmlns="http://www.w3.org/2000/svg">
<path d="M14.999 5.50088C15.0302 6.61916 14.6338 7.70725 13.8906 8.54339C13.1474 9.37953 12.1133 9.90077 10.999 10.0009C10.9908 9.65848 10.9231 9.32011 10.799 9.00088C11.6688 8.91143 12.4754 8.50545 13.0654 7.86014C13.6554 7.21482 13.9877 6.37518 13.999 5.50088C13.9957 4.59898 13.6451 3.73302 13.02 3.0829C12.3949 2.43279 11.5433 2.0485 10.6422 2.00989C9.74113 1.97127 8.85982 2.28129 8.18136 2.87553C7.5029 3.46978 7.07947 4.30257 6.99903 5.20088C6.67705 5.08646 6.34024 5.0191 5.99903 5.00088C6.14749 3.90647 6.68292 2.9014 7.50839 2.16766C8.33385 1.43392 9.39476 1.02001 10.499 1.00088C11.0907 0.998366 11.677 1.11305 12.2241 1.3383C12.7712 1.56356 13.2682 1.89493 13.6866 2.31329C14.105 2.73166 14.4363 3.22873 14.6616 3.77583C14.8869 4.32293 15.0015 4.90923 14.999 5.50088ZM5.49903 6.00088C4.60901 6.00088 3.73898 6.2648 2.99896 6.75927C2.25894 7.25373 1.68216 7.95654 1.34157 8.7788C1.00097 9.60107 0.911858 10.5059 1.08549 11.3788C1.25913 12.2517 1.68771 13.0535 2.31704 13.6829C2.94638 14.3122 3.7482 14.7408 4.62112 14.9144C5.49403 15.088 6.39883 14.9989 7.2211 14.6583C8.04337 14.3177 8.74617 13.741 9.24064 13.0009C9.73511 12.2609 9.99903 11.3909 9.99903 10.5009C9.99903 9.90993 9.88263 9.32477 9.65648 8.7788C9.43034 8.23284 9.09887 7.73676 8.68101 7.3189C8.26314 6.90104 7.76707 6.56957 7.2211 6.34342C6.67514 6.11728 6.08997 6.00088 5.49903 6.00088Z" fill="white"/>
</svg>
