<svg width="16" height="16" viewBox="0 0 16 16" fill="none" xmlns="http://www.w3.org/2000/svg">
<path d="M2.56458 12.1067L4.00103 9.952L3.89842 9.64419L1.33334 9.02857V6.9765L3.89842 6.46349L4.00103 6.15568L2.56458 4.00101L4.00103 2.56457L6.15569 4.00101L6.4635 3.89841L6.97652 1.33333H9.02858L9.5416 3.89841L9.84941 4.00101L12.0041 2.56457L13.4405 4.00101L12.0041 6.15568L12.1067 6.46349L14.6718 6.9765V9.02857L12.1067 9.54158L12.0041 9.84939L13.4405 12.0041L12.0041 13.4405L9.84941 12.0041L9.5416 12.2093L9.02858 14.7743H6.97652L6.4635 12.2093L6.15569 12.1067L4.00103 13.5431L2.56458 12.1067Z" stroke="#C5C5C5"/>
<circle cx="8.00001" cy="8" r="2.16667" stroke="#C5C5C5"/>
</svg>
