<svg width="16" height="16" viewBox="0 0 16 16" fill="none" xmlns="http://www.w3.org/2000/svg">
<path d="M3 2V14H4V2H3ZM14.5 8L6 2V14L14.5 8ZM7 3.92969L12.7656 8L7 12.0703V3.92969Z" fill="#75BEFF"/>
<path d="M3 2H2.75V1.75H3V2ZM3 14V14.25H2.75V14H3ZM4 14H4.25V14.25H4V14ZM4 2V1.75H4.25V2H4ZM14.5 8L14.6442 7.79576L14.9335 8L14.6442 8.20424L14.5 8ZM6 2H5.75V1.51752L6.14417 1.79576L6 2ZM6 14L6.14417 14.2042L5.75 14.4825V14H6ZM7 3.92969H6.75V3.44718L7.14418 3.72545L7 3.92969ZM12.7656 8L12.9098 7.79577L13.1991 8L12.9098 8.20423L12.7656 8ZM7 12.0703L7.14418 12.2745L6.75 12.5528V12.0703H7ZM3.25 2V14H2.75V2H3.25ZM3 13.75H4V14.25H3V13.75ZM3.75 14V2H4.25V14H3.75ZM4 2.25H3V1.75H4V2.25ZM14.3558 8.20424L5.85583 2.20424L6.14417 1.79576L14.6442 7.79576L14.3558 8.20424ZM6.25 2V14H5.75V2H6.25ZM5.85583 13.7958L14.3558 7.79576L14.6442 8.20424L6.14417 14.2042L5.85583 13.7958ZM7.14418 3.72545L12.9098 7.79577L12.6214 8.20423L6.85582 4.13392L7.14418 3.72545ZM12.9098 8.20423L7.14418 12.2745L6.85582 11.8661L12.6214 7.79577L12.9098 8.20423ZM6.75 12.0703V3.92969H7.25V12.0703H6.75Z" fill="#75BEFF"/>
<path d="M13 8L7 4V12L13 8Z" fill="#75BEFF"/>
</svg>
