<svg width="32" height="28" viewBox="0 0 32 28" fill="none" xmlns="http://www.w3.org/2000/svg">
<path d="M11.184 10.9759C10.512 10.1919 10.176 9.18393 10.176 8.06393C10.176 7.16793 10.4 6.27193 10.848 5.26393C11.296 4.25593 12.08 3.58393 13.088 3.02393C14.88 2.12793 16.784 2.12793 18.576 3.02393C19.584 3.47193 20.256 4.25593 20.816 5.26393C21.264 6.15993 21.488 7.05593 21.488 8.06393V8.28793C21.264 9.07193 21.04 9.85593 20.704 10.7519L18.688 9.74393C19.024 9.18393 19.136 8.51193 19.36 7.83993C19.36 7.27993 19.136 6.71993 18.912 6.27193C18.688 5.71193 18.24 5.37593 17.68 5.03993C16.448 4.47993 15.328 4.47993 14.208 5.03993C13.536 5.37593 13.2 5.82393 12.864 6.38393C12.64 6.94393 12.416 7.50393 12.416 8.06393C12.416 8.62393 12.528 9.18393 12.976 9.63193L11.184 10.9759Z" fill="white"/>
<path d="M21.6705 0.888929L18.8754 4.2453L20.5966 5.67868L23.3917 2.3223L21.6705 0.888929Z" fill="white"/>
<path d="M10.092 1.03668L8.41248 2.51889L11.2287 5.71004L12.9082 4.22783L10.092 1.03668Z" fill="white"/>
<path d="M19.584 27.5521L18.128 26.8801L16 20.4961L13.872 26.8801L12.416 27.5521C10.176 26.6561 8.27202 25.0881 7.37602 23.0721C6.36802 21.1681 5.92002 18.7041 6.36802 16.5761C6.81602 14.4481 8.04802 12.3201 9.72802 10.8641C11.744 9.29608 13.872 8.51208 16.112 8.51208C18.464 8.51208 20.816 9.29608 22.496 10.8641C24.176 12.3201 25.408 14.4481 25.856 16.5761C26.304 18.5921 25.856 20.9441 24.848 23.0721C23.728 24.9761 21.936 26.5441 19.584 27.5521ZM14.992 16.5761H17.12L19.92 24.9761C21.152 24.3041 22.16 23.2961 22.72 22.0641C23.616 20.3841 23.84 18.5921 23.616 17.0241C23.28 15.4561 22.272 13.7761 20.928 12.5441C19.248 11.0881 17.344 10.7521 16 10.7521C14.32 10.7521 12.64 11.3121 11.072 12.5441C9.84003 13.6641 8.83202 15.3441 8.49602 16.9121C8.16002 18.4801 8.49602 20.4961 9.28002 21.9521C9.84002 23.1841 10.848 24.1921 12.192 24.8641L14.992 16.5761Z" fill="white"/>
</svg>
