<svg width="28" height="28" viewBox="0 0 28 28" fill="none" xmlns="http://www.w3.org/2000/svg">
<path d="M9.59875 10.8727C9.17289 10.1903 8.91137 9.4182 8.83482 8.6174C8.75827 7.8166 8.86877 7.00897 9.15762 6.25816C9.44647 5.50736 9.90576 4.83391 10.4993 4.29091C11.0928 3.74791 11.8044 3.35019 12.5779 3.12912C13.3513 2.90805 14.1656 2.86966 14.9564 3.01698C15.7473 3.1643 16.4931 3.4933 17.1351 3.97806C17.7771 4.46281 18.2977 5.09005 18.6559 5.81035C19.0141 6.53065 19.2001 7.3243 19.1992 8.12875C19.1985 8.88882 19.0281 9.63914 18.7005 10.325L17.1255 9.576C17.3422 9.123 17.4552 8.6274 17.4562 8.12525C17.4577 7.59064 17.3348 7.06301 17.0974 6.58402C16.8599 6.10504 16.5144 5.6878 16.088 5.36526C15.6617 5.04272 15.1662 4.8237 14.6406 4.72549C14.1151 4.62728 13.574 4.65257 13.0599 4.79936C12.5458 4.94616 12.0729 5.21044 11.6785 5.57134C11.2841 5.93224 10.979 6.37989 10.7872 6.87893C10.5955 7.37798 10.5224 7.91476 10.5737 8.44691C10.6249 8.97906 10.7992 9.49201 11.0827 9.94525L9.59875 10.8727Z" fill="#C5C5C5"/>
<path d="M17.479 27.0638L16.3292 26.5265L14 19.5423L11.6707 26.5265L10.521 27.0638C8.45617 26.2533 6.73911 24.7474 5.6662 22.806C4.59328 20.8645 4.23183 18.6095 4.64426 16.43C5.05668 14.2505 6.21708 12.2834 7.92516 10.8682C9.63325 9.45302 11.7818 8.67859 14 8.67859C16.2181 8.67859 18.3667 9.45302 20.0748 10.8682C21.7829 12.2834 22.9433 14.2505 23.3557 16.43C23.7681 18.6095 23.4067 20.8645 22.3338 22.806C21.2608 24.7474 19.5438 26.2533 17.479 27.0638V27.0638ZM13.1705 16.499H14.8295L17.675 25.0478C19.1996 24.2281 20.4069 22.9229 21.1055 21.3391C21.8041 19.7553 21.9539 17.9837 21.5313 16.3051C21.1086 14.6265 20.1377 13.137 18.7724 12.0729C17.4072 11.0088 15.7257 10.4309 13.9947 10.4309C12.2637 10.4309 10.5823 11.0088 9.21703 12.0729C7.85177 13.137 6.88083 14.6265 6.45819 16.3051C6.03555 17.9837 6.1854 19.7553 6.88398 21.3391C7.58256 22.9229 8.78987 24.2281 10.3145 25.0478L13.1705 16.499Z" fill="#C5C5C5"/>
<path d="M14 24.9568C12.9182 24.9607 11.8467 24.7458 10.85 24.325L11.5325 22.7133C13.0447 23.3444 14.7413 23.372 16.2733 22.7903L16.9015 24.423C15.9755 24.7781 14.9918 24.9591 14 24.9568V24.9568Z" fill="#C5C5C5"/>
<path d="M8.15533 1.17128L6.84238 2.32828L10.0311 5.94679L11.344 4.78979L8.15533 1.17128Z" fill="#C5C5C5"/>
<path d="M19.8456 1.17096L16.6563 4.78891L17.969 5.94614L21.1584 2.32818L19.8456 1.17096Z" fill="#C5C5C5"/>
</svg>
