<svg width="28" height="28" viewBox="0 0 28 28" fill="none" xmlns="http://www.w3.org/2000/svg">
<path d="M18.6667 4.66804H9.33333V4.41254C9.37147 3.21019 9.88347 2.07169 10.7577 1.24533C11.6319 0.418983 12.7974 -0.0281773 14 0.00137711C15.2026 -0.0281773 16.3681 0.418983 17.2423 1.24533C18.1165 2.07169 18.6285 3.21019 18.6667 4.41254V4.66804ZM9.33333 15.168C9.33333 16.4057 9.825 17.5927 10.7002 18.4679C11.5753 19.343 12.7623 19.8347 14 19.8347C14.8304 19.8301 15.6441 19.6015 16.3555 19.1732L9.99483 12.8125C9.5665 13.5239 9.33798 14.3377 9.33333 15.168V15.168ZM14 10.5014C13.1696 10.506 12.3559 10.7345 11.6445 11.1629L18.0052 17.5235C18.4335 16.8122 18.662 15.9984 18.6667 15.168C18.6667 13.9304 18.175 12.7434 17.2998 11.8682C16.4247 10.993 15.2377 10.5014 14 10.5014V10.5014ZM23.59 16.3347C23.327 18.1799 22.6358 19.9379 21.5717 21.468L25.3762 25.2725L23.7265 26.9222L20.0212 23.218C18.3846 24.7423 16.2364 25.5981 14 25.6167C11.7636 25.5981 9.61539 24.7423 7.97883 23.218L4.2735 26.921L2.62383 25.2714L6.42833 21.468C5.36423 19.9379 4.67302 18.1799 4.41 16.3347H0V14.0014H4.27933C4.33458 12.1927 4.78916 10.4186 5.6105 8.80621L1.813 5.00871L3.46267 3.35904L7.105 7.00138H20.895L24.5373 3.35904L26.187 5.00871L22.3895 8.80621C23.2108 10.4186 23.6654 12.1927 23.7207 14.0014H28V16.3347H23.59ZM21 15.168C21 13.7836 20.5895 12.4302 19.8203 11.2791C19.0511 10.1279 17.9579 9.2307 16.6788 8.70089C15.3997 8.17107 13.9922 8.03245 12.6344 8.30255C11.2765 8.57264 10.0292 9.23933 9.05025 10.2183C8.07129 11.1973 7.4046 12.4445 7.1345 13.8024C6.86441 15.1603 7.00303 16.5677 7.53284 17.8468C8.06266 19.1259 8.95986 20.2192 10.111 20.9883C11.2622 21.7575 12.6155 22.168 14 22.168C15.8565 22.168 17.637 21.4305 18.9497 20.1178C20.2625 18.805 21 17.0246 21 15.168Z" fill="#F4F4F4"/>
</svg>
