<svg width="28" height="28" viewBox="0 0 28 28" fill="none" xmlns="http://www.w3.org/2000/svg">
<path d="M10.0294 9.33335C9.60323 8.72031 9.35198 8.00282 9.30261 7.25783C9.25324 6.51284 9.40761 5.76847 9.74917 5.10455C10.0907 4.44063 10.6066 3.88223 11.2414 3.48922C11.8762 3.09622 12.606 2.88345 13.3526 2.87373C14.0992 2.86402 14.8343 3.05772 15.4791 3.43407C16.1239 3.81042 16.6541 4.35522 17.0129 5.01002C17.3716 5.66483 17.5453 6.40493 17.5153 7.15095C17.4853 7.89697 17.2528 8.62076 16.8427 9.24468" stroke="#F4F4F4" stroke-width="2.33333" stroke-miterlimit="10"/>
<path d="M13.3964 8.12351C11.3195 8.12279 9.31049 8.86279 7.73034 10.2105C6.15018 11.5582 5.10247 13.4253 4.7755 15.4763C4.44853 17.5272 4.86373 19.6275 5.94649 21.3998C7.02925 23.1721 8.70857 24.5001 10.6827 25.1452L13.4127 16.5025L16.138 25.1358C18.1066 24.4842 19.7787 23.1528 20.8549 21.3803C21.931 19.6078 22.3409 17.51 22.0109 15.4628C21.681 13.4156 20.6328 11.5528 19.0543 10.2081C17.4757 8.86349 15.47 8.12489 13.3964 8.12467V8.12351Z" stroke="white" stroke-width="2.33333" stroke-linejoin="bevel"/>
<path d="M15.62 22.6987C14.2746 23.2641 12.7636 23.2925 11.3979 22.778" stroke="#F4F4F4" stroke-width="2.33333" stroke-miterlimit="10"/>
<path d="M7.36823 1.87366L9.79839 4.56632" stroke="#F4F4F4" stroke-width="2.33333" stroke-miterlimit="10"/>
<path d="M20.0562 1.87366L16.9167 5.25001" stroke="#F4F4F4" stroke-width="2.33333" stroke-miterlimit="10"/>
</svg>
