<svg width="24" height="24" viewBox="0 0 24 24" fill="none" xmlns="http://www.w3.org/2000/svg">
<path d="M9.12199 8C8.7567 7.47454 8.54134 6.85955 8.49902 6.22099C8.4567 5.58243 8.58902 4.94439 8.88178 4.37532C9.17454 3.80625 9.6167 3.32761 10.1608 2.99075C10.705 2.65389 11.3305 2.47152 11.9704 2.46319C12.6103 2.45486 13.2404 2.6209 13.7932 2.94348C14.3459 3.26607 14.8003 3.73304 15.1078 4.2943C15.4153 4.85556 15.5641 5.48993 15.5385 6.12938C15.5128 6.76882 15.3135 7.38921 14.962 7.924" stroke="#F4F4F4" stroke-width="1.33" stroke-miterlimit="10"/>
<path d="M12.008 6.96301C10.2279 6.9624 8.50585 7.59668 7.15143 8.75188C5.79701 9.90707 4.89898 11.5074 4.61872 13.2654C4.33846 15.0233 4.69435 16.8236 5.62242 18.3427C6.5505 19.8618 7.98992 21.0001 9.68201 21.553L12.022 14.145L14.358 21.545C16.0453 20.9864 17.4786 19.8452 18.401 18.326C19.3235 16.8067 19.6747 15.0086 19.3919 13.2538C19.1091 11.4991 18.2107 9.9024 16.8577 8.74984C15.5046 7.59729 13.7854 6.9642 12.008 6.96401V6.96301Z" stroke="white" stroke-width="1.33" stroke-linejoin="bevel"/>
<path d="M13.914 19.456C12.7608 19.9406 11.4657 19.965 10.295 19.524" stroke="#F4F4F4" stroke-width="1.33" stroke-miterlimit="10"/>
<path d="M6.841 1.60599L8.924 3.91399" stroke="#F4F4F4" stroke-width="1.33" stroke-miterlimit="10"/>
<path d="M17.191 1.60599L15.108 3.91399" stroke="#F4F4F4" stroke-width="1.33" stroke-miterlimit="10"/>
</svg>
