<svg width="24" height="24" viewBox="0 0 24 24" fill="none" xmlns="http://www.w3.org/2000/svg">
<g clip-path="url(#clip0)">
<path d="M8.91545 8.44366C8.52481 7.88174 8.2945 7.22407 8.24925 6.5412C8.20399 5.85833 8.34549 5.17603 8.65857 4.56747C8.97164 3.95891 9.44448 3.44706 10.0264 3.08683C10.6083 2.72659 11.2772 2.53156 11.9615 2.52266C12.6458 2.51375 13.3197 2.69131 13.9107 3.03628C14.5018 3.38125 14.9878 3.88062 15.3166 4.48082C15.6454 5.08103 15.8046 5.75942 15.7771 6.44324C15.7497 7.12705 15.5366 7.79049 15.1607 8.36239" stroke="#F4F4F4" stroke-width="2" stroke-miterlimit="10"/>
<path d="M18 1L15 4" stroke="#F4F4F4" stroke-width="2" stroke-miterlimit="10"/>
<path d="M12.0018 7C10.0981 6.99934 8.25663 7.67764 6.80823 8.91299C5.35982 10.1483 4.39948 11.8598 4.09977 13.7397C3.80007 15.6196 4.18065 17.5448 5.17312 19.1693C6.1656 20.7938 7.7049 22.0111 9.5144 22.6024L12.0168 14.6803L14.5149 22.5938C16.3193 21.9965 17.852 20.7761 18.8384 19.1514C19.8249 17.5267 20.2005 15.6038 19.8981 13.7273C19.5956 11.8508 18.6349 10.1433 17.188 8.91082C15.741 7.67829 13.9025 7.00127 12.0018 7.00107V7Z" stroke="#F4F4F4" stroke-width="2"/>
<path d="M14.04 21C12.8068 21.5183 11.4218 21.5443 10.1699 21.0727" stroke="#F4F4F4" stroke-width="2" stroke-miterlimit="10"/>
<path d="M6 1L9 4" stroke="#F4F4F4" stroke-width="2" stroke-miterlimit="10"/>
</g>
<defs>
<clipPath id="clip0">
<rect width="24" height="24" fill="white"/>
</clipPath>
</defs>
</svg>
