<svg width="28" height="28" viewBox="0 0 28 28" fill="none" xmlns="http://www.w3.org/2000/svg">
<path d="M10.6423 9.33335C10.2161 8.72031 9.9649 8.00282 9.91553 7.25783C9.86616 6.51284 10.0205 5.76847 10.3621 5.10455C10.7036 4.44063 11.2195 3.88223 11.8543 3.48922C12.4891 3.09622 13.219 2.88345 13.9655 2.87373C14.7121 2.86402 15.4472 3.05772 16.092 3.43407C16.7368 3.81042 17.2671 4.35522 17.6258 5.01002C17.9845 5.66483 18.1582 6.40493 18.1282 7.15095C18.0982 7.89697 17.8657 8.62076 17.4557 9.24468" stroke="#F4F4F4" stroke-width="1.55167" stroke-miterlimit="10"/>
<path d="M14.0094 8.12351C11.9325 8.12279 9.9235 8.86279 8.34334 10.2105C6.76318 11.5582 5.71548 13.4253 5.38851 15.4763C5.06154 17.5272 5.47674 19.6275 6.5595 21.3998C7.64226 23.1721 9.32158 24.5001 11.2957 25.1452L14.0257 16.5025L16.751 25.1358C18.7196 24.4842 20.3917 23.1528 21.4679 21.3803C22.5441 19.6078 22.9539 17.51 22.6239 15.4628C22.294 13.4156 21.2458 11.5528 19.6673 10.2081C18.0887 8.86349 16.083 8.12489 14.0094 8.12467V8.12351Z" stroke="white" stroke-width="1.55167" stroke-linejoin="bevel"/>
<path d="M16.233 22.6987C14.8876 23.2641 13.3766 23.2925 12.0109 22.778" stroke="#F4F4F4" stroke-width="1.55167" stroke-miterlimit="10"/>
<path d="M7.98117 1.87366L10.4113 4.56632" stroke="#F4F4F4" stroke-width="1.55167" stroke-miterlimit="10"/>
<path d="M20.0562 1.87366L17.626 4.56632" stroke="#F4F4F4" stroke-width="1.55167" stroke-miterlimit="10"/>
</svg>
