<svg width="28" height="28" viewBox="0 0 28 28" fill="none" xmlns="http://www.w3.org/2000/svg">
<path d="M10.4014 9.85093C9.94561 9.19536 9.67693 8.42808 9.62413 7.6314C9.57133 6.83471 9.73641 6.03869 10.1017 5.3287C10.4669 4.61872 11.0186 4.02156 11.6974 3.60129C12.3763 3.18102 13.1568 2.95348 13.9551 2.94309C14.7535 2.9327 15.5396 3.13985 16.2292 3.54231C16.9188 3.94478 17.4858 4.52738 17.8694 5.22762C18.253 5.92786 18.4387 6.71932 18.4067 7.5171C18.3746 8.31489 18.126 9.0889 17.6875 9.75611" stroke="#F4F4F4" stroke-width="2.33333" stroke-miterlimit="10"/>
<path d="M21 1.16666L17.5 4.66666" stroke="#F4F4F4" stroke-width="2.33333" stroke-miterlimit="10"/>
<path d="M14.0021 8.16666C11.7811 8.16589 9.63272 8.95723 7.94292 10.3985C6.25312 11.8397 5.13272 13.8364 4.78306 16.0296C4.4334 18.2229 4.87741 20.4689 6.0353 22.3642C7.19319 24.2594 8.98903 25.6796 11.1001 26.3694L14.0196 17.1271L16.934 26.3595C19.0391 25.6625 20.8273 24.2388 21.9782 22.3433C23.129 20.4478 23.5673 18.2045 23.2144 16.0152C22.8616 13.826 21.7407 11.8339 20.0526 10.3959C18.3645 8.95799 16.2196 8.16814 14.0021 8.16791V8.16666Z" stroke="#F4F4F4" stroke-width="2.33333"/>
<path d="M16.38 24.5C14.9412 25.1046 13.3254 25.135 11.8649 24.5848" stroke="#F4F4F4" stroke-width="2.33333" stroke-miterlimit="10"/>
<path d="M7 1.16666L10.5 4.66666" stroke="#F4F4F4" stroke-width="2.33333" stroke-miterlimit="10"/>
</svg>
