<svg width="28" height="28" viewBox="0 0 28 28" fill="none" xmlns="http://www.w3.org/2000/svg">
<path d="M10.6423 9.33335C10.2161 8.72031 9.9649 8.00282 9.91553 7.25783C9.86616 6.51284 10.0205 5.76847 10.3621 5.10455C10.7036 4.44063 11.2195 3.88223 11.8543 3.48922C12.4891 3.09622 13.219 2.88345 13.9655 2.87373C14.7121 2.86402 15.4472 3.05772 16.092 3.43407C16.7368 3.81042 17.2671 4.35522 17.6258 5.01002C17.9845 5.66483 18.1582 6.40493 18.1282 7.15095C18.0982 7.89697 17.8657 8.62076 17.4557 9.24468" stroke="#F4F4F4" stroke-miterlimit="10"/>
<path d="M14.0093 8.12351C11.9325 8.12279 9.92347 8.86279 8.34331 10.2105C6.76315 11.5582 5.71545 13.4253 5.38848 15.4763C5.06151 17.5272 5.47671 19.6275 6.55947 21.3998C7.64222 23.1721 9.32155 24.5001 11.2957 25.1452L14.0257 16.5025L16.751 25.1358C18.7195 24.4842 20.3917 23.1528 21.4679 21.3803C22.544 19.6078 22.9538 17.51 22.6239 15.4628C22.294 13.4156 21.2458 11.5528 19.6673 10.2081C18.0887 8.86349 16.0829 8.12489 14.0093 8.12467V8.12351Z" stroke="white" stroke-linejoin="bevel"/>
<path d="M16.233 22.6987C14.8875 23.2641 13.3766 23.2925 12.0108 22.778" stroke="#F4F4F4" stroke-miterlimit="10"/>
<path d="M7.98117 1.87366L10.4113 4.56632" stroke="#F4F4F4" stroke-miterlimit="10"/>
<path d="M20.0562 1.87366L17.626 4.56632" stroke="#F4F4F4" stroke-miterlimit="10"/>
</svg>
