<svg width="24" height="24" viewBox="0 0 24 24" fill="none" xmlns="http://www.w3.org/2000/svg">
<path d="M18.8438 10.5117C19.3516 10.5273 19.8281 10.6367 20.2734 10.8398C20.7188 11.0352 21.1055 11.3008 21.4336 11.6367C21.7617 11.9727 22.0195 12.3672 22.207 12.8203C22.4023 13.2656 22.5 13.7422 22.5 14.25V16.5H21V14.25C21 14 20.957 13.7617 20.8711 13.5352C20.793 13.3008 20.6797 13.0898 20.5312 12.9023C20.3906 12.707 20.2188 12.543 20.0156 12.4102C19.8125 12.2695 19.5898 12.1641 19.3477 12.0938C19.3945 12.3203 19.4297 12.5547 19.4531 12.7969C19.4844 13.0312 19.5 13.2656 19.5 13.5V16.5C19.5 16.5547 19.4961 16.6055 19.4883 16.6523C19.4805 16.6992 19.4727 16.75 19.4648 16.8047L19.5352 16.7344C20.0039 17.2031 20.3633 17.7422 20.6133 18.3516C20.8633 18.9609 20.9883 19.5977 20.9883 20.2617C20.9883 20.9258 20.8633 21.5625 20.6133 22.1719C20.3633 22.7734 20.0039 23.3086 19.5352 23.7773L18.4805 22.7227C18.8086 22.3945 19.0586 22.0234 19.2305 21.6094C19.4023 21.1875 19.4883 20.7422 19.4883 20.2734C19.4883 19.7422 19.3672 19.2266 19.125 18.7266C18.8828 19.5078 18.5273 20.2227 18.0586 20.8711C17.5977 21.5195 17.0547 22.0742 16.4297 22.5352C15.8047 22.9961 15.1133 23.3555 14.3555 23.6133C13.6055 23.8711 12.8203 24 12 24C11.1797 24 10.3906 23.8711 9.63281 23.6133C8.88281 23.3555 8.19531 22.9961 7.57031 22.5352C6.94531 22.0742 6.39844 21.5195 5.92969 20.8711C5.46875 20.2227 5.11719 19.5078 4.875 18.7266C4.63281 19.2266 4.51172 19.7422 4.51172 20.2734C4.51172 20.7422 4.59766 21.1875 4.76953 21.6094C4.94141 22.0234 5.19141 22.3945 5.51953 22.7227L4.46484 23.7773C3.99609 23.3086 3.63281 22.7734 3.375 22.1719C3.125 21.5625 3 20.9258 3 20.2617C3 19.5977 3.125 18.9609 3.375 18.3516C3.63281 17.7422 3.99609 17.2031 4.46484 16.7344L4.53516 16.8047C4.52734 16.75 4.51953 16.6992 4.51172 16.6523C4.50391 16.6055 4.5 16.5547 4.5 16.5V13.5C4.5 13.2656 4.51172 13.0312 4.53516 12.7969C4.56641 12.5547 4.60547 12.3203 4.65234 12.0938C4.41016 12.1641 4.1875 12.2695 3.98438 12.4102C3.78125 12.543 3.60547 12.707 3.45703 12.9023C3.31641 13.0898 3.20312 13.3008 3.11719 13.5352C3.03906 13.7617 3 14 3 14.25V16.5H1.5V14.25C1.5 13.7422 1.59375 13.2656 1.78125 12.8203C1.97656 12.3672 2.23828 11.9727 2.56641 11.6367C2.89453 11.3008 3.28125 11.0352 3.72656 10.8398C4.17188 10.6367 4.64844 10.5273 5.15625 10.5117C5.39844 9.96484 5.71094 9.4375 6.09375 8.92969C5.64844 8.85156 5.23438 8.70312 4.85156 8.48438C4.47656 8.25781 4.15234 7.98047 3.87891 7.65234C3.60547 7.32422 3.39062 6.95703 3.23438 6.55078C3.07812 6.13672 3 5.70313 3 5.25V3H4.5V5.25C4.5 5.5625 4.55859 5.85547 4.67578 6.12891C4.79297 6.40234 4.95312 6.64063 5.15625 6.84375C5.35938 7.04687 5.59766 7.20703 5.87109 7.32422C6.14453 7.44141 6.4375 7.5 6.75 7.5H7.5V7.53516C7.86719 7.26172 8.24219 7.03125 8.625 6.84375C8.50781 6.59375 8.41406 6.33594 8.34375 6.07031C8.28125 5.79688 8.25 5.52344 8.25 5.25C8.25 4.70312 8.37109 4.17578 8.61328 3.66797L6.97266 2.02734L8.02734 0.972656L9.51562 2.46094C9.86719 2.15625 10.25 1.92188 10.6641 1.75781C11.0859 1.58594 11.5312 1.5 12 1.5C12.4688 1.5 12.9102 1.58594 13.3242 1.75781C13.7461 1.92188 14.1328 2.15625 14.4844 2.46094L15.9727 0.972656L17.0273 2.02734L15.3867 3.66797C15.6289 4.17578 15.75 4.70312 15.75 5.25C15.75 5.52344 15.7148 5.79688 15.6445 6.07031C15.582 6.33594 15.4922 6.59375 15.375 6.84375C15.5781 6.94531 15.7695 7.05469 15.9492 7.17188C16.1367 7.28125 16.3203 7.40234 16.5 7.53516V7.5H17.25C17.5625 7.5 17.8555 7.44141 18.1289 7.32422C18.4023 7.20703 18.6406 7.04687 18.8438 6.84375C19.0469 6.64063 19.207 6.40234 19.3242 6.12891C19.4414 5.85547 19.5 5.5625 19.5 5.25V3H21V5.25C21 5.70313 20.9219 6.13672 20.7656 6.55078C20.6094 6.95703 20.3945 7.32422 20.1211 7.65234C19.8477 7.98047 19.5195 8.25781 19.1367 8.48438C18.7617 8.70312 18.3516 8.85156 17.9062 8.92969C18.2891 9.4375 18.6016 9.96484 18.8438 10.5117ZM12 3C11.6875 3 11.3945 3.05859 11.1211 3.17578C10.8477 3.29297 10.6094 3.45313 10.4062 3.65625C10.2031 3.85937 10.043 4.09766 9.92578 4.37109C9.80859 4.64453 9.75 4.9375 9.75 5.25C9.75 5.64062 9.84375 5.99219 10.0312 6.30469C10.3594 6.21875 10.6836 6.15234 11.0039 6.10547C11.332 6.05078 11.6641 6.02344 12 6.02344C12.3359 6.02344 12.6641 6.05078 12.9844 6.10547C13.3125 6.15234 13.6406 6.21875 13.9688 6.30469C14.1562 5.99219 14.25 5.64062 14.25 5.25C14.25 4.9375 14.1914 4.64453 14.0742 4.37109C13.957 4.09766 13.7969 3.85937 13.5938 3.65625C13.3906 3.45313 13.1523 3.29297 12.8789 3.17578C12.6055 3.05859 12.3125 3 12 3ZM18 13.5C18 12.6875 17.8398 11.918 17.5195 11.1914C17.1992 10.4648 16.7656 9.82812 16.2188 9.28125C15.6797 8.73438 15.0469 8.30078 14.3203 7.98047C13.5938 7.66016 12.8203 7.5 12 7.5C11.1797 7.5 10.4062 7.66016 9.67969 7.98047C8.95312 8.30078 8.31641 8.73438 7.76953 9.28125C7.23047 9.82812 6.80078 10.4648 6.48047 11.1914C6.16016 11.918 6 12.6875 6 13.5V16.5C6 17.3281 6.15625 18.1055 6.46875 18.832C6.78906 19.5586 7.21875 20.1953 7.75781 20.7422C8.30469 21.2812 8.94141 21.7109 9.66797 22.0312C10.3945 22.3438 11.1719 22.5 12 22.5C12.8281 22.5 13.6055 22.3438 14.332 22.0312C15.0586 21.7109 15.6914 21.2812 16.2305 20.7422C16.7773 20.1953 17.207 19.5586 17.5195 18.832C17.8398 18.1055 18 17.3281 18 16.5V13.5Z" fill="white"/>
</svg>
