<svg width="28" height="28" viewBox="0 0 28 28" fill="none" xmlns="http://www.w3.org/2000/svg">
<path d="M14 23.15C13.25 23.15 12.5 23 11.75 22.7L12.5 21.2C13.55 21.65 14.6 21.65 15.65 21.2L16.25 22.55C15.65 23 14.9 23.15 14 23.15Z" fill="white"/>
<path d="M9.65001 10.55C9.35001 10.1 9.20001 9.5 9.20001 9.04999C9.20001 7.84999 9.65001 6.5 10.55 5.6C11.45 4.55 12.65 4.09999 14 3.94999C15.35 3.79999 16.55 4.24999 17.6 5.14999C18.65 6.05 19.1 7.25 19.25 8.6C19.25 9.2 19.25 9.95 18.95 10.55L17.6 10.1C17.75 9.65 17.75 9.2 17.75 8.75C17.75 7.85 17.3 6.95 16.55 6.35C15.8 5.6 14.9 5.29999 14 5.44999C13.1 5.44999 12.2 5.9 11.6 6.5C11 7.25 10.7 8.14999 10.7 9.04999C10.7 9.35 10.85 9.65 11 10.1L9.65001 10.55Z" fill="white"/>
<path d="M9.68177 3.03314L8.62097 4.09364L10.5299 6.00308L11.5907 4.94258L9.68177 3.03314Z" fill="white"/>
<path d="M18.7113 2.93757L16.4839 5.16493L17.5446 6.22558L19.772 3.99822L18.7113 2.93757Z" fill="white"/>
<path d="M10.1 25.1C7.09999 23.6 5.29999 20.6 5.29999 17.3C5.29999 12.5 9.19999 8.60001 14 8.60001C18.8 8.60001 22.7 12.5 22.7 17.3C22.7 20.45 21.05 23.3 18.35 24.8H17.6L16.25 24.05L15.95 23.6L14.15 18.65L12.35 23.9L12.05 24.35L10.85 24.95L10.1 25.1ZM14 10.25C10.1 10.25 6.79999 13.4 6.79999 17.45C6.79999 20 8.14999 22.4 10.4 23.6L11 23.3L13.4 16.25H14.75L17.15 23L17.9 23.45C19.85 22.1 21.2 19.85 21.2 17.45C21.2 13.4 17.9 10.25 14 10.25Z" fill="white"/>
</svg>
