<svg width="24" height="24" viewBox="0 0 24 24" fill="none" xmlns="http://www.w3.org/2000/svg">
<g clip-path="url(#clip0)">
<path d="M24 14.0011V12.0011H20.332C20.2847 10.4508 19.895 8.93014 19.191 7.54809L22.446 4.29309L21.032 2.87909L17.91 6.00109H6.09L2.968 2.87909L1.554 4.29309L4.809 7.54809C4.10499 8.93014 3.71535 10.4508 3.668 12.0011H0V14.0011H3.78C4.00544 15.5827 4.59791 17.0895 5.51 18.4011L2.249 21.6611L3.663 23.0751L6.839 19.9011C8.24177 21.2076 10.0831 21.9411 12 21.9571C13.9169 21.9411 15.7582 21.2076 17.161 19.9011L20.337 23.0771L21.751 21.6631L18.49 18.4011C19.4021 17.0895 19.9946 15.5827 20.22 14.0011H24ZM16.881 16.7921L15.467 18.2011L12 14.7391L8.533 18.2011L7.119 16.7921L10.586 13.3251L7.119 9.85809L8.533 8.44409L12 11.9111L15.467 8.44409L16.881 9.85809L13.414 13.3251L16.881 16.7921Z" fill="#F4F4F4"/>
<path d="M16 3.78209C15.9673 2.7515 15.5285 1.77564 14.7791 1.06734C14.0298 0.359036 13.0308 -0.0242435 12 0.00108883C10.9692 -0.0242435 9.9702 0.359036 9.22088 1.06734C8.47155 1.77564 8.03269 2.7515 8 3.78209V4.00109H16V3.78209Z" fill="#F4F4F4"/>
</g>
<defs>
<clipPath id="clip0">
<rect width="24" height="24" fill="white"/>
</clipPath>
</defs>
</svg>
