<svg width="16" height="16" viewBox="0 0 16 16" fill="none" xmlns="http://www.w3.org/2000/svg">
<path d="M4.875 3.625V6.6875C4.875 7.06576 4.94108 7.42806 5.07324 7.77441C5.2054 8.11621 5.38997 8.42155 5.62695 8.69043C5.85938 8.95931 6.13737 9.1849 6.46094 9.36719C6.77995 9.54492 7.1263 9.66113 7.5 9.71582V15H8.375V9.71582C8.75326 9.66113 9.10189 9.54492 9.4209 9.36719C9.73991 9.1849 10.0179 8.95931 10.2549 8.69043C10.4873 8.42155 10.6696 8.11621 10.8018 7.77441C10.9339 7.42806 11 7.06576 11 6.6875V3.625H10.125V1H9.25V3.625H6.625V1H5.75V3.625H4.875ZM5.75 4.5H10.125V6.6875C10.125 6.98828 10.068 7.27311 9.9541 7.54199C9.84017 7.80632 9.68522 8.03874 9.48926 8.23926C9.28874 8.43522 9.05632 8.59017 8.79199 8.7041C8.52311 8.81803 8.23828 8.875 7.9375 8.875C7.63672 8.875 7.35417 8.81803 7.08984 8.7041C6.82552 8.59017 6.59538 8.43522 6.39941 8.23926C6.19889 8.03874 6.04167 7.80632 5.92773 7.54199C5.80924 7.27311 5.75 6.98828 5.75 6.6875V4.5Z" fill="#F48771"/>
</svg>
