<svg width="16" height="16" viewBox="0 0 16 16" fill="none" xmlns="http://www.w3.org/2000/svg">
<path d="M5 2H6V14H5V2ZM11 2V14H10V2H11Z" fill="#75BEFF"/>
<path d="M5 2V1.75H4.75V2H5ZM6 2H6.25V1.75H6V2ZM6 14V14.25H6.25V14H6ZM5 14H4.75V14.25H5V14ZM11 2H11.25V1.75H11V2ZM11 14V14.25H11.25V14H11ZM10 14H9.75V14.25H10V14ZM10 2V1.75H9.75V2H10ZM5 2.25H6V1.75H5V2.25ZM5.75 2V14H6.25V2H5.75ZM6 13.75H5V14.25H6V13.75ZM5.25 14V2H4.75V14H5.25ZM10.75 2V14H11.25V2H10.75ZM11 13.75H10V14.25H11V13.75ZM10.25 14V2H9.75V14H10.25ZM10 2.25H11V1.75H10V2.25Z" fill="#75BEFF"/>
</svg>
