<svg width="16" height="16" viewBox="0 0 16 16" fill="none" xmlns="http://www.w3.org/2000/svg">
<g clip-path="url(#clip0)">
<path d="M11.3149 4.78722L11.1386 4.61094L10.9618 4.78673L9.24008 6.49883V1V0.75H8.99008H7.99008H7.74008V1V6.48405L6.03652 4.78689L5.85974 4.61078L5.6833 4.78722L4.9763 5.49422L4.79952 5.671L4.9763 5.84778L8.3283 9.19978L8.50539 9.37687L8.68217 9.19946L12.0222 5.84746L12.1983 5.67068L12.0219 5.49422L11.3149 4.78722Z" fill="#75BEFF" stroke="#75BEFF" stroke-width="0.5"/>
<path d="M8.49902 15C9.60359 15 10.499 14.1046 10.499 13C10.499 11.8954 9.60359 11 8.49902 11C7.39445 11 6.49902 11.8954 6.49902 13C6.49902 14.1046 7.39445 15 8.49902 15Z" fill="#75BEFF"/>
</g>
<defs>
<clipPath id="clip0">
<rect width="14" height="14" fill="white" transform="translate(1 1)"/>
</clipPath>
</defs>
</svg>
