<svg width="16" height="16" viewBox="0 0 16 16" fill="none" xmlns="http://www.w3.org/2000/svg">
<path fill-rule="evenodd" clip-rule="evenodd" d="M12.5514 5.35264L11.1389 6.76513L9.48991 5.12535V10.023H8.98991V3.92309L8.98983 3.92301V10.023L7.98991 10.023L7.98983 10.023L7.48991 10.023V5.14091L5.85924 6.76545L4.4458 5.35201L8.50554 1.29227L12.5514 5.35264ZM7.98983 3.93708V3.93701L5.85987 6.05897L5.85991 6.05901L7.98983 3.93708ZM8.50487 2.00005L11.8448 5.35201L11.1379 6.05897L11.1379 6.05901L11.8449 5.35201L8.50491 2.00001L8.50487 2.00005Z" fill="#75BEFF"/>
<path d="M8.49902 15C9.60359 15 10.499 14.1046 10.499 13C10.499 11.8954 9.60359 11 8.49902 11C7.39445 11 6.49902 11.8954 6.49902 13C6.49902 14.1046 7.39445 15 8.49902 15Z" fill="#75BEFF"/>
</svg>
