<svg fill="none" height="16" viewBox="0 0 16 16" width="16" xmlns="http://www.w3.org/2000/svg"><path clip-rule="evenodd" d="m6.6 11.7673c.72871-.729.72871-1.91092 0-2.63988-.72917-.72897-1.91087-.72897-2.64004 0-1.04184 1.09748-2.85585.81159-2.94706-.69889-.00856-.14174-.0129-.28463-.0129-.42853 0-3.86601 3.13405-7 7-7 3.866 0 7 3.13399 7 7 0 3.866-3.134 7-7 7-.20226 0-.40251-.0086-.60041-.0254-1.59313-.1353-1.90099-2.0483-.79959-3.2073zm.36675 1.7761c-.06424-.297.02146-.7284.35144-1.0802 1.1081-1.1203 1.10445-2.92697-.01096-4.04277l-.00022-.00022c-1.11967-1.11936-2.93439-1.11936-4.05406 0l-.00924.00924-.009.00948c-.29568.31147-.6638.38706-.90221.33775-.11314-.0234-.18229-.07001-.22271-.11507-.03586-.03999-.08833-.12145-.09871-.29335-.00735-.1217-.01108-.24448-.01108-.36826 0-3.31372 2.68633-6 6-6 3.3137 0 6 2.68628 6 6 0 3.3137-2.6863 6-6 6-.17398 0-.346-.0074-.51579-.0218-.19429-.0165-.29933-.0795-.36007-.1353-.06583-.0605-.12647-.1565-.15739-.2995zm-1.96675-7.5434c.55228 0 1-.44772 1-1s-.44772-1-1-1-1 .44772-1 1 .44772 1 1 1zm7 5c0 .5523-.4477 1-1 1s-1-.4477-1-1 .4477-1 1-1 1 .4477 1 1zm-4-6c.55228 0 1-.44772 1-1s-.44772-1-1-1-1 .44772-1 1 .44772 1 1 1zm5 3c0 .55228-.4477 1-1 1s-1-.44772-1-1 .4477-1 1-1 1 .44772 1 1zm-2-2c.5523 0 1-.44772 1-1s-.4477-1-1-1-1 .44772-1 1 .4477 1 1 1z" fill="#fff" fill-rule="evenodd"/></svg>