<svg viewBox="0 0 16 16" xmlns="http://www.w3.org/2000/svg"><path d="m16 16h-16v-16h16z" fill="#2d2d30" opacity="0"/><path d="m16 8c0 4.411-3.589 8-8 8a2.803 2.803 0 0 1 -2.8-2.8c0-.833.272-1.629.766-2.241a.596.596 0 0 0 .101-.359.667.667 0 0 0 -.667-.666.58.58 0 0 0 -.358.102 3.584 3.584 0 0 1 -2.242.764 2.803 2.803 0 0 1 -2.8-2.8c0-4.411 3.589-8 8-8s8 3.589 8 8z" fill="#2d2d30"/><path d="m5.4 7.933a2.67 2.67 0 0 1 2.667 2.666c0 .606-.193 1.179-.544 1.614a1.599 1.599 0 0 0 -.323.987.8.8 0 0 0 .8.8c3.309 0 6-2.691 6-6s-2.691-6-6-6-6 2.691-6 6c0 .441.359.8.8.8.378 0 .729-.114.986-.322a2.568 2.568 0 0 1 1.614-.545z"/><path d="m8 15c-.992 0-1.8-.808-1.8-1.8 0-.606.193-1.179.544-1.613.208-.259.323-.609.323-.987 0-.919-.748-1.666-1.667-1.666-.377 0-.728.115-.986.323a2.58 2.58 0 0 1 -1.614.543c-.992 0-1.8-.808-1.8-1.8 0-3.86 3.14-7 7-7 3.859 0 7 3.14 7 7 0 3.859-3.141 7-7 7zm-2.6-7.067a2.67 2.67 0 0 1 2.667 2.666c0 .606-.193 1.179-.544 1.614a1.599 1.599 0 0 0 -.323.987.8.8 0 0 0 .8.8c3.309 0 6-2.691 6-6s-2.691-6-6-6-6 2.691-6 6c0 .441.359.8.8.8.378 0 .729-.114.986-.322a2.568 2.568 0 0 1 1.614-.545z" fill="#c5c5c5"/><path d="m4.5 5.375a.875.875 0 1 0 0 1.75.875.875 0 0 0 0-1.75z" fill="#b180d7"/><path d="m7.125 3.625a.875.875 0 1 0 0 1.75.875.875 0 0 0 0-1.75z" fill="#1ba1e2"/><path d="m10.625 4.5a.875.875 0 1 0 0 1.75.875.875 0 0 0 0-1.75z" fill="#393"/><path d="m11.5 8a.875.875 0 1 0 0 1.75.875.875 0 0 0 0-1.75z" fill="#fc0"/><path d="m9.75 10.625a.875.875 0 1 0 0 1.75.875.875 0 0 0 0-1.75z" fill="#f48771"/></svg>