<svg fill="none" height="16" viewBox="0 0 16 16" width="16" xmlns="http://www.w3.org/2000/svg"><path clip-rule="evenodd" d="m8 15c3.866 0 7-3.134 7-7 0-3.86601-3.134-7-7-7-3.86595 0-7 3.13399-7 7 0 .1439.00434.28678.0129.42853.09121 1.51048 1.90522 1.79637 2.94706.69889.72917-.72897 1.91087-.72897 2.64004 0 .72871.72896.72871 1.91088 0 2.63988-1.1014 1.159-.79354 3.072.79959 3.2073.1979.0168.39815.0254.60041.0254zm-3-9c.55228 0 1-.44772 1-1s-.44772-1-1-1-1 .44772-1 1 .44772 1 1 1zm7 5c0 .5523-.4477 1-1 1s-1-.4477-1-1 .4477-1 1-1 1 .4477 1 1zm-4-6c.55228 0 1-.44772 1-1s-.44772-1-1-1-1 .44772-1 1 .44772 1 1 1zm5 3c0 .55228-.4477 1-1 1s-1-.44772-1-1 .4477-1 1-1 1 .44772 1 1zm-2-2c.5523 0 1-.44772 1-1s-.4477-1-1-1-1 .44772-1 1 .4477 1 1 1z" fill="#fff" fill-rule="evenodd"/></svg>