<svg viewBox="0 0 16 16" xmlns="http://www.w3.org/2000/svg"><path d="m16 16h-16v-16h16z" fill="#f6f6f6" opacity="0"/><path d="m2.879 14-1.879-1.879v-8.242l1.879-1.879h10.242l1.879 1.879v8.242l-1.879 1.879z" fill="#f6f6f6"/><path d="m12.293 4h-8.586l-.707.707v6.586l.707.707h8.586l.707-.707v-6.586zm-1.293 6h-6v-1h6zm0-3h-6v-1h6z" fill="#f0eff1"/><path d="m12.707 13h-9.414l-1.293-1.293v-7.414l1.293-1.293h9.414l1.293 1.293v7.414zm-9-1h8.586l.707-.707v-6.586l-.707-.707h-8.586l-.707.707v6.586z" fill="#424242"/><path d="m11 7h-6v-1h6zm0 2h-6v1h6z" fill="#00539c"/></svg>