<svg fill="none" height="16" viewBox="0 0 16 16" width="16" xmlns="http://www.w3.org/2000/svg" xmlns:xlink="http://www.w3.org/1999/xlink"><mask id="a" fill="#fff"><path clip-rule="evenodd" d="m15.0015 3h-14.00004v10h14.00004zm-11.00004 3h8.04214v1h-8.04214zm0 3.00001h8.04214v.99999h-8.04214z" fill="#fff" fill-rule="evenodd"/></mask><g fill="#fff"><path clip-rule="evenodd" d="m15.0015 3h-14.00004v10h14.00004zm-11.00004 3h8.04214v1h-8.04214zm0 3.00001h8.04214v.99999h-8.04214z" fill-rule="evenodd"/><path d="m1.00146 3v-1h-.99999516v1zm14.00004 0h1v-1h-1zm-14.00004 10h-.99999516v1h.99999516zm14.00004 0v1h1v-1zm-2.9579-7h1v-1h-1zm-8.04214 0v-1h-1v1zm8.04214 1v1h1v-1zm-8.04214 0h-1v1h1zm8.04214 2.00001h1v-1h-1zm-8.04214 0v-1h-1v1zm8.04214.99999v1h1v-1zm-8.04214 0h-1v1h1zm-3-6h14.00004v-2h-14.00004zm1 9v-10h-1.99999516v10zm13.00004-1h-14.00004v2h14.00004zm-1-9v10h2v-10zm-1.9579 2h-8.04214v2h8.04214zm1 2v-1h-2v1zm-9.04214 1h8.04214v-2h-8.04214zm-1-2v1h2v-1zm9.04214 2.00001h-8.04214v1.99999h8.04214zm1 1.99999v-.99999h-2v.99999zm-9.04214 1h8.04214v-1.99999h-8.04214zm-1-1.99999v.99999h2v-.99999z" mask="url(#a)"/></g></svg>