<svg viewBox="0 0 16 16" xmlns="http://www.w3.org/2000/svg"><path d="m16 16h-16v-16h16z" fill="#2d2d30" opacity="0"/><path d="m14.414 1 1.586 1.586v5.828l-1.586 1.586h-4.414v3.416l-1.586 1.584h-6.828l-1.586-1.584v-5.83l1.586-1.586h4.414v-3.414l1.586-1.586z" fill="#2d2d30"/><path d="m2 13h6v-5h-6zm1-4h4v1h-4zm0 2h4v1h-4zm11-5v-3h-6v3h.414l.586.586v-.586h4v1h-3.586l.586.586v.414h4zm-1-1h-4v-1h4z" fill="#2b282e"/><path d="m3 11h4.001v1h-4.001zm0-1h4.001v-1h-4.001zm6-2v5l-1 1h-6l-1-1v-5l1-1h6zm-1 0h-6v5h6zm1-2 1 1h3v-1zm0-1h4v-1h-4zm5-3h-6l-1 1v3h1v-3h6v5h-4v1h4l1-1v-5z" fill="#e8ab53"/></svg>