<svg fill="none" height="16" viewBox="0 0 16 16" width="16" xmlns="http://www.w3.org/2000/svg"><g fill="#fff"><path clip-rule="evenodd" d="m11.5 5.71429c-.9862 0-1.78571.79949-1.78571 1.78571s.79951 1.78571 1.78571 1.78571 1.7857-.79949 1.7857-1.78571-.7995-1.78571-1.7857-1.78571zm-2.5 1.78571c0-1.38071 1.1193-2.5 2.5-2.5s2.5 1.11929 2.5 2.5-1.1193 2.5-2.5 2.5-2.5-1.11929-2.5-2.5z" fill-rule="evenodd"/><path clip-rule="evenodd" d="m8 7.5c0-1.933 1.567-3.5 3.5-3.5s3.5 1.567 3.5 3.5-1.567 3.5-3.5 3.5-3.5-1.567-3.5-3.5zm3.5-2.5c-1.3807 0-2.5 1.11929-2.5 2.5s1.1193 2.5 2.5 2.5 2.5-1.11929 2.5-2.5-1.1193-2.5-2.5-2.5z" fill-rule="evenodd"/><path d="m3 9.5c1.10457 0 2-.89543 2-2s-.89543-2-2-2-2 .89543-2 2 .89543 2 2 2z"/><path d="m4 6.75h-.25v.25 1 .25h.25 5 .25v-.25-1-.25h-.25z" stroke="#fff" stroke-width=".5"/></g></svg>