<svg viewBox="0 0 16 16" xmlns="http://www.w3.org/2000/svg"><path d="m16 16h-16v-16h16z" fill="#2d2d30" opacity="0"/><path d="m11.5 12c-1.915 0-3.602-1.241-4.228-3h-1.41a3.11 3.11 0 0 1 -2.737 1.625c-1.723 0-3.125-1.402-3.125-3.125s1.402-3.125 3.125-3.125c1.165 0 2.201.639 2.737 1.625h1.41c.626-1.759 2.313-3 4.228-3 2.481 0 4.5 2.019 4.5 4.5s-2.019 4.5-4.5 4.5z" fill="#2d2d30"/><path d="m11.5 9a1.501 1.501 0 1 1 1.5-1.5c0 .826-.673 1.5-1.5 1.5z" fill="#2b282e"/><path d="m11.5 4a3.49 3.49 0 0 0 -3.45 3h-2.865a2.122 2.122 0 0 0 -4.185.5 2.123 2.123 0 1 0 4.185.5h2.865a3.49 3.49 0 0 0 3.45 3 3.5 3.5 0 1 0 0-7zm0 5c-.827 0-1.5-.673-1.5-1.5s.673-1.5 1.5-1.5 1.5.673 1.5 1.5-.673 1.5-1.5 1.5z" fill="#75beff"/></svg>