<svg viewBox="0 0 16 16" xmlns="http://www.w3.org/2000/svg"><path d="m16 16h-16v-16h16z" fill="#f6f6f6" opacity="0"/><path d="m15 3.349v8.403l-6.025 4.248h-.905l-7.07-4.418v-8.255l6.595-3.327h1.118z" fill="#f6f6f6"/><path d="m12.715 4.398-4.228 2.622-4.922-2.748 4.578-2.309zm-9.715.704 5 2.792v5.705l-5-3.125zm6 8.434v-5.658l4-2.48v5.317z" fill="#f0eff1"/><path d="m8.156.837-6.156 3.105v7.085l6.517 4.073 5.483-3.867v-7.283zm4.559 3.561-4.228 2.622-4.922-2.748 4.578-2.309zm-9.715.704 5 2.792v5.705l-5-3.125zm6 8.434v-5.658l4-2.48v5.317z" fill="#652d90"/></svg>