<svg viewBox="0 0 16 16" xmlns="http://www.w3.org/2000/svg"><path d="m16 16h-16v-16h16z" fill="#2d2d30" opacity="0"/><path d="m9.26 11.984.978-.021a.962.962 0 0 0 .09-.006c.011-.063.026-.179.026-.361v-1.908c0-.679.185-1.257.53-1.707-.346-.452-.53-1.03-.53-1.705v-1.926c0-.167-.021-.259-.034-.302l-1.06-.028v-3.047l1.011.011c2.167.024 3.409 1.156 3.409 3.105v1.962c0 .351.071.461.072.462l.936.06.053.927v1.936l-.936.061c-.076.016-.125.146-.125.424v2.017c0 .914-.332 3.043-3.408 3.078l-1.012.011zm-3.521 3.032c-3.089-.035-3.422-2.164-3.422-3.078v-2.017c0-.327-.066-.432-.067-.433l-.937-.06-.063-.929v-1.936l.942-.06c.058 0 .125-.114.125-.452v-1.961c0-1.949 1.248-3.081 3.422-3.105l1.011-.012v3.047l-.975.023a.572.572 0 0 0 -.093.01c.006.021-.019.115-.019.297v1.928c0 .675-.186 1.253-.534 1.705.348.45.534 1.028.534 1.707v1.907c0 .175.014.291.027.363.023.002 1.06.025 1.06.025v3.043z" fill="#2d2d30"/><path d="m5.75 14.016c-1.623-.019-2.434-.711-2.434-2.078v-2.017c0-.902-.355-1.376-1.066-1.422v-.998c.711-.045 1.066-.529 1.066-1.449v-1.962c0-1.385.811-2.087 2.434-2.105v1.06c-.725.017-1.087.453-1.087 1.305v1.928c0 .92-.454 1.488-1.36 1.702v.02c.907.201 1.36.763 1.36 1.688v1.907c0 .488.081.835.243 1.042.162.208.443.316.844.325zm7.99-5.517c-.706.045-1.06.52-1.06 1.422v2.017c0 1.367-.807 2.06-2.42 2.078v-1.053c.396-.009.678-.118.844-.328.167-.21.25-.556.25-1.039v-1.908c0-.925.449-1.488 1.347-1.688v-.021c-.898-.214-1.347-.782-1.347-1.702v-1.927c0-.852-.364-1.288-1.094-1.306v-1.06c1.613.018 2.42.72 2.42 2.105v1.962c0 .92.354 1.404 1.06 1.449z" fill="#c5c5c5"/></svg>