<svg fill="none" height="16" viewBox="0 0 16 16" width="16" xmlns="http://www.w3.org/2000/svg"><g clip-rule="evenodd" fill="#fff" fill-rule="evenodd"><path d="m6 2.97184v.01177h-.08917c-.1997 0-.38703.04066-.56281.12152-.17341.07762-.32609.18429-.45716.31924-.12665.13038-.22951.28597-.30848.46768-.07405.17947-.11104.36814-.11104.56697 0 .22823.00396.45438.01187.67847.00804.22356.00806.44513.00003.6647-.0041.21754-.02242.43111-.05498.64066-.03313.2089-.08913.40978-.16787.60179-.07948.19379-.18781.3779-.32423.55238-.11271.14417-.25078.27836-.41333.40298.16255.12462.30062.25881.41333.40298.13642.17448.24475.35859.32423.55238.07882.19221.13474.39488.16784.60776.03261.20571.05091.41934.05501.64078.00803.2156.00801.4372-.00003.6647-.00791.2199-.01187.4441-.01187.6724 0 .203.03704.3936.11089.5727.07881.1774.18163.3332.30863.4681.13108.1308.2831.2373.45677.319.17583.0769.36332.1156.5632.1156h.08917v.1836.8h-.08917c-.3134 0-.61676-.0616-.90955-.1847-.2931-.1233-.55186-.3-.7755-.5303-.22267-.2292-.38785-.48-.49295-.7527l-.00051-.0013c-.09845-.266-.16413-.5407-.19697-.8238l-.00019-.0017c-.02839-.284-.03646-.5739-.02432-.8698.01188-.2895.01782-.579.01782-.86849 0-.19838-.0388-.38674-.11665-.56613l-.00072-.00166c-.0747-.18071-.17701-.33572-.30717-.4659l-.00191-.00191c-.12644-.13399-.27764-.24005-.45479-.31765l-.00141-.00062c-.176-.08096-.36136-.12154-.55684-.12154h-.08917v-.0918-.8-.0918h.08917c.1958 0 .38143-.03866.55755-.1157.17794-.08195.32972-.18845.45645-.31892.13106-.13492.2337-.29062.30843-.46757l.0004-.00094c.07774-.17913.11666-.36951.11666-.57228 0-.2895-.00594-.579-.01782-.86851-.01214-.29584-.00406-.58378.02435-.86375l.00014-.00136c.03281-.28716.09849-.56397.197-.83019l.00049-.00132c.1051-.27268.27029-.52344.49296-.75268.22364-.23024.4824-.407.7755-.53025.29279-.12312.59615-.18473.90955-.18473h.08917z"/><path d="m10 13.0282v-.0118h.0892c.1997 0 .387-.0407.5628-.1215.1734-.0776.3261-.1843.4571-.3193.1267-.1304.2295-.2859.3085-.4677.0741-.1794.1111-.3681.1111-.5669 0-.2282-.004-.4544-.0119-.6785-.0081-.2236-.0081-.4451 0-.6647.0041-.21753.0224-.4311.0549-.64065.0332-.2089.0892-.40978.1679-.60179.0795-.19379.1878-.3779.3242-.55238.1127-.14417.2508-.27836.4134-.40298-.1626-.12462-.3007-.25881-.4134-.40298-.1364-.17448-.2447-.35859-.3242-.55238-.0788-.19221-.1347-.39488-.1678-.60776-.0326-.20571-.0509-.41934-.055-.64083-.0081-.21556-.008-.43711 0-.66463.0079-.21997.0119-.44415.0119-.6724 0-.20306-.0371-.39362-.1109-.57274-.0788-.17739-.1817-.33323-.3087-.46805-.131-.13087-.2831-.23731-.4567-.31906-.1759-.07687-.3633-.11556-.5632-.11556h-.0892v-.18361-.8h.0892c.3134 0 .6167.06161.9095.18473.2931.12325.5519.30001.7755.53025.2227.22924.3879.48001.493.75268l.0005.00131c.0984.26605.1641.54074.1969.82388l.0002.00169c.0284.28394.0365.57388.0244.86974-.0119.28951-.0179.57901-.0179.86851 0 .19838.0388.38674.1167.56613l.0007.00166c.0747.18071.177.33572.3072.4659l.0019.00191c.1264.13399.2776.24005.4548.31765l.0014.00062c.176.08096.3613.12154.5568.12154h.0892v.0918.8.0918h-.0892c-.1958 0-.3814.03866-.5575.1157-.178.08195-.3297.18845-.4565.31892-.131.13492-.2337.29062-.3084.46757l-.0004.00094c-.0777.17913-.1167.36951-.1167.57228 0 .28949.006.57899.0179.86849.0121.2959.004.5838-.0244.8638l-.0001.0013c-.0328.2872-.0985.564-.197.8302l-.0005.0013c-.1051.2727-.2703.5235-.493.7527-.2236.2303-.4824.407-.7755.5303-.2928.1231-.5961.1847-.9095.1847h-.0892z"/></g></svg>