<svg fill="none" height="16" viewBox="0 0 16 16" width="16" xmlns="http://www.w3.org/2000/svg"><g fill="#fff"><path d="m14.5 6.508h-.089c-.1202.00077-.2391-.02519-.348-.076h-.008c-.1099-.04613-.2093-.11418-.292-.2h-.006c-.0858-.0858-.1538-.18776-.2-.3v-.009c-.0505-.11573-.0764-.24072-.076-.367 0-.28333.006-.566.018-.848.0132-.31358.0041-.62769-.027-.94v-.01c-.0369-.32115-.1121-.63673-.224-.94v-.006c-.1354-.34454-.3396-.65791-.6-.921-.2651-.28-.5843-.50332-.9382-.65646-.3539-.15315-.7352-.23294-1.1208-.23454h-.589v1.984h.589c.1227-.00098.2443.02354.357.072.1112.05335.2126.12502.3.212.0859.09308.1561.19946.208.315.048.11953.0724.2472.072.376 0 .22267-.004.44067-.012.654-.008.235-.008.466 0 .691v.01c.0035.23445.0236.46837.06.7.0382.24669.1053.48803.2.719.0994.24073.2317.46654.393.671.027.035.068.061.1.095-.029.034-.07.06-.1.095-.1613.20446-.2936.43027-.393.671-.0943.22904-.1614.46834-.2.713-.0362.23167-.0562.46556-.06.7v.008c-.008.22867-.008.4593 0 .692.008.2193.012.4397.012.661.0006.1276-.0242.2541-.073.372-.0487.1165-.1186.2229-.206.314-.0853.0893-.1872.1609-.3.211h-.005c-.111.0508-.2319.0764-.354.075h-.588v1.989h.589c.3814-.0005.7587-.0775 1.1098-.2264s.6688-.3668.9342-.6406c.2604-.2631.4646-.5765.6-.921v-.006c.1123-.3056.1875-.6235.224-.947v-.007c.0312-.3106.0402-.6231.027-.935-.012-.282-.018-.56467-.018-.848-.0011-.12829.0248-.25538.076-.373.0953-.23403.2778-.4219.509-.524.1113-.04857.2315-.07343.353-.073h.596v-1.991z"/><path d="m5.411 1c-.18873-.000046-.37699.01871-.562.056-.18564.03846-.36715.09472-.542.168-.3539.148-.67379.36682-.94.643-.26044.26309-.46459.57646-.6.921v.006c-.11226.30558-.18747.62351-.224.947v.007c-.03116.31063-.04018.62309-.027.935.012.282.018.56467.018.848.00113.12829-.02477.25538-.076.373-.09535.23403-.27784.4219-.509.524-.11132.04857-.23154.07343-.353.073h-.596v1.991h.589c.1202-.00077.23907.02519.348.076h.008c.10991.04613.20927.11418.292.2h.005c.08584.0858.15382.18776.2.3v.008c.05052.11574.07641.24072.076.367 0 .28333-.006.566-.018.848-.006.159.009.313.013.47s0 .316.014.47v.01c.03688.3212.11209.6367.224.94v.006c.13541.3445.33956.6579.6.921.26649.2759.5863.4946.94.643.17485.0733.35636.1295.542.168.18937.0468.38306.0739.578.081h.589v-1.984h-.589c-.1227.001-.24427-.0235-.357-.072-.11118-.0534-.21259-.125-.3-.212-.08588-.0931-.15613-.1995-.208-.315-.04799-.1195-.07244-.2472-.072-.376 0-.2233.004-.4413.012-.654.008-.235.008-.466 0-.691v-.01c-.00353-.23445-.02358-.46837-.06-.7-.009-.054-.032-.1-.043-.156-.03442-.1921-.08665-.38058-.156-.563-.10098-.23956-.23458-.46401-.397-.667-.027-.035-.068-.061-.1-.095.029-.034.07-.06.1-.095.16134-.20446.29359-.43027.393-.671.09429-.22904.16142-.46834.2-.713.03616-.23167.0562-.46556.06-.7v-.014c.008-.22933.008-.46 0-.692-.008-.21933-.012-.43967-.012-.661-.00064-.12762.02418-.25409.073-.372.04874-.11646.11858-.22291.206-.314.08526-.08925.18718-.16093.3-.211h.005c.11104-.05076.23192-.07637.354-.075h.591v-1.987z"/></g></svg>