<svg fill="none" height="16" viewBox="0 0 16 16" width="16" xmlns="http://www.w3.org/2000/svg"><path clip-rule="evenodd" d="m15 1h-14v14h14zm-1.68 2.25891c.3491.41213.5743.90931.651 1.4371v-.00387c.0572.3953.0296.79777-.081 1.1823-.1107.38452-.3019.74284-.5619 1.05261-.2599.30977-.583.56433-.9491.74782-.366.18349-.7672.29195-1.1785.31863-.4112.02668-.8238-.02899-1.21184-.16356-.38806-.13456-.74333-.34512-1.04363-.61855-.3003-.27342-.5392-.60384-.70179-.97063-.16258-.3668-.24537-.76211-.2432-1.16127.00064-.39804.08738-.79153.25462-1.15513.16724-.36361.41127-.68925.71638-.95597h-.971v-.96839h2.65296v2.57012h-.99996v-.93644c-.21428.17939-.38612.40139-.50381.65089-.11769.24949-.17846.52063-.17819.79492-.00047.35877.10125.71072.29398 1.01712s.469.55538.79838.71955c.3294.16417.6992.23717 1.0687.21097s.7244-.15059 1.0256-.35948c.3012-.2089.5371-.4942.6816-.82452.1446-.33032.1923-.69286.1379-1.04774-.0545-.35487-.2089-.68833-.4464-.96368s-.5489-.48193-.8998-.59701l-.071-.02324.368-.85606c.5543.14415 1.0437.46182 1.392.90351zm-7.37071-1.11644-3.87361 3.87361.8918.89179 3.8736-3.8736zm6.05071 6.85753h-1v2h-2v1h2v2h1v-2h2v-1h-2zm-10 5 3-6 3 6zm1.73263-1.0769 1.26737-2.5348 1.26737 2.5348zm-.73263-8.9231c.55228 0 1-.44772 1-1s-.44772-1-1-1-1 .44772-1 1 .44772 1 1 1zm4 2c0 .55228-.44772 1-1 1s-1-.44772-1-1 .44772-1 1-1 1 .44772 1 1z" fill="#fff" fill-rule="evenodd"/></svg>