<svg fill="none" height="16" viewBox="0 0 16 16" width="16" xmlns="http://www.w3.org/2000/svg"><path clip-rule="evenodd" d="m12.5 9h-1v2.5h-2.5v1h2.5v2.5h1v-2.5h2.5v-1h-2.5z" fill="#fff" fill-rule="evenodd"/><path d="m1.81277 14.5 2.21832-4.3911 2.21832 4.3911z" stroke="#fff"/><g fill="#fff"><path clip-rule="evenodd" d="m14.971 3.784c-.0767-.54502-.3019-1.05842-.651-1.484-.3483-.4561-.8377-.78415-1.392-.933l-.368.884.071.024c.3509.11883.6623.33215.8998.61649s.3919.62868.4464.99514c.0544.36646.0067.74083-.1379 1.08193-.1445.3411-.3804.63572-.6816.85143s-.6561.34416-1.0256.37122c-.3695.02705-.7393-.04833-1.0687-.21786s-.6056-.42664-.7984-.74304c-.1927-.3164-.29443-.67983-.29396-1.05031-.00027-.28325.06046-.56323.17816-.82087s.2896-.48689.5038-.67213v.967h1v-2.654h-2.65296v1h.971c-.30511.27542-.54914.61169-.71638.98716s-.25398.78181-.25462 1.19284c-.00217.41218.08062.8204.2432 1.19916.16259.37877.40149.71998.70179 1.00232.30027.28235.65557.49978 1.04367.63874.388.13895.8006.19645 1.2118.1689.4113-.02755.8125-.13956 1.1785-.32904.3661-.18947.6892-.45235.9491-.77222.26-.31988.4512-.6899.5619-1.08697.1106-.39707.1382-.81268.081-1.22089z" fill-rule="evenodd"/><path d="m6.42989 1.10951-5.32027 5.32027.68589.68589 5.32027-5.32027z"/><path d="m3.61802 1.82988c-.14257-.33188-.41034-.59409-.74513-.72965-.3348-.135569-.70957-.133538-1.04287.00565-.32674.13735-.58665.39726-.724.724-.07083.16837-.10689.34933-.106.532-.001354.26796.07678.53031.22451.75387.14774.22357.35845.39831.60549.50213.16816.07163.34922.10804.532.107.26728.00124.529-.07637.7524-.22311s.39857-.3561.5036-.60189c.07173-.16848.10815-.34989.107-.533.00173-.18446-.0347-.36729-.107-.537zm-.753.745c-.05575.13038-.15962.23425-.29.29-.13648.05601-.28953.05601-.426 0-.09189-.03813-.17166-.10055-.23077-.18058-.0591-.08002-.09531-.17462-.10473-.27365-.00943-.09904.00828-.19877.05123-.2885.04295-.08974.10951-.16609.19256-.22087.08304-.05478.17943-.08591.27883-.09007.09939-.00416.19804.01881.28537.06646.08733.04764.16005.11817.21034.204.0503.08583.07628.18373.07517.28321.00016.0721-.01412.1435-.042.21z"/><path d="m7.11797 5.32987c-.1036-.24719-.27829-.45805-.5019-.60582s-.48608-.22579-.7541-.22418c-.18267-.00089-.36363.03517-.532.106-.32674.13736-.58665.39727-.724.724-.07014.16491-.10704.34203-.1086.52123-.00156.17919.03226.35693.09951.52303.06726.1661.16664.3173.29243.44492.1258.12763.27555.22917.44066.29882.16865.0706.34966.10696.5325.10696.18283 0 .36384-.03636.5325-.10696.24699-.104.45769-.27875.60556-.50225s.22631-.48576.22544-.75375c.00053-.18283-.03622-.36385-.108-.532zm-.753.745c-.02736.0645-.06673.1232-.116.173-.04994.04936-.1086.08903-.173.117-.06748.02809-.13991.04237-.213.042-.07311.00057-.14558-.01372-.213-.042-.06461-.02759-.12334-.06731-.173-.117-.05011-.04932-.08989-.10813-.117-.173-.05601-.13647-.05601-.28952 0-.426.05534-.13042.15939-.2341.29-.289.06735-.02862.13982-.04325.213-.043.07316-.00003.14558.01459.213.043.06436.02761.12302.06695.173.116.04884.05015.08815.10878.116.173.02838.06743.043.13985.043.213 0 .07316-.01462.14558-.043.213z"/></g></svg>