<svg viewBox="0 0 16 16" xmlns="http://www.w3.org/2000/svg"><path d="m16 16h-16v-16h16z" fill="#2d2d30" opacity="0"/><path d="m16 5.5a5.5 5.5 0 0 1 -5.5 5.5c-.275 0-.543-.027-.807-.066l-.079-.012a5.429 5.429 0 0 1 -.81-.192l-4.537 4.537c-.472.473-1.1.733-1.767.733s-1.295-.26-1.768-.732a2.502 2.502 0 0 1 0-3.535l4.537-4.537a5.452 5.452 0 0 1 -.191-.812c-.005-.025-.008-.051-.012-.077a5.503 5.503 0 0 1 -.066-.807 5.5 5.5 0 1 1 11 0z" fill="#2d2d30"/><path d="m15 5.5a4.5 4.5 0 0 1 -4.5 4.5c-.693 0-1.342-.17-1.929-.45l-5.01 5.01c-.293.294-.677.44-1.061.44s-.768-.146-1.061-.439a1.5 1.5 0 0 1 0-2.121l5.01-5.01a4.483 4.483 0 0 1 -.449-1.93 4.5 4.5 0 0 1 4.5-4.5c.693 0 1.342.17 1.929.45l-2.793 2.793 2.121 2.121 2.793-2.793c.28.587.45 1.236.45 1.929z" fill="#c5c5c5"/></svg>