<svg fill="none" height="16" viewBox="0 0 16 16" width="16" xmlns="http://www.w3.org/2000/svg"><g fill="#fff"><path d="m10.2051 6.52954c-.1082-.25743-.28988-.47681-.52207-.63041-.23218-.15359-.50444-.23449-.78235-.23247-.3441.01081-.67431.139-.93636.36352-1.59694 1.53931-5.0992 5.01702-6.68029 6.68092-.21095.2723-.310414.6154-.27802.9591.03239.3436.19418.6618.45225.8894.12688.1352.27918.2437.44806.3193.16889.0756.35101.1167.53581.1211.30706-.0026.60261-.1179.83108-.3242 1.73855-1.6236 5.27622-5.19318 6.72869-6.67722.1718-.19873.2825-.44338.3186-.70419.036-.26081-.0041-.52653-.1154-.76485z"/><path d="m14.9996 5.08341c0 1.08294-.4302 2.12153-1.1959 2.88728-.7658.76575-1.8043 1.19595-2.8872 1.19595-1.08296 0-2.12152-.4302-2.88725-1.19595-.76574-.76575-1.19592-1.80434-1.19592-2.88728-.00532-.53769.09666-1.07105.29997-1.56885s.50387-.95005.88409-1.33028.83246-.68079 1.33025-.88411 1.03116-.305299 1.56886-.29998c.5008-.0051.9987.07782 1.4709.24499l-2.94087 3.02159 2.28657 2.2866 3.0215-2.94094c.1672.4722.2501.97009.245 1.47098z"/></g></svg>