<svg fill="none" height="16" viewBox="0 0 16 16" width="16" xmlns="http://www.w3.org/2000/svg"><path d="m2.80723 14.9754c-.23604-.0033-.46897-.0543-.68476-.15-.2158-.0957-.40999-.2341-.57089-.4068-.31308-.2852-.50725-.6778-.54383-1.0997-.041525-.4361.08494-.8716.35358-1.2176 1.20646-1.2724 3.58597-3.6519 5.31678-5.34651-.36828-.99592-.35107-2.09352.04826-3.0774.32837-.81863.91232-1.50934 1.66492-1.96932.59041-.39101 1.26902-.62863 1.97441-.69134.7054-.062708 1.4152.05146 2.0654.33219l.6171.26728-2.8658 2.95118 1.2547 1.25844 2.9438-2.87695.2673.61901c.2253.52188.3448 1.08331.3515 1.65173.0067.56841-.0995 1.1325-.3125 1.65954-.2112.52114-.5249.99453-.9225 1.39207-.2253.22047-.4743.41531-.7425.58096-.5549.37057-1.1898.60418-1.8525.68162-.6628.07744-1.33449-.0035-1.95988-.23616-1.09788 1.11366-3.8384 3.87276-5.31863 5.25456-.29693.2697-.68287.4204-1.08396.4232zm7.93757-13.04738c-.6578-.00165-1.30121.19216-1.84866.55683-.21349.13035-.41177.28412-.59116.45845-.47709.48093-.79572 1.09623-.91316 1.76339s-.02808 1.35429.2561 1.96922l.1355.29697-.23294.22737c-1.73824 1.69647-4.26902 4.21985-5.48569 5.50425-.10833.1613-.15467.3563-.13044.549.02422.1928.11736.3703.26222.4997.08348.093.1852.1679.29884.2199.10016.0453.20842.0699.31832.0724.16691-.0042.32671-.0685.4501-.1809 1.57304-1.4682 4.61239-4.53819 5.50424-5.44025l.22923-.23109.29512.13457c.51376.23949 1.08068.34202 1.64578.29762.5651-.04439 1.1091-.2342 1.5792-.55098.2139-.13187.4122-.28753.5911-.46402.3098-.30892.5546-.67671.7201-1.08171.1654-.40499.2481-.839.2433-1.27646 0-.21566-.0214-.4308-.0641-.64221l-2.5772 2.51501-2.55116-2.54749 2.51496-2.58925c-.214-.0416-.4316-.06181-.6496-.06032z" fill="#fff"/></svg>