<svg width="16" height="16" viewBox="0 0 16 16" fill="none" xmlns="http://www.w3.org/2000/svg">
<path d="M13.25 7.125V15H2.75V7.125H10.625V4.5C10.625 4.1263 10.5589 3.77995 10.4268 3.46094C10.2946 3.13737 10.11 2.85938 9.87305 2.62695C9.64062 2.38997 9.36263 2.2054 9.03906 2.07324C8.72005 1.94108 8.3737 1.875 8 1.875C7.6263 1.875 7.27767 1.94108 6.9541 2.07324C6.63509 2.2054 6.3571 2.38997 6.12012 2.62695C5.8877 2.85938 5.7054 3.13737 5.57324 3.46094C5.44108 3.77995 5.375 4.1263 5.375 4.5H4.5C4.5 4.00326 4.58887 3.54297 4.7666 3.11914C4.94434 2.69076 5.19043 2.31934 5.50488 2.00488C5.81934 1.69043 6.18848 1.44434 6.6123 1.2666C7.04069 1.08887 7.50326 1 8 1C8.49674 1 8.95703 1.08887 9.38086 1.2666C9.80924 1.44434 10.1807 1.69043 10.4951 2.00488C10.8096 2.31934 11.0557 2.69076 11.2334 3.11914C11.4111 3.54297 11.5 4.00326 11.5 4.5V7.125H13.25Z" fill="#C5C5C5"/>
<path d="M13.25 7.125H13.375V7H13.25V7.125ZM13.25 15V15.125H13.375V15H13.25ZM2.75 15H2.625V15.125H2.75V15ZM2.75 7.125V7H2.625V7.125H2.75ZM10.625 7.125V7.25H10.75V7.125H10.625ZM10.4268 3.46094L10.311 3.5082L10.3113 3.50878L10.4268 3.46094ZM9.87305 2.62695L9.78379 2.7145L9.78552 2.7162L9.87305 2.62695ZM9.03906 2.07324L8.99122 2.18873L8.9918 2.18896L9.03906 2.07324ZM6.9541 2.07324L6.90684 1.95752L6.90626 1.95776L6.9541 2.07324ZM6.12012 2.62695L6.20851 2.71534L6.12012 2.62695ZM5.57324 3.46094L5.68873 3.50878L5.68896 3.5082L5.57324 3.46094ZM5.375 4.5V4.625H5.5V4.5H5.375ZM4.5 4.5H4.375V4.625H4.5V4.5ZM4.7666 3.11914L4.88188 3.16748L4.88206 3.16704L4.7666 3.11914ZM6.6123 1.2666L6.5644 1.15114L6.56396 1.15133L6.6123 1.2666ZM9.38086 1.2666L9.33252 1.38188L9.33296 1.38206L9.38086 1.2666ZM11.2334 3.11914L11.1179 3.16704L11.1181 3.16748L11.2334 3.11914ZM11.5 7.125H11.375V7.25H11.5V7.125ZM13.125 7.125V15H13.375V7.125H13.125ZM13.25 14.875H2.75V15.125H13.25V14.875ZM2.875 15V7.125H2.625V15H2.875ZM2.75 7.25H10.625V7H2.75V7.25ZM10.75 7.125V4.5H10.5V7.125H10.75ZM10.75 4.5C10.75 4.11125 10.6812 3.74848 10.5422 3.41309L10.3113 3.50878C10.4367 3.81141 10.5 4.14136 10.5 4.5H10.75ZM10.5425 3.41367C10.4042 3.07519 10.2104 2.78269 9.96057 2.53771L9.78552 2.7162C10.0097 2.93606 10.185 3.19955 10.311 3.5082L10.5425 3.41367ZM9.96229 2.53943C9.71731 2.28965 9.42481 2.09578 9.08633 1.95752L8.9918 2.18896C9.30045 2.31503 9.56394 2.4903 9.7838 2.71448L9.96229 2.53943ZM9.08691 1.95776C8.75152 1.81881 8.38875 1.75 8 1.75V2C8.35864 2 8.68859 2.06335 8.99122 2.18872L9.08691 1.95776ZM8 1.75C7.61123 1.75 7.24642 1.81882 6.90684 1.95752L7.00137 2.18896C7.30892 2.06334 7.64138 2 8 2V1.75ZM6.90626 1.95776C6.57256 2.09601 6.28067 2.28963 6.03173 2.53856L6.20851 2.71534C6.43352 2.49032 6.69763 2.3148 7.00194 2.18872L6.90626 1.95776ZM6.03173 2.53856C5.78682 2.78347 5.59557 3.0757 5.45752 3.41367L5.68896 3.5082C5.81524 3.19904 5.98857 2.93528 6.20851 2.71534L6.03173 2.53856ZM5.45776 3.41309C5.31881 3.74848 5.25 4.11125 5.25 4.5H5.5C5.5 4.14136 5.56335 3.81141 5.68872 3.50878L5.45776 3.41309ZM5.375 4.375H4.5V4.625H5.375V4.375ZM4.625 4.5C4.625 4.0185 4.71106 3.5748 4.88188 3.16748L4.65133 3.0708C4.46667 3.51114 4.375 3.98801 4.375 4.5H4.625ZM4.88206 3.16704C5.05379 2.75314 5.2909 2.39564 5.59327 2.09327L5.41649 1.91649C5.08996 2.24303 4.83489 2.62838 4.65114 3.07124L4.88206 3.16704ZM5.59327 2.09327C5.89586 1.79068 6.25127 1.55355 6.66065 1.38188L6.56396 1.15133C6.12568 1.33512 5.74281 1.59018 5.41649 1.91649L5.59327 2.09327ZM6.66021 1.38206C7.07235 1.21106 7.51851 1.125 8 1.125V0.875C7.488 0.875 7.00903 0.966673 6.5644 1.15114L6.66021 1.38206ZM8 1.125C8.4815 1.125 8.9252 1.21106 9.33252 1.38188L9.4292 1.15133C8.98886 0.966669 8.51199 0.875 8 0.875V1.125ZM9.33296 1.38206C9.74686 1.55379 10.1044 1.7909 10.4067 2.09327L10.5835 1.91649C10.257 1.58996 9.87162 1.33489 9.42876 1.15114L9.33296 1.38206ZM10.4067 2.09327C10.7091 2.39564 10.9462 2.75314 11.1179 3.16704L11.3489 3.07124C11.1651 2.62838 10.91 2.24303 10.5835 1.91649L10.4067 2.09327ZM11.1181 3.16748C11.2889 3.5748 11.375 4.0185 11.375 4.5H11.625C11.625 3.98801 11.5333 3.51114 11.3487 3.0708L11.1181 3.16748ZM11.375 4.5V7.125H11.625V4.5H11.375ZM11.5 7.25H13.25V7H11.5V7.25Z" fill="#C5C5C5"/>
</svg>
