<svg width="16" height="16" viewBox="0 0 16 16" fill="none" xmlns="http://www.w3.org/2000/svg">
<path d="M13.25 7.125V15H2.75V7.125H4.5V4.56836C4.5 4.07617 4.58887 3.61361 4.7666 3.18066C4.94434 2.74772 5.19043 2.36947 5.50488 2.0459C5.81934 1.72233 6.18848 1.46712 6.6123 1.28027C7.04069 1.09342 7.50326 1 8 1C8.49674 1 8.95703 1.09342 9.38086 1.28027C9.80924 1.46712 10.1807 1.72233 10.4951 2.0459C10.8096 2.36947 11.0557 2.74772 11.2334 3.18066C11.4111 3.61361 11.5 4.07617 11.5 4.56836V7.125H13.25ZM5.375 7.125H10.625V4.56836C10.625 4.19922 10.5589 3.85286 10.4268 3.5293C10.2946 3.20117 10.11 2.91406 9.87305 2.66797C9.64062 2.42188 9.36263 2.22819 9.03906 2.08691C8.72005 1.94564 8.3737 1.875 8 1.875C7.6263 1.875 7.27767 1.94564 6.9541 2.08691C6.63509 2.22819 6.3571 2.42188 6.12012 2.66797C5.8877 2.91406 5.7054 3.20117 5.57324 3.5293C5.44108 3.85286 5.375 4.19922 5.375 4.56836V7.125ZM12.375 8H3.625V14.125H12.375V8Z" fill="#C5C5C5"/>
</svg>
