<svg width="16" height="16" viewBox="0 0 16 16" fill="none" xmlns="http://www.w3.org/2000/svg">
<path d="M13.25 7.125V15H2.75V7.125H4.5V4.56836C4.5 4.07617 4.58887 3.61361 4.7666 3.18066C4.94434 2.74772 5.19043 2.36947 5.50488 2.0459C5.81934 1.72233 6.18848 1.46712 6.6123 1.28027C7.04069 1.09342 7.50326 1 8 1C8.49674 1 8.95703 1.09342 9.38086 1.28027C9.80924 1.46712 10.1807 1.72233 10.4951 2.0459C10.8096 2.36947 11.0557 2.74772 11.2334 3.18066C11.4111 3.61361 11.5 4.07617 11.5 4.56836V7.125H13.25ZM5.375 7.125H10.625V4.56836C10.625 4.19922 10.5589 3.85286 10.4268 3.5293C10.2946 3.20117 10.11 2.91406 9.87305 2.66797C9.64062 2.42188 9.36263 2.22819 9.03906 2.08691C8.72005 1.94564 8.3737 1.875 8 1.875C7.6263 1.875 7.27767 1.94564 6.9541 2.08691C6.63509 2.22819 6.3571 2.42188 6.12012 2.66797C5.8877 2.91406 5.7054 3.20117 5.57324 3.5293C5.44108 3.85286 5.375 4.19922 5.375 4.56836V7.125Z" fill="#C5C5C5"/>
<path d="M13.25 7.125H13.375V7H13.25V7.125ZM13.25 15V15.125H13.375V15H13.25ZM2.75 15H2.625V15.125H2.75V15ZM2.75 7.125V7H2.625V7.125H2.75ZM4.5 7.125V7.25H4.625V7.125H4.5ZM6.6123 1.28027L6.56233 1.1657L6.56188 1.1659L6.6123 1.28027ZM9.38086 1.28027L9.33043 1.39465L9.33088 1.39485L9.38086 1.28027ZM11.5 7.125H11.375V7.25H11.5V7.125ZM5.375 7.125H5.25V7.25H5.375V7.125ZM10.625 7.125V7.25H10.75V7.125H10.625ZM10.4268 3.5293L10.3108 3.576L10.311 3.57656L10.4268 3.5293ZM9.87305 2.66797L9.78217 2.7538L9.78301 2.75467L9.87305 2.66797ZM9.03906 2.08691L8.98845 2.20121L8.98904 2.20147L9.03906 2.08691ZM6.9541 2.08691L6.90408 1.97236L6.90349 1.97262L6.9541 2.08691ZM6.12012 2.66797L6.03007 2.58126L6.02924 2.58214L6.12012 2.66797ZM5.57324 3.5293L5.68896 3.57656L5.68919 3.576L5.57324 3.5293ZM13.125 7.125V15H13.375V7.125H13.125ZM13.25 14.875H2.75V15.125H13.25V14.875ZM2.875 15V7.125H2.625V15H2.875ZM2.75 7.25H4.5V7H2.75V7.25ZM4.625 7.125V4.56836H4.375V7.125H4.625ZM4.625 4.56836C4.625 4.0916 4.711 3.64524 4.88224 3.22814L4.65097 3.13319C4.46673 3.58197 4.375 4.06074 4.375 4.56836H4.625ZM4.88224 3.22814C5.05414 2.80939 5.2916 2.44472 5.59452 2.13302L5.41524 1.95878C5.08926 2.29421 4.83453 2.68606 4.65097 3.13319L4.88224 3.22814ZM5.59452 2.13302C5.89748 1.82128 6.25321 1.57519 6.66273 1.39465L6.56188 1.1659C6.12375 1.35905 5.74119 1.62338 5.41524 1.95878L5.59452 2.13302ZM6.66228 1.39485C7.07392 1.2153 7.51935 1.125 8 1.125V0.875C7.48716 0.875 7.00746 0.971547 6.56233 1.1657L6.66228 1.39485ZM8 1.125C8.48066 1.125 8.92362 1.2153 9.33043 1.39465L9.43128 1.1659C8.99044 0.971545 8.51283 0.875 8 0.875V1.125ZM9.33088 1.39485C9.74493 1.57544 10.1027 1.82151 10.4055 2.13302L10.5848 1.95878C10.2586 1.62315 9.87356 1.3588 9.43083 1.1657L9.33088 1.39485ZM10.4055 2.13302C10.7084 2.44472 10.9459 2.80939 11.1178 3.22814L11.349 3.13319C11.1655 2.68606 10.9107 2.29421 10.5848 1.95878L10.4055 2.13302ZM11.1178 3.22814C11.289 3.64524 11.375 4.0916 11.375 4.56836H11.625C11.625 4.06074 11.5333 3.58197 11.349 3.13319L11.1178 3.22814ZM11.375 4.56836V7.125H11.625V4.56836H11.375ZM11.5 7.25H13.25V7H11.5V7.25ZM5.375 7.25H10.625V7H5.375V7.25ZM10.75 7.125V4.56836H10.5V7.125H10.75ZM10.75 4.56836C10.75 4.18393 10.6811 3.82143 10.5425 3.48203L10.311 3.57656C10.4367 3.88429 10.5 4.2145 10.5 4.56836H10.75ZM10.5427 3.4826C10.4048 3.14013 10.2116 2.83932 9.96309 2.58126L9.78301 2.75467C10.0085 2.98881 10.1844 3.26221 10.3108 3.576L10.5427 3.4826ZM9.96392 2.58214C9.71946 2.32329 9.42739 2.12007 9.08908 1.97236L8.98904 2.20147C9.29788 2.33631 9.56179 2.52046 9.78217 2.7538L9.96392 2.58214ZM9.08968 1.97262C8.75362 1.82379 8.38987 1.75 8 1.75V2C8.35752 2 8.68649 2.06748 8.98845 2.20121L9.08968 1.97262ZM8 1.75C7.61011 1.75 7.24434 1.8238 6.90408 1.97236L7.00412 2.20147C7.311 2.06748 7.64249 2 8 2V1.75ZM6.90349 1.97262C6.56999 2.12031 6.27853 2.32326 6.03008 2.58126L6.21016 2.75467C6.43566 2.52049 6.70019 2.33607 7.00472 2.20121L6.90349 1.97262ZM6.02924 2.58214C5.78561 2.8401 5.59503 3.14064 5.45729 3.4826L5.68919 3.576C5.81578 3.26171 5.98978 2.98802 6.21099 2.7538L6.02924 2.58214ZM5.45752 3.48203C5.31889 3.82143 5.25 4.18393 5.25 4.56836H5.5C5.5 4.2145 5.56327 3.88429 5.68896 3.57656L5.45752 3.48203ZM5.25 4.56836V7.125H5.5V4.56836H5.25Z" fill="#C5C5C5"/>
</svg>
