<svg width="16" height="16" viewBox="0 0 16 16" fill="none" xmlns="http://www.w3.org/2000/svg">
<path d="M13.25 7.125V15H2.75V7.125H10.625V4.5C10.625 4.1263 10.5566 3.77995 10.4199 3.46094C10.2878 3.14193 10.1032 2.86621 9.86621 2.63379C9.63379 2.39681 9.35807 2.21224 9.03906 2.08008C8.72005 1.94336 8.3737 1.875 8 1.875C7.6263 1.875 7.27995 1.94336 6.96094 2.08008C6.64193 2.21224 6.36393 2.39681 6.12695 2.63379C5.89453 2.86621 5.70996 3.14193 5.57324 3.46094C5.44108 3.77995 5.375 4.1263 5.375 4.5H4.5C4.5 4.00326 4.58887 3.54297 4.7666 3.11914C4.94434 2.69076 5.19043 2.31934 5.50488 2.00488C5.81934 1.69043 6.18848 1.44434 6.6123 1.2666C7.04069 1.08887 7.50326 1 8 1C8.49674 1 8.95703 1.08887 9.38086 1.2666C9.80924 1.44434 10.1807 1.69043 10.4951 2.00488C10.8096 2.31934 11.0557 2.69076 11.2334 3.11914C11.4111 3.54297 11.5 4.00326 11.5 4.5V7.125H13.25ZM12.375 8H3.625V14.125H12.375V8Z" fill="#C5C5C5"/>
</svg>
