<svg width="16" height="16" viewBox="0 0 16 16" fill="none" xmlns="http://www.w3.org/2000/svg">
<path d="M5.375 6.25V7.125H4.5V6.25H5.375ZM11.5 6.25V7.125H6.25V6.25H11.5ZM4.5 9.75V8.875H5.375V9.75H4.5ZM6.25 9.75V8.875H11.5V9.75H6.25ZM5.375 3.625V4.5H4.5V3.625H5.375ZM11.5 3.625V4.5H6.25V3.625H11.5ZM3.625 1.875V12.375H9.75V13.25H2.75V1H13.25V9.75H12.375V1.875H3.625ZM14.8701 11.3701L13.4277 12.8125L14.8701 14.2549L14.2549 14.8701L12.8125 13.4277L11.3701 14.8701L10.7549 14.2549L12.1973 12.8125L10.7549 11.3701L11.3701 10.7549L12.8125 12.1973L14.2549 10.7549L14.8701 11.3701Z" fill="#C5C5C5"/>
</svg>
