<svg width="16" height="16" viewBox="0 0 16 16" fill="none" xmlns="http://www.w3.org/2000/svg">
<path fill-rule="evenodd" clip-rule="evenodd" d="M2.02053 12.5128L3.60002 10.1436L3.4872 9.80513L0.666687 9.1282V6.87179L3.4872 6.30769L3.60002 5.96922L2.02053 3.59999L3.60002 2.0205L5.96925 3.59999L6.30772 3.48717L6.87182 0.666656H9.12823L9.69233 3.48717L10.0308 3.59999L12.4 2.0205L13.9795 3.59999L12.4 5.96922L12.5128 6.30769L15.3334 6.87179V9.1282L12.5128 9.6923L12.4 10.0308L13.9795 12.4L12.4 13.9795L10.0308 12.4L9.69233 12.6256L9.12823 15.4462H6.87182L6.30772 12.6256L5.96925 12.5128L3.60002 14.0923L2.02053 12.5128ZM8.00002 10.6667C9.47278 10.6667 10.6667 9.47275 10.6667 7.99999C10.6667 6.52723 9.47278 5.33332 8.00002 5.33332C6.52726 5.33332 5.33335 6.52723 5.33335 7.99999C5.33335 9.47275 6.52726 10.6667 8.00002 10.6667Z" fill="#C5C5C5"/>
</svg>
