<svg width="16" height="16" viewBox="0 0 16 16" fill="none" xmlns="http://www.w3.org/2000/svg">
<path d="M15.5391 10.6953L15.9219 11.625L14.9531 12.0234C14.9844 12.1797 15 12.3385 15 12.5C15 12.6615 14.9844 12.8203 14.9531 12.9766L15.9219 13.375L15.5391 14.3047L14.5703 13.8984C14.388 14.1641 14.1641 14.388 13.8984 14.5703L14.3047 15.5391L13.375 15.9219L12.9766 14.9531C12.8203 14.9844 12.6615 15 12.5 15C12.3385 15 12.1797 14.9844 12.0234 14.9531L11.625 15.9219L10.6953 15.5391L11.1016 14.5703C10.8359 14.388 10.612 14.1641 10.4297 13.8984L9.46094 14.3047L9.07812 13.375L10.0469 12.9766C10.0156 12.8203 10 12.6615 10 12.5C10 12.3385 10.0156 12.1797 10.0469 12.0234L9.07812 11.625L9.46094 10.6953L10.4297 11.1016C10.612 10.8359 10.8359 10.612 11.1016 10.4297L10.6953 9.46094L11.625 9.07812L12.0234 10.0469C12.1797 10.0156 12.3385 10 12.5 10C12.6615 10 12.8203 10.0156 12.9766 10.0469L13.375 9.07812L14.3047 9.46094L13.8984 10.4297C14.1641 10.612 14.388 10.8359 14.5703 11.1016L15.5391 10.6953ZM14 12.5C14 12.2917 13.9609 12.0964 13.8828 11.9141C13.8047 11.7318 13.6979 11.5729 13.5625 11.4375C13.4271 11.3021 13.2682 11.1953 13.0859 11.1172C12.9036 11.0391 12.7083 11 12.5 11C12.2917 11 12.0964 11.0391 11.9141 11.1172C11.7318 11.1953 11.5729 11.3021 11.4375 11.4375C11.3021 11.5729 11.1953 11.7318 11.1172 11.9141C11.0391 12.0964 11 12.2917 11 12.5C11 12.7083 11.0391 12.9036 11.1172 13.0859C11.1953 13.2682 11.3021 13.4271 11.4375 13.5625C11.5729 13.6979 11.7318 13.8047 11.9141 13.8828C12.0964 13.9609 12.2917 14 12.5 14C12.7083 14 12.9036 13.9609 13.0859 13.8828C13.2682 13.8047 13.4271 13.6979 13.5625 13.5625C13.6979 13.4271 13.8047 13.2682 13.8828 13.0859C13.9609 12.9036 14 12.7083 14 12.5ZM0 1H16V2.71094L10 8.71094C9.94792 8.76302 9.8776 8.82552 9.78906 8.89844C9.70573 8.96615 9.61458 9.03646 9.51562 9.10938C9.42188 9.18229 9.32812 9.2526 9.23438 9.32031C9.14062 9.38802 9.0625 9.44792 9 9.5V8.28906L15 2.28906V2H1V2.28906L7 8.28906V14H8.27344C8.33594 14.1771 8.40625 14.349 8.48438 14.5156C8.5625 14.6823 8.65365 14.8438 8.75781 15H6V8.71094L0 2.71094V1Z" fill="#C5C5C5"/>
</svg>
