<svg width="16" height="16" viewBox="0 0 16 16" fill="none" xmlns="http://www.w3.org/2000/svg">
<path d="M3.48201 7.043L1.22101 4.774L1.92701 4.068L3.00001 5.138V3.524C2.99922 3.329 3.0369 3.13576 3.11088 2.95533C3.18487 2.77491 3.29371 2.61085 3.43118 2.47254C3.56865 2.33424 3.73205 2.2244 3.91202 2.14932C4.09199 2.07424 4.285 2.0354 4.48001 2.035H6.98001V3H4.48001C4.34489 3.0062 4.2174 3.0644 4.12421 3.16244C4.03102 3.26047 3.97935 3.39075 3.98001 3.526L3.98801 5.126L5.00001 4.119L5.70001 4.819L3.48201 7.043Z" fill="#C5C5C5"/>
<path d="M1 8V14.979H11.021V8H1ZM10 14H2V9H10V14Z" fill="#C5C5C5"/>
<path d="M5.94 6L4.94 7H12V12V12.979H13.021V6H5.94Z" fill="#C5C5C5"/>
<path d="M9.01702 12.915C8.74759 13.0062 8.46442 13.0502 8.18002 13.045C7.90075 13.0522 7.62397 12.9908 7.37402 12.866C7.15449 12.7534 6.9745 12.5765 6.85802 12.359C6.73538 12.1251 6.67381 11.864 6.67902 11.6C6.67391 11.3127 6.74278 11.029 6.87902 10.776C7.00881 10.5392 7.2048 10.3453 7.44302 10.218C7.70188 10.0821 7.9907 10.0134 8.28302 10.018C8.53066 10.0173 8.77737 10.0486 9.01702 10.111V10.924C8.92668 10.8708 8.82845 10.8323 8.72602 10.81C8.61378 10.7824 8.49859 10.7686 8.38302 10.769C8.27978 10.7631 8.17644 10.7784 8.0793 10.8138C7.98216 10.8492 7.89326 10.9041 7.81802 10.975C7.74723 11.0491 7.69236 11.137 7.65676 11.2331C7.62116 11.3292 7.6056 11.4316 7.61102 11.534C7.60565 11.6355 7.62127 11.7369 7.65688 11.8321C7.6925 11.9272 7.74735 12.014 7.81802 12.087C7.89213 12.1556 7.97925 12.2087 8.07424 12.243C8.16923 12.2774 8.27015 12.2923 8.37102 12.287C8.59617 12.2842 8.81751 12.2284 9.01702 12.124V12.915Z" fill="#C5C5C5"/>
<path d="M9.029 4.489L8.913 5H8L8.729 2H10.015L10.708 5H9.808L9.689 4.489H9.029ZM9.19 3.789H9.524L9.359 3.056L9.19 3.789Z" fill="#C5C5C5"/>
<path d="M13.457 5.01901H12.024V2.01901H13.115C13.3036 2.00995 13.4923 2.03329 13.673 2.08801C13.8007 2.14097 13.9065 2.23585 13.973 2.35701C14.0551 2.50589 14.0958 2.67405 14.091 2.84401C14.0972 2.97558 14.0761 3.10701 14.029 3.23001C13.9804 3.33236 13.9125 3.42437 13.829 3.50101C13.9295 3.58108 14.0131 3.68034 14.075 3.79301C14.1312 3.92105 14.1572 4.06031 14.151 4.20001C14.1619 4.41419 14.0952 4.62512 13.963 4.79401C13.9017 4.86798 13.8241 4.92679 13.7364 4.96582C13.6486 5.00485 13.553 5.02305 13.457 5.01901ZM12.95 2.62401H12.926V3.20801H12.95C12.9872 3.21151 13.0248 3.20757 13.0605 3.19641C13.0962 3.18525 13.1294 3.1671 13.158 3.14301C13.2062 3.08191 13.2288 3.00445 13.221 2.92701C13.2293 2.84373 13.2081 2.76017 13.161 2.69101C13.1323 2.66598 13.0987 2.64712 13.0624 2.6356C13.0261 2.62407 12.9879 2.62013 12.95 2.62401V2.62401ZM12.942 3.71501H12.926V4.35901H12.954C12.9936 4.36306 13.0336 4.35904 13.0716 4.34718C13.1096 4.33532 13.1447 4.31587 13.175 4.29001C13.2256 4.22196 13.2488 4.13736 13.24 4.05301C13.2498 3.96012 13.2268 3.86672 13.175 3.78901C13.1435 3.76101 13.1065 3.73995 13.0664 3.7272C13.0262 3.71445 12.9838 3.71029 12.942 3.71501V3.71501Z" fill="#C5C5C5"/>
<path d="M4.015 12.507L3.9 13.013H3L3.722 10.043H4.992L5.678 13.013H4.778L4.66 12.507H4.015ZM4.174 11.807H4.505L4.342 11.081L4.174 11.807Z" fill="#C5C5C5"/>
</svg>
