<svg width="16" height="16" viewBox="0 0 16 16" fill="none" xmlns="http://www.w3.org/2000/svg">
<path d="M5.48201 6.008L3.22101 3.739L3.92701 3.033L5.00001 4.1V2.489C4.99909 2.29396 5.03667 2.10066 5.11061 1.92018C5.18455 1.73969 5.29339 1.57558 5.43089 1.43725C5.56838 1.29892 5.73183 1.18908 5.91186 1.11405C6.0919 1.03902 6.28497 1.00026 6.48001 1H8.98001V1.965H6.48001C6.3448 1.97095 6.21717 2.02908 6.12393 2.12716C6.03069 2.22525 5.9791 2.35567 5.98001 2.491L5.98801 4.091L7.00001 3.084L7.70001 3.784L5.48201 6.008Z" fill="#C5C5C5"/>
<path d="M3 7V14.979H12.021V7H3ZM11 14H4V8H11V14Z" fill="#C5C5C5"/>
<path d="M9.10745 12.8719C8.7495 12.9932 8.37331 13.0517 7.99545 13.0449C7.62432 13.0548 7.25648 12.973 6.92445 12.8069C6.63249 12.6574 6.39316 12.4222 6.23845 12.1329C6.07539 11.822 5.99353 11.475 6.00045 11.1239C5.99274 10.7405 6.08437 10.3615 6.26645 10.0239C6.43891 9.70923 6.69913 9.45144 7.01545 9.28194C7.3597 9.10143 7.7438 9.0103 8.13245 9.01694C8.46139 9.01575 8.78911 9.05709 9.10745 9.13994V10.2259C8.98739 10.1549 8.85673 10.1036 8.72045 10.0739C8.57154 10.0375 8.41875 10.0194 8.26545 10.0199C8.05874 10.0006 7.8515 10.0509 7.67653 10.1626C7.50156 10.2744 7.36887 10.4413 7.29945 10.6369C7.25205 10.7647 7.23162 10.9009 7.23945 11.0369C7.23133 11.173 7.25177 11.3093 7.29945 11.4369C7.34421 11.5642 7.41749 11.6796 7.51368 11.7742C7.60988 11.8689 7.72644 11.9403 7.85445 11.9829C7.98233 12.0298 8.11854 12.0495 8.25445 12.0409C8.55346 12.0375 8.84743 11.9635 9.11245 11.8249L9.10745 12.8719Z" fill="#C5C5C5"/>
<path d="M11.9 5H10V1.02H11.447C11.697 1.00801 11.9473 1.03878 12.187 1.111C12.3574 1.18045 12.4987 1.30653 12.587 1.468C12.6959 1.66552 12.7501 1.88853 12.744 2.114C12.752 2.28848 12.7241 2.46275 12.662 2.626C12.5972 2.76189 12.5069 2.8841 12.396 2.986C12.5299 3.0917 12.6411 3.22333 12.723 3.373C12.7969 3.54308 12.8311 3.72774 12.823 3.913C12.8373 4.1972 12.7485 4.47703 12.573 4.701C12.4919 4.7998 12.3887 4.87828 12.2719 4.93019C12.1551 4.9821 12.0277 5.006 11.9 5ZM11.228 1.822H11.2V2.6H11.231C11.2806 2.60478 11.3306 2.59933 11.378 2.584C11.4253 2.56974 11.4692 2.54592 11.507 2.514C11.5711 2.43279 11.6012 2.32992 11.591 2.227C11.6021 2.11649 11.5737 2.00564 11.511 1.914C11.4728 1.88093 11.4283 1.85598 11.3802 1.84068C11.332 1.82538 11.2813 1.82004 11.231 1.825L11.228 1.822ZM11.218 3.269H11.2V4.124H11.237C11.2895 4.12917 11.3426 4.12373 11.393 4.108C11.4434 4.09232 11.49 4.06645 11.53 4.032C11.5972 3.94191 11.6279 3.82976 11.616 3.718C11.6292 3.59486 11.5988 3.471 11.53 3.368C11.4884 3.33069 11.4393 3.30273 11.386 3.286C11.3328 3.26886 11.2766 3.26307 11.221 3.269H11.218Z" fill="#C5C5C5"/>
</svg>
