<svg width="24" height="24" viewBox="0 0 24 24" fill="none" xmlns="http://www.w3.org/2000/svg">
<g clip-path="url(#clip0)">
<path fill-rule="evenodd" clip-rule="evenodd" d="M15.7092 13.9128L24 22.242L22.2501 24L13.9594 15.6708L15.7092 13.9128Z" fill="#F4F4F4"/>
<path fill-rule="evenodd" clip-rule="evenodd" d="M9.52814 19.1446C4.36105 19.1446 1.79556e-07 15.0368 4.1572e-07 9.63399C6.50315e-07 4.26709 4.20309 1.54425e-05 9.52814 1.56753e-05C14.8532 1.5908e-05 19.0563 4.26709 19.0563 9.63399C19.0563 14.9014 14.7074 19.1446 9.52814 19.1446ZM2.47468 9.63399C2.47468 13.6092 5.67289 16.6584 9.52814 16.6584C13.3712 16.6584 16.5816 13.4979 16.5816 9.63399C16.5816 5.62282 13.4693 2.48616 9.52814 2.48616C5.587 2.48616 2.47468 5.62282 2.47468 9.63399Z" fill="#F4F4F4"/>
</g>
<defs>
<clipPath id="clip0">
<rect width="24" height="24" fill="white"/>
</clipPath>
</defs>
</svg>
