<svg width="24" height="24" viewBox="0 0 24 24" fill="none" xmlns="http://www.w3.org/2000/svg">
<path d="M15.75 0C16.5078 0 17.2383 0.0976562 17.9414 0.292969C18.6445 0.488281 19.3008 0.765625 19.9102 1.125C20.5195 1.48438 21.0742 1.91797 21.5742 2.42578C22.082 2.92578 22.5156 3.48047 22.875 4.08984C23.2344 4.69922 23.5117 5.35547 23.707 6.05859C23.9023 6.76172 24 7.49219 24 8.25C24 9.00781 23.9023 9.73828 23.707 10.4414C23.5117 11.1445 23.2344 11.8008 22.875 12.4102C22.5156 13.0195 22.082 13.5781 21.5742 14.0859C21.0742 14.5859 20.5195 15.0156 19.9102 15.375C19.3008 15.7344 18.6445 16.0117 17.9414 16.207C17.2383 16.4023 16.5078 16.5 15.75 16.5C14.7734 16.5 13.8359 16.3359 12.9375 16.0078C12.0469 15.6797 11.2266 15.207 10.4766 14.5898L1.27734 23.7773C1.12891 23.9258 0.953125 24 0.75 24C0.546875 24 0.371094 23.9258 0.222656 23.7773C0.0742188 23.6289 0 23.4531 0 23.25C0 23.0469 0.0742188 22.8711 0.222656 22.7227L9.41016 13.5234C8.79297 12.7734 8.32031 11.9531 7.99219 11.0625C7.66406 10.1641 7.5 9.22656 7.5 8.25C7.5 7.49219 7.59766 6.76172 7.79297 6.05859C7.98828 5.35547 8.26562 4.69922 8.625 4.08984C8.98438 3.48047 9.41406 2.92578 9.91406 2.42578C10.4219 1.91797 10.9805 1.48438 11.5898 1.125C12.1992 0.765625 12.8555 0.488281 13.5586 0.292969C14.2617 0.0976562 14.9922 0 15.75 0ZM15.75 15C16.6797 15 17.5547 14.8242 18.375 14.4727C19.1953 14.1133 19.9102 13.6289 20.5195 13.0195C21.1289 12.4102 21.6094 11.6953 21.9609 10.875C22.3203 10.0547 22.5 9.17969 22.5 8.25C22.5 7.32031 22.3203 6.44531 21.9609 5.625C21.6094 4.80469 21.1289 4.08984 20.5195 3.48047C19.9102 2.87109 19.1953 2.39062 18.375 2.03906C17.5547 1.67969 16.6797 1.5 15.75 1.5C14.8203 1.5 13.9453 1.67969 13.125 2.03906C12.3047 2.39062 11.5898 2.87109 10.9805 3.48047C10.3711 4.08984 9.88672 4.80469 9.52734 5.625C9.17578 6.44531 9 7.32031 9 8.25C9 9.17969 9.17578 10.0547 9.52734 10.875C9.88672 11.6953 10.3711 12.4102 10.9805 13.0195C11.5898 13.6289 12.3047 14.1133 13.125 14.4727C13.9453 14.8242 14.8203 15 15.75 15Z" fill="white"/>
</svg>
