<svg width="28" height="28" viewBox="0 0 28 28" fill="none" xmlns="http://www.w3.org/2000/svg">
<path d="M12.326 16.7885L4.826 24.2885L3.7655 23.228L11.2655 15.728L12.326 16.7885Z" fill="white"/>
<path d="M17 3.5C15.5166 3.5 14.0666 3.93987 12.8332 4.76398C11.5999 5.58809 10.6386 6.75943 10.0709 8.12987C9.50325 9.50032 9.35472 11.0083 9.64411 12.4632C9.9335 13.918 10.6478 15.2544 11.6967 16.3033C12.7456 17.3522 14.082 18.0665 15.5368 18.3559C16.9917 18.6453 18.4997 18.4968 19.8701 17.9291C21.2406 17.3614 22.4119 16.4001 23.236 15.1668C24.0601 13.9334 24.5 12.4834 24.5 11C24.4976 9.01161 23.7067 7.10534 22.3007 5.69933C20.8947 4.29332 18.9884 3.50238 17 3.5V3.5ZM17 17C15.8133 17 14.6533 16.6481 13.6666 15.9888C12.6799 15.3295 11.9109 14.3925 11.4567 13.2961C11.0026 12.1997 10.8838 10.9933 11.1153 9.82946C11.3468 8.66557 11.9182 7.59647 12.7574 6.75736C13.5965 5.91824 14.6656 5.3468 15.8295 5.11529C16.9933 4.88378 18.1997 5.0026 19.2961 5.45672C20.3925 5.91085 21.3295 6.67988 21.9888 7.66658C22.6481 8.65327 23 9.81331 23 11C23 12.5913 22.3679 14.1174 21.2426 15.2426C20.1174 16.3679 18.5913 17 17 17Z" fill="white"/>
</svg>
