<svg width="28" height="28" viewBox="0 0 28 28" fill="none" xmlns="http://www.w3.org/2000/svg">
<g clip-path="url(#clip0)">
<path fill-rule="evenodd" clip-rule="evenodd" d="M18.3274 16.2316L28 25.949L25.9585 28L16.2859 18.2826L18.3274 16.2316Z" fill="#F4F4F4"/>
<path fill-rule="evenodd" clip-rule="evenodd" d="M11.1162 22.3353C5.08789 22.3353 2.09482e-07 17.5429 4.85007e-07 11.2397C7.58701e-07 4.97828 4.9036 2.31025e-05 11.1162 2.33741e-05C17.3287 2.36456e-05 22.2323 4.97828 22.2323 11.2397C22.2323 17.3849 17.1587 22.3353 11.1162 22.3353ZM2.88713 11.2397C2.88713 15.8775 6.61837 19.4348 11.1162 19.4348C15.5997 19.4348 19.3452 15.7475 19.3452 11.2397C19.3452 6.55996 15.7142 2.90052 11.1162 2.90052C6.51817 2.90052 2.88713 6.55996 2.88713 11.2397Z" fill="#F4F4F4"/>
</g>
<defs>
<clipPath id="clip0">
<rect width="28" height="28" fill="white"/>
</clipPath>
</defs>
</svg>
