<svg width="28" height="28" viewBox="0 0 28 28" fill="none" xmlns="http://www.w3.org/2000/svg">
<path d="M17.1249 2C12.2122 2 8.22789 5.98533 8.22789 10.899C8.22789 12.706 8.77475 14.3791 9.69803 15.7843C9.69803 15.7843 4.13603 21.3189 2.49239 22.9899C0.847726 24.66 3.50799 27.1203 5.13236 25.4341C6.75774 23.7509 12.2406 18.3269 12.2406 18.3269C13.6448 19.2512 15.3199 19.798 17.1249 19.798C22.0406 19.798 26.0249 15.8107 26.0249 10.899C26.0259 5.98431 22.0406 2 17.1249 2V2ZM17.1249 17.2544C13.6154 17.2544 10.7684 14.4095 10.7684 10.899C10.7684 7.38851 13.6144 4.54257 17.1249 4.54257C20.6374 4.54257 23.4823 7.3875 23.4823 10.899C23.4823 14.4095 20.6374 17.2544 17.1249 17.2544V17.2544Z" fill="white"/>
</svg>
