<svg width="28" height="28" viewBox="0 0 28 28" fill="none" xmlns="http://www.w3.org/2000/svg">
<path d="M12.047 17.2532L3.297 26.0032L2.05975 24.766L10.8098 16.016L12.047 17.2532Z" fill="#C5C5C5"/>
<path d="M17.5 1.75C15.7694 1.75 14.0777 2.26318 12.6388 3.22464C11.1998 4.1861 10.0783 5.55267 9.41606 7.15152C8.75379 8.75037 8.58051 10.5097 8.91813 12.207C9.25575 13.9044 10.0891 15.4635 11.3128 16.6872C12.5365 17.9109 14.0956 18.7443 15.793 19.0819C17.4903 19.4195 19.2496 19.2462 20.8485 18.5839C22.4473 17.9217 23.8139 16.8002 24.7754 15.3612C25.7368 13.9223 26.25 12.2306 26.25 10.5C26.2472 8.18021 25.3245 5.95623 23.6841 4.31589C22.0438 2.67554 19.8198 1.75278 17.5 1.75V1.75ZM17.5 17.5C16.1155 17.5 14.7622 17.0895 13.611 16.3203C12.4599 15.5511 11.5627 14.4579 11.0328 13.1788C10.503 11.8997 10.3644 10.4922 10.6345 9.13437C10.9046 7.7765 11.5713 6.52922 12.5503 5.55025C13.5292 4.57129 14.7765 3.9046 16.1344 3.6345C17.4922 3.36441 18.8997 3.50303 20.1788 4.03284C21.4579 4.56266 22.5511 5.45986 23.3203 6.61101C24.0895 7.76215 24.5 9.11553 24.5 10.5C24.5 12.3565 23.7625 14.137 22.4498 15.4497C21.137 16.7625 19.3565 17.5 17.5 17.5Z" fill="#C5C5C5"/>
</svg>
