<svg width="16" height="16" viewBox="0 0 16 16" fill="none" xmlns="http://www.w3.org/2000/svg">
<path d="M13.25 3.625H12.375V13.6875C12.375 13.8698 12.3408 14.0407 12.2725 14.2002C12.2041 14.3597 12.1107 14.4987 11.9922 14.6172C11.8737 14.7357 11.7347 14.8291 11.5752 14.8975C11.4157 14.9658 11.2448 15 11.0625 15H4.0625C3.88021 15 3.70931 14.9658 3.5498 14.8975C3.3903 14.8291 3.2513 14.7357 3.13281 14.6172C3.01432 14.4987 2.9209 14.3597 2.85254 14.2002C2.78418 14.0407 2.75 13.8698 2.75 13.6875V3.625H1.875V2.75H5.375V1.875C5.375 1.75195 5.39779 1.63802 5.44336 1.5332C5.48893 1.42839 5.55046 1.33724 5.62793 1.25977C5.70996 1.17773 5.80339 1.11393 5.9082 1.06836C6.01302 1.02279 6.12695 1 6.25 1H8.875C8.99805 1 9.11198 1.02279 9.2168 1.06836C9.32161 1.11393 9.41276 1.17773 9.49023 1.25977C9.57227 1.33724 9.63607 1.42839 9.68164 1.5332C9.72721 1.63802 9.75 1.75195 9.75 1.875V2.75H13.25V3.625ZM6.25 2.75H8.875V1.875H6.25V2.75ZM11.5 3.625H3.625V13.6875C3.625 13.806 3.66829 13.9085 3.75488 13.9951C3.84147 14.0817 3.94401 14.125 4.0625 14.125H11.0625C11.181 14.125 11.2835 14.0817 11.3701 13.9951C11.4567 13.9085 11.5 13.806 11.5 13.6875V3.625ZM6.25 12.375H5.375V5.375H6.25V12.375ZM8 12.375H7.125V5.375H8V12.375ZM9.75 12.375H8.875V5.375H9.75V12.375Z" fill="#C5C5C5"/>
<path d="M13.25 3.625V3.75H13.375V3.625H13.25ZM12.375 3.625V3.5H12.25V3.625H12.375ZM11.9922 14.6172L11.9038 14.5288L11.9922 14.6172ZM2.85254 14.2002L2.73765 14.2494L2.85254 14.2002ZM2.75 3.625H2.875V3.5H2.75V3.625ZM1.875 3.625H1.75V3.75H1.875V3.625ZM1.875 2.75V2.625H1.75V2.75H1.875ZM5.375 2.75V2.875H5.5V2.75H5.375ZM5.62793 1.25977L5.71632 1.34815L5.62793 1.25977ZM9.49023 1.25977L9.39921 1.34573L9.40441 1.35064L9.49023 1.25977ZM9.75 2.75H9.625V2.875H9.75V2.75ZM13.25 2.75H13.375V2.625H13.25V2.75ZM6.25 2.75H6.125V2.875H6.25V2.75ZM8.875 2.75V2.875H9V2.75H8.875ZM8.875 1.875H9V1.75H8.875V1.875ZM6.25 1.875V1.75H6.125V1.875H6.25ZM11.5 3.625H11.625V3.5H11.5V3.625ZM3.625 3.625V3.5H3.5V3.625H3.625ZM3.75488 13.9951L3.84327 13.9067L3.75488 13.9951ZM11.3701 13.9951L11.2817 13.9067L11.3701 13.9951ZM6.25 12.375V12.5H6.375V12.375H6.25ZM5.375 12.375H5.25V12.5H5.375V12.375ZM5.375 5.375V5.25H5.25V5.375H5.375ZM6.25 5.375H6.375V5.25H6.25V5.375ZM8 12.375V12.5H8.125V12.375H8ZM7.125 12.375H7V12.5H7.125V12.375ZM7.125 5.375V5.25H7V5.375H7.125ZM8 5.375H8.125V5.25H8V5.375ZM9.75 12.375V12.5H9.875V12.375H9.75ZM8.875 12.375H8.75V12.5H8.875V12.375ZM8.875 5.375V5.25H8.75V5.375H8.875ZM9.75 5.375H9.875V5.25H9.75V5.375ZM13.25 3.5H12.375V3.75H13.25V3.5ZM12.25 3.625V13.6875H12.5V3.625H12.25ZM12.25 13.6875C12.25 13.8537 12.2189 14.0078 12.1576 14.151L12.3874 14.2494C12.4627 14.0736 12.5 13.8859 12.5 13.6875H12.25ZM12.1576 14.151C12.0952 14.2964 12.0106 14.422 11.9038 14.5288L12.0806 14.7056C12.2107 14.5754 12.313 14.423 12.3874 14.2494L12.1576 14.151ZM11.9038 14.5288C11.797 14.6356 11.6714 14.7202 11.526 14.7826L11.6244 15.0124C11.798 14.938 11.9504 14.8357 12.0806 14.7056L11.9038 14.5288ZM11.526 14.7826C11.3828 14.8439 11.2287 14.875 11.0625 14.875V15.125C11.2609 15.125 11.4486 15.0877 11.6244 15.0124L11.526 14.7826ZM11.0625 14.875H4.0625V15.125H11.0625V14.875ZM4.0625 14.875C3.89627 14.875 3.74221 14.8439 3.59904 14.7826L3.50056 15.0124C3.67641 15.0877 3.86415 15.125 4.0625 15.125V14.875ZM3.59904 14.7826C3.45363 14.7202 3.32804 14.6356 3.2212 14.5288L3.04442 14.7056C3.17456 14.8357 3.32697 14.938 3.50056 15.0124L3.59904 14.7826ZM3.2212 14.5288C3.11436 14.422 3.02975 14.2964 2.96743 14.151L2.73765 14.2494C2.81204 14.423 2.91429 14.5754 3.04442 14.7056L3.2212 14.5288ZM2.96743 14.151C2.90608 14.0078 2.875 13.8537 2.875 13.6875H2.625C2.625 13.8859 2.66228 14.0736 2.73765 14.2494L2.96743 14.151ZM2.875 13.6875V3.625H2.625V13.6875H2.875ZM2.75 3.5H1.875V3.75H2.75V3.5ZM2 3.625V2.75H1.75V3.625H2ZM1.875 2.875H5.375V2.625H1.875V2.875ZM5.5 2.75V1.875H5.25V2.75H5.5ZM5.5 1.875C5.5 1.76777 5.51977 1.67096 5.55799 1.58304L5.32873 1.48336C5.2758 1.60508 5.25 1.73613 5.25 1.875H5.5ZM5.55799 1.58304C5.59759 1.49198 5.65041 1.41406 5.71632 1.34815L5.53954 1.17138C5.4505 1.26042 5.38028 1.36479 5.32873 1.48336L5.55799 1.58304ZM5.71632 1.34815C5.78743 1.27704 5.86783 1.22222 5.95804 1.18299L5.85836 0.953726C5.73894 1.00565 5.63249 1.07843 5.53954 1.17138L5.71632 1.34815ZM5.95804 1.18299C6.04596 1.14477 6.14277 1.125 6.25 1.125V0.875C6.11113 0.875 5.98008 0.900804 5.85836 0.953726L5.95804 1.18299ZM6.25 1.125H8.875V0.875H6.25V1.125ZM8.875 1.125C8.98223 1.125 9.07904 1.14477 9.16696 1.18299L9.26664 0.953726C9.14492 0.900804 9.01387 0.875 8.875 0.875V1.125ZM9.16696 1.18299C9.2565 1.22192 9.33363 1.276 9.39936 1.34559L9.58111 1.17394C9.49189 1.07947 9.38673 1.00594 9.26664 0.953726L9.16696 1.18299ZM9.40441 1.35064C9.474 1.41637 9.52808 1.4935 9.56701 1.58304L9.79627 1.48336C9.74406 1.36327 9.67053 1.25811 9.57606 1.16889L9.40441 1.35064ZM9.56701 1.58304C9.60523 1.67096 9.625 1.76777 9.625 1.875H9.875C9.875 1.73613 9.8492 1.60508 9.79627 1.48336L9.56701 1.58304ZM9.625 1.875V2.75H9.875V1.875H9.625ZM9.75 2.875H13.25V2.625H9.75V2.875ZM13.125 2.75V3.625H13.375V2.75H13.125ZM6.25 2.875H8.875V2.625H6.25V2.875ZM9 2.75V1.875H8.75V2.75H9ZM8.875 1.75H6.25V2H8.875V1.75ZM6.125 1.875V2.75H6.375V1.875H6.125ZM11.5 3.5H3.625V3.75H11.5V3.5ZM3.5 3.625V13.6875H3.75V3.625H3.5ZM3.5 13.6875C3.5 13.8404 3.55734 13.9744 3.66649 14.0835L3.84327 13.9067C3.77925 13.8427 3.75 13.7716 3.75 13.6875H3.5ZM3.66649 14.0835C3.77565 14.1927 3.90964 14.25 4.0625 14.25V14C3.97838 14 3.90729 13.9708 3.84327 13.9067L3.66649 14.0835ZM4.0625 14.25H11.0625V14H4.0625V14.25ZM11.0625 14.25C11.2154 14.25 11.3494 14.1927 11.4585 14.0835L11.2817 13.9067C11.2177 13.9708 11.1466 14 11.0625 14V14.25ZM11.4585 14.0835C11.5677 13.9744 11.625 13.8404 11.625 13.6875H11.375C11.375 13.7716 11.3458 13.8427 11.2817 13.9067L11.4585 14.0835ZM11.625 13.6875V3.625H11.375V13.6875H11.625ZM6.25 12.25H5.375V12.5H6.25V12.25ZM5.5 12.375V5.375H5.25V12.375H5.5ZM5.375 5.5H6.25V5.25H5.375V5.5ZM6.125 5.375V12.375H6.375V5.375H6.125ZM8 12.25H7.125V12.5H8V12.25ZM7.25 12.375V5.375H7V12.375H7.25ZM7.125 5.5H8V5.25H7.125V5.5ZM7.875 5.375V12.375H8.125V5.375H7.875ZM9.75 12.25H8.875V12.5H9.75V12.25ZM9 12.375V5.375H8.75V12.375H9ZM8.875 5.5H9.75V5.25H8.875V5.5ZM9.625 5.375V12.375H9.875V5.375H9.625Z" fill="#C5C5C5"/>
</svg>
