<svg width="16" height="16" viewBox="0 0 16 16" fill="none" xmlns="http://www.w3.org/2000/svg">
<path d="M13.25 3.625H12.375V13.6875C12.375 13.8698 12.3408 14.0407 12.2725 14.2002C12.2041 14.3597 12.1107 14.4987 11.9922 14.6172C11.8737 14.7357 11.7347 14.8291 11.5752 14.8975C11.4157 14.9658 11.2448 15 11.0625 15H4.0625C3.88021 15 3.70931 14.9658 3.5498 14.8975C3.3903 14.8291 3.2513 14.7357 3.13281 14.6172C3.01432 14.4987 2.9209 14.3597 2.85254 14.2002C2.78418 14.0407 2.75 13.8698 2.75 13.6875V3.625H1.875V2.75H5.375V1.875C5.375 1.75195 5.39779 1.63802 5.44336 1.5332C5.48893 1.42839 5.55046 1.33724 5.62793 1.25977C5.70996 1.17773 5.80339 1.11393 5.9082 1.06836C6.01302 1.02279 6.12695 1 6.25 1H8.875C8.99805 1 9.11198 1.02279 9.2168 1.06836C9.32161 1.11393 9.41276 1.17773 9.49023 1.25977C9.57227 1.33724 9.63607 1.42839 9.68164 1.5332C9.72721 1.63802 9.75 1.75195 9.75 1.875V2.75H13.25V3.625ZM6.25 2.75H8.875V1.875H6.25V2.75ZM11.5 3.625H3.625V13.6875C3.625 13.806 3.66829 13.9085 3.75488 13.9951C3.84147 14.0817 3.94401 14.125 4.0625 14.125H11.0625C11.181 14.125 11.2835 14.0817 11.3701 13.9951C11.4567 13.9085 11.5 13.806 11.5 13.6875V3.625ZM6.25 12.375H5.375V5.375H6.25V12.375ZM8 12.375H7.125V5.375H8V12.375ZM9.75 12.375H8.875V5.375H9.75V12.375Z" fill="#C5C5C5"/>
</svg>
