<svg width="16" height="16" viewBox="0 0 16 16" fill="none" xmlns="http://www.w3.org/2000/svg">
<path d="M2.56449 12.1067L4.00093 9.952L3.89833 9.64419L1.33325 9.02857V6.9765L3.89833 6.46349L4.00093 6.15568L2.56449 4.00101L4.00093 2.56457L6.1556 4.00101L6.46341 3.89841L6.97643 1.33333H9.02849L9.54151 3.89841L9.84932 4.00101L12.004 2.56457L13.4404 4.00101L12.004 6.15568L12.1066 6.46349L14.6717 6.9765V9.02857L12.1066 9.54158L12.004 9.84939L13.4404 12.0041L12.004 13.4405L9.84932 12.0041L9.54151 12.2093L9.02849 14.7743H6.97643L6.46341 12.2093L6.1556 12.1067L4.00093 13.5431L2.56449 12.1067Z" stroke="white"/>
<circle cx="7.99992" cy="8" r="2.16667" stroke="white"/>
</svg>
